<?xml version="1.0" encoding="UTF-8"?>
<!DOCTYPE svg PUBLIC "-//W3C//DTD SVG 1.1//EN" "http://www.w3.org/Graphics/SVG/1.1/DTD/svg11.dtd">
<!-- Creator: CorelDRAW -->
<svg xmlns="http://www.w3.org/2000/svg" xml:space="preserve" width="1276px" height="1600px" version="1.1" shape-rendering="geometricPrecision" text-rendering="geometricPrecision" image-rendering="optimizeQuality" fill-rule="evenodd" clip-rule="evenodd"
viewBox="0 0 155.99 195.51"
 xmlns:xlink="http://www.w3.org/1999/xlink"
 xmlns:xodm="http://www.corel.com/coreldraw/odm/2003">
 <g id="Слой_x0020_1">
  <metadata id="CorelCorpID_0Corel-Layer"/>
  <g id="_2216739609968">
   <path fill="black" d="M32.63 189.76l-8.35 0.02c-2.42,0.02 -4.94,0.57 -5.37,-1.97 -0.31,-1.83 -0.23,-19.5 0.46,-21.49 2.57,-0.8 10.47,-0.62 13.76,-0.42l0.17 21.23c0,0.2 -0.04,1.35 -0.07,1.49 -0.29,1.21 0.3,0.44 -0.6,1.14zm48.16 -189.76l23.54 0c16.09,-0.01 28.79,9.54 33.09,24.57 1.76,6.12 1.28,13.95 1.28,21.63 2,0.54 3.66,3.17 4.27,5.28 1.15,3.95 -0.43,5.97 -0.83,7.71 4.92,3.3 6.36,11.78 3.53,18.06 -0.53,1.18 -0.89,1.2 -0.61,2.3 0.5,1.95 3.17,4.38 3.2,10.94 0.09,17.22 -16.81,27.04 -30.68,21.13 -4.94,-2.11 -3.69,-3.21 -7.01,-1.53 -0.96,0.49 -1.58,0.63 -2.42,1.03l0 6.11c7.25,0 14.51,0.01 21.77,0 8.37,-0.01 12.26,1.05 17.19,4.58 8.95,6.4 8.77,15.2 8.77,24.06 0,6.01 0.76,6.88 -2.67,7.9 -6.75,-1.26 -0.25,-13 -5.02,-21.97 -2.84,-5.34 -9.52,-9.84 -18.16,-8.43l0 28.13c9.64,1.29 7.98,5.82 7.98,15.37 0,7.62 0,15.23 0,22.91l12.1 -0.04c0,-5.33 0,-10.66 0,-15.99 0,-7.5 -1.2,-11.7 3.1,-12.49 2.25,0.68 2.69,0.83 2.69,4.06l-0.02 20.26c0,2.69 1.07,8.91 -3.51,9.86 -0.14,0.02 -0.9,0.05 -2.17,0.07l-118.8 0 -11.46 0c-2.35,-0.39 -4.26,-1.37 -5.59,-3.58 -2.15,-3.6 -1.28,-12.73 -1.28,-18.57 0,-7.11 -0.79,-6.48 2.29,-11.07 -0.54,-1.12 -1.2,-3.07 -1.68,-4.44 -0.55,-1.58 -0.91,-2.78 -1.42,-4.3 -3.68,-11.01 -2.44,-7.94 -6.03,-9.24 -4.16,-1.51 -7.23,-6.74 -5.93,-11.59 0.24,-0.85 0.64,-1.67 1.04,-2.39 0.63,-1.14 1.14,-1.34 1.48,-1.97 1.27,-2.37 -0.96,-5.16 2.23,-12.27 4.59,-10.22 16.15,-16.31 27.93,-12.66 6.31,1.95 14.03,9.05 14.45,14.18 1.57,0 1.97,-0.3 3.44,-0.38l25.59 0 0 -6.11c-7.26,-3.48 -11.23,-5.07 -17.03,-12.76 -0.93,-1.23 -1.44,-2.14 -2.2,-3.53 -1.19,-2.17 -3.07,-5.35 -3.3,-8.15 -6.74,0 -12.65,-3.93 -15.02,-9.42 -2.6,-6.04 -1.32,-14.81 3.56,-18.07 -0.36,-1.54 -0.99,-1.95 -1.15,-3.83 -0.33,-3.98 1.18,-7.35 4.59,-9.16 0,-17.62 -0.54,-30.86 16.72,-41.7 2.38,-1.49 5.09,-2.54 8.04,-3.41 2.1,-0.62 5.82,-0.94 10.12,-1.09zm39.22 123.24l1.5 -0.03 2.79 0 0 28.41 -4.29 -0.01 0 -28.37zm-34.56 31.29c0.82,4.04 5.66,2.82 9.72,2.82 5.21,0 36.62,-0.72 36.76,0.61 0.02,0.15 0.11,0.21 0.13,0.28 0.57,1.97 0.22,29.51 0.22,31.55l-66.91 -0.01 -13 0c0,-1.08 -0.6,-31.04 0.48,-32.04 1.73,-1.13 10.16,-0.39 12.91,-0.39 2.3,-0.01 4.59,-0.01 6.88,0.01 2.91,0.02 4.54,0.04 5.13,-2.83 -0.62,-3.91 -3.4,-2.84 -7.4,-2.93l0 -28.36 6.15 -0.03c0,5.75 1.03,9.02 4.14,12.34 2.5,2.68 6.03,5.18 11.45,5.26 5.37,0.07 9.17,-2.37 11.7,-5.02 3.16,-3.31 4.31,-6.64 4.32,-12.58l6.13 0 0.02 28.42 -23.7 -0.01c-3.33,-0.02 -4.63,-0.26 -5.13,2.91zm-25.11 -31.32l4.3 0 0 28.41 -4.31 0 0.01 -28.41zm-38.09 21.51c1.5,-0.35 2.34,-0.9 3.35,-1.18 1.23,-0.34 1.71,0.53 3.31,0.97 4.08,1.11 5.28,-0.37 8.16,-1.23l-5.68 16.84 -4.26 0.03 -6.52 0.01 -5.74 -16.82c3.16,0.86 3.16,1.82 7.38,1.38zm26.57 -21.42l5.8 -0.08 0 28.33c-9.48,0.79 -7.98,6.05 -7.98,14.94 0,7.75 0,15.51 0,23.26l-7.69 0.04c0,-2.77 0.43,-24.15 -0.39,-26.27 -0.22,-0.57 -0.42,-0.82 -0.69,-1.22 -0.64,-0.96 -0.26,-0.09 -0.77,-1.16 1.18,-3.41 2.4,-6.77 3.55,-10.21 2.18,-6.48 1.45,-5.78 3.93,-6.4 4.46,-1.13 7.7,-4.98 7.33,-10.07 -0.36,-5.04 -2.82,-4.62 -3.07,-7.27 -0.09,-0.95 0.02,-2.78 -0.02,-3.89zm-18.46 -14.55c16.97,5.4 11.24,20.02 13.11,22.37 0.99,1.26 2.94,1.32 2.72,4.39 -0.14,1.95 -1.72,3.51 -3.73,3.58 -2.81,0.08 -2.87,-1.75 -4.95,-2.54 -3.46,-0.06 -2.61,2.35 -5.74,2.53 -3.12,0.18 -2.9,-2.05 -5.17,-2.52 -2.65,-0.55 -2.86,2.03 -5.19,2.46 -2.4,0.44 -4.13,-1.22 -4.91,-2.38 -4.52,-0.4 -3.16,2.55 -6.86,2.44 -2.29,-0.06 -4.1,-2.08 -3.7,-4.55 0.47,-2.96 3.26,-2.25 3.29,-5.46 0.04,-2.91 -0.64,-4.2 0.11,-7.53 1.88,-8.38 10.49,-15.25 21.02,-12.79zm68.51 4.29l3.53 -0.4c0,3.67 0.41,12.22 -0.42,15.23 -1.01,3.63 -4.13,6.48 -8.32,7.09 -4.84,0.85 -9.21,-2.54 -10.61,-5.99 -1.38,-3.37 -0.81,-12.1 -0.81,-16.29 5.83,0.33 10.65,0.59 16.63,0.36zm38.93 -10.98c-1.38,2.43 -4.68,4.31 -8.41,5.08 -3.54,0.72 -8.75,0.36 -10.93,-1.75 1.98,-2.01 3.71,-3.88 5.78,-5.74l3.78 -6.07c1.04,-1.95 2.1,-4.58 2.65,-6.97 5.73,-0.3 5.97,-1.32 10.1,-3.09 1.09,3.3 2.21,6.31 1.43,10.45 -0.52,2.78 -2.5,7.5 -4.4,8.09zm-47.28 5.39c-7.97,0.05 -14,-1.63 -19.99,-6.06 -8.94,-6.63 -13.75,-18.76 -12.07,-30.28 5.31,-0.27 8.38,-1.26 13.02,-2.32l0.38 4.14c5.68,3.71 5.42,-1.39 5.42,-6.61 6.02,-3.5 10.32,-6.71 14.39,-12.15 1.21,-1.62 2.14,-3.43 3.5,-5.15 12.13,-0.27 24.15,6.04 31.16,11.42 0,15.04 1.67,24.23 -6.31,35.05 -7.71,10.48 -17.61,11.96 -29.5,11.96zm-37.76 -26.68c-4.35,-0.45 -7.35,-3.06 -8.69,-6.36 -1.9,-4.65 -0.25,-8.28 2.6,-11.44 2.54,0.32 2.78,0.82 5.89,0.62l0.2 17.18zm79.29 -17.19c3.16,0.23 3.24,-0.2 5.88,-0.63 2.61,2.58 4.54,6.41 2.73,11.17 -1.25,3.31 -4.31,6.39 -8.67,6.6l0.06 -17.14zm-64.22 0.01c-1.23,1.33 -7.28,1.68 -9.51,1.79l0 -4.66c1.05,-1.67 6.57,-4.92 8.75,-5.81 3.25,-2.72 15.47,-5.52 20.95,-5.86 -1.36,3.02 -5.8,7.26 -8.35,9.15 -2.08,1.54 -8.53,5.41 -11.84,5.39zm22.81 -43.48c4.15,-0.66 8.38,1.08 9.94,3.5 1.12,1.75 0.62,4.11 -0.38,5.48 -1.3,1.78 -3.09,1.06 -5.8,0.97 -6.01,-0.19 -9.89,1.66 -10.91,-3.11 -0.87,-4.09 3.56,-6.28 7.15,-6.84zm-24.98 14.48l-13.8 7.04c-0.33,-12.98 0.29,-18.32 6.9,-26.49 5.7,-7.04 14.27,-9.44 23.51,-9.41 7.22,-0.03 14.46,-0.03 21.68,-0.01 7,0.02 12.03,1.6 16.84,4.93 11.86,8.24 12.02,18.22 12.02,30.91 -3.01,-0.45 -7.75,-6.52 -10.72,-2.46 -1.24,3.82 2.27,4.26 7.7,7.61 1.66,1.03 3.23,2.24 4.66,3.35 1.43,1.11 3.31,1.69 3.07,4.5 -0.17,2.06 -2.02,3.75 -4.38,3.3 -1.26,-0.25 -3.56,-2.18 -4.64,-2.99 -2.9,-2.18 -6.04,-4.11 -9.81,-5.85 -15.95,-7.37 -35.25,-8.09 -51.48,-0.6 -11.54,5.32 -16.72,13.14 -19.66,7.58 -1.41,-2.67 0.37,-4.29 1.73,-5.28 1.54,-1.11 2.82,-2.17 4.39,-3.24 16.27,-11.08 37.14,-14.42 56.5,-9.4 3.23,0.84 3.22,-0.03 4.97,-1.75 -1.12,-4.82 -2.78,-3.15 -8.28,-4.91 -0.11,-0.04 -0.49,-0.19 -0.57,-0.22l-0.55 -0.27c6.78,-14.8 -16.13,-22.05 -25.21,-11.96 -3.8,4.23 -3.17,6.7 -1.59,12.32 -3.66,0.51 -11.31,3.3 -13.28,3.3z"/>
   <path fill="#D68954" d="M77.41 90.5c-0.25,-1.79 1.63,-5.53 5.95,-1.56 4.45,4.1 12.18,4.23 17.29,0.55 1.16,-0.83 1.85,-2.06 3.42,-2.27 1.68,-0.21 2.9,0.8 3.14,2.27 0.43,2.63 -3.48,4.9 -5.28,5.88 -2.63,1.44 -5.5,2.4 -9.05,2.5 -3.46,0.09 -6.81,-0.71 -9.49,-2.09 -1.76,-0.91 -5.74,-3.53 -5.98,-5.28zm14.95 -15.17c2.53,0 5.75,-0.51 6.74,1.34 1.35,2.51 -0.54,4.19 -2.76,4.38 -11.41,0.95 -9.73,-5.38 -9.71,-13.86 0,-2.57 0.38,-4.68 3.14,-4.47 3.72,0.28 2.59,6.86 2.59,12.61zm17 -12.41c4.96,-1.96 4.79,10.02 2.03,11.01 -3.42,1.23 -4.03,-1.62 -4.03,-4.42 -0.01,-3.15 -0.64,-5.55 2,-6.59zm-37.5 10.01l-0.39 0c-0.63,26.76 16.45,31.75 19.05,34.52 11.89,0 21.79,-1.48 29.5,-11.96 7.98,-10.82 6.31,-20.01 6.31,-35.05 -7.01,-5.38 -19.03,-11.69 -31.16,-11.42 -1.36,1.72 -2.29,3.53 -3.5,5.15 -4.07,5.44 -8.37,8.65 -14.39,12.15 0,5.22 0.26,10.32 -5.42,6.61z"/>
   <path fill="#FD989F" d="M117.85 171.82c3.78,-1.48 5.29,3.72 2.19,5.06 -1.47,0.63 -3.2,0.12 -3.76,-1.39 -0.86,-2.28 0.24,-3.15 1.57,-3.67zm-30.55 -8.09c23.97,-3.92 32.42,17.22 10.32,21.18 -23.87,4.29 -33.02,-17.46 -10.32,-21.18zm-21.54 -6.38c-0.95,2.59 -0.39,10.91 -0.39,14.16 2.82,0.14 3.51,1.31 3.03,4.24 -1.02,0.79 -1.43,1.31 -3.03,1.39l0 12.64 66.91 0.01c0,-2.04 0.35,-29.58 -0.22,-31.55 -0.02,-0.07 -0.11,-0.13 -0.13,-0.28 -0.14,-1.33 -31.55,-0.61 -36.76,-0.61 -4.06,0 -8.9,1.22 -9.72,-2.82l-7.68 0c-0.59,2.87 -2.22,2.85 -5.13,2.83 -2.29,-0.02 -4.58,-0.02 -6.88,-0.01z"/>
   <path fill="#FD989F" d="M65.66 34.59c1.97,0 9.62,-2.79 13.28,-3.3 -1.58,-5.62 -2.21,-8.09 1.59,-12.32 9.08,-10.09 31.99,-2.84 25.21,11.96l0.55 0.27c0.08,0.03 0.46,0.18 0.57,0.22 5.5,1.76 7.16,0.09 8.28,4.91l6.95 2.77c2.97,-4.06 7.71,2.01 10.72,2.46 0,-12.69 -0.16,-22.67 -12.02,-30.91 -4.81,-3.33 -9.84,-4.91 -16.84,-4.93 -7.22,-0.02 -14.46,-0.02 -21.68,0.01 -1.06,0.97 -2.43,1.41 -3.62,2.2 -2.88,1.91 -6.59,5.64 -8.56,8.62 -3.2,4.86 -5.09,10.72 -5.11,17.82 0.43,0.38 -0.51,0.69 0.68,0.22z"/>
   <path fill="#FDE802" d="M153.21 161.26l0 -7.49c-6.75,-1.26 -0.25,-13 -5.02,-21.97 -2.84,-5.34 -9.52,-9.84 -18.16,-8.43l0 28.13c9.64,1.29 7.98,5.82 7.98,15.37 0,7.62 0,15.23 0,22.91l12.1 -0.04c0,-5.33 0,-10.66 0,-15.99 0,-7.5 -1.2,-11.7 3.1,-12.49z"/>
   <path fill="#FDE802" d="M77.77 154.53l7.68 0c0.5,-3.17 1.8,-2.93 5.13,-2.91l23.7 0.01 -0.02 -28.42 -6.13 0c-0.01,5.94 -1.16,9.27 -4.32,12.58 -2.53,2.65 -6.33,5.09 -11.7,5.02 -5.42,-0.08 -8.95,-2.58 -11.45,-5.26 -3.11,-3.32 -4.14,-6.59 -4.14,-12.34l-6.15 0.03 0 28.36c4,0.09 6.78,-0.98 7.4,2.93z"/>
   <path fill="#FD646F" d="M122.09 39.1l-6.95 -2.77c-1.75,1.72 -1.74,2.59 -4.97,1.75 -19.36,-5.02 -40.23,-1.68 -56.5,9.4 -1.57,1.07 -2.85,2.13 -4.39,3.24 -1.36,0.99 -3.14,2.61 -1.73,5.28 2.94,5.56 8.12,-2.26 19.66,-7.58 16.23,-7.49 35.53,-6.77 51.48,0.6 3.77,1.74 6.91,3.67 9.81,5.85 1.08,0.81 3.38,2.74 4.64,2.99 2.36,0.45 4.21,-1.24 4.38,-3.3 0.24,-2.81 -1.64,-3.39 -3.07,-4.5 -1.43,-1.11 -3,-2.32 -4.66,-3.35 -5.43,-3.35 -8.94,-3.79 -7.7,-7.61z"/>
   <path fill="#FD989F" d="M16.5 136.64c0.78,1.16 2.51,2.82 4.91,2.38 2.33,-0.43 2.54,-3.01 5.19,-2.46 2.27,0.47 2.05,2.7 5.17,2.52 3.13,-0.18 2.28,-2.59 5.74,-2.53 2.08,0.79 2.14,2.62 4.95,2.54 2.01,-0.07 3.59,-1.63 3.73,-3.58 0.22,-3.07 -1.73,-3.13 -2.72,-4.39 -1.87,-2.35 3.86,-16.97 -13.11,-22.37 -1.61,1.37 -13.3,5.23 -13.36,19.55 -0.02,6.37 0.15,3.03 -2.72,7.55 0.12,0.02 0.7,0.06 0.81,0.1 1.46,0.5 0.57,0.05 1.41,0.69z"/>
   <path fill="#FDE802" d="M38.56 163.52c0.82,2.12 0.39,23.5 0.39,26.27l7.69 -0.04c0,-7.75 0,-15.51 0,-23.26 0,-8.89 -1.5,-14.15 7.98,-14.94l0 -28.33 -5.8 0.08c0.04,1.11 -0.07,2.94 0.02,3.89 0.25,2.65 2.71,2.23 3.07,7.27 0.37,5.09 -2.87,8.94 -7.33,10.07 -2.48,0.62 -1.75,-0.08 -3.93,6.4 -1.15,3.44 -2.37,6.8 -3.55,10.21 0.51,1.07 0.13,0.2 0.77,1.16 0.27,0.4 0.47,0.65 0.69,1.22z"/>
   <path fill="#C47944" d="M90.52 107.45c-2.6,-2.77 -19.68,-7.76 -19.05,-34.52l0.39 0 -0.38 -4.14c-4.64,1.06 -7.71,2.05 -13.02,2.32 -1.68,11.52 3.13,23.65 12.07,30.28 5.99,4.43 12.02,6.11 19.99,6.06z"/>
   <path fill="black" d="M79.99 174.51c-0.5,-6.83 24.16,-7.3 24.63,-0.34 0.47,6.95 -24.13,7.12 -24.63,0.34zm7.31 -10.78c-22.7,3.72 -13.55,25.47 10.32,21.18 22.1,-3.96 13.65,-25.1 -10.32,-21.18z"/>
   <path fill="#FD8087" d="M65.37 189.78l0 -12.64c-1.46,-0.45 -2.46,-1.03 -2.38,-3 0.07,-1.88 0.91,-2.16 2.38,-2.63 0,-3.25 -0.56,-11.57 0.39,-14.16 -2.75,0 -11.18,-0.74 -12.91,0.39 -1.08,1 -0.48,30.96 -0.48,32.04l13 0z"/>
   <path fill="#FD8087" d="M65.66 34.59c-1.19,0.47 -0.25,0.16 -0.68,-0.22 0.02,-7.1 1.91,-12.96 5.11,-17.82 1.97,-2.98 5.68,-6.71 8.56,-8.62 1.19,-0.79 2.56,-1.23 3.62,-2.2 -9.24,-0.03 -17.81,2.37 -23.51,9.41 -6.61,8.17 -7.23,13.51 -6.9,26.49l13.8 -7.04z"/>
   <path fill="#FD8087" d="M16.5 136.64c-0.84,-0.64 0.05,-0.19 -1.41,-0.69 -0.11,-0.04 -0.69,-0.08 -0.81,-0.1 2.87,-4.52 2.7,-1.18 2.72,-7.55 0.06,-14.32 11.75,-18.18 13.36,-19.55 -10.53,-2.46 -19.14,4.41 -21.02,12.79 -0.75,3.33 -0.07,4.62 -0.11,7.53 -0.03,3.21 -2.82,2.5 -3.29,5.46 -0.4,2.47 1.41,4.49 3.7,4.55 3.7,0.11 2.34,-2.84 6.86,-2.44z"/>
   <path fill="#E99A58" d="M98.87 113.04c-1.39,1.08 -2.66,0.77 -4.85,0.75 -1.54,-0.01 -3.1,0 -4.64,0 0,3.84 -0.28,8.88 0.08,12.58 0.48,5 2.52,5.82 4.2,8.59 4.19,-0.61 7.31,-3.46 8.32,-7.09 0.83,-3.01 0.42,-11.56 0.42,-15.23l-3.53 0.4z"/>
   <path fill="#A24E3D" d="M124.24 99.65c1.12,2.6 10.47,3.97 13.56,2.41 1.9,-0.59 3.88,-5.31 4.4,-8.09 0.78,-4.14 -0.34,-7.15 -1.43,-10.45 -4.13,1.77 -4.37,2.79 -10.1,3.09 -0.55,2.39 -1.61,5.02 -2.65,6.97l-3.78 6.07z"/>
   <path fill="#D68954" d="M24.28 189.78l8.35 -0.02 0 -23.27 -8.5 0c-0.6,3.02 -0.53,20.31 0.15,23.29z"/>
   <path fill="#F9FCFD" d="M79.99 174.51c0.5,6.78 25.1,6.61 24.63,-0.34 -0.47,-6.96 -25.13,-6.49 -24.63,0.34z"/>
   <path fill="black" d="M101.93 95.37c1.8,-0.98 5.71,-3.25 5.28,-5.88 -0.24,-1.47 -1.46,-2.48 -3.14,-2.27 -1.57,0.21 -2.26,1.44 -3.42,2.27 -5.11,3.68 -12.84,3.55 -17.29,-0.55 -4.32,-3.97 -6.2,-0.23 -5.95,1.56 0.24,1.75 4.22,4.37 5.98,5.28 2.68,1.38 6.03,2.18 9.49,2.09 3.55,-0.1 6.42,-1.06 9.05,-2.5z"/>
   <path fill="#A24E3D" d="M67.07 54.91l-0.21 8.48c0.18,0.04 0.01,0.19 0.97,0.2 3.31,0.02 9.76,-3.85 11.84,-5.39 2.55,-1.89 6.99,-6.13 8.35,-9.15 -5.48,0.34 -17.7,3.14 -20.95,5.86z"/>
   <path fill="#D68954" d="M93.66 134.96c-1.68,-2.77 -3.72,-3.59 -4.2,-8.59 -0.36,-3.7 -0.08,-8.74 -0.08,-12.58 1.54,0 3.1,-0.01 4.64,0 2.19,0.02 3.46,0.33 4.85,-0.75 -5.98,0.23 -10.8,-0.03 -16.63,-0.36 0,4.19 -0.57,12.92 0.81,16.29 1.4,3.45 5.77,6.84 10.61,5.99z"/>
   <path fill="#F9FCFD" d="M90.64 20.11c-3.59,0.56 -8.02,2.75 -7.15,6.84 1.02,4.77 4.9,2.92 10.91,3.11 2.71,0.09 4.5,0.81 5.8,-0.97 1,-1.37 1.5,-3.73 0.38,-5.48 -1.56,-2.42 -5.79,-4.16 -9.94,-3.5z"/>
   <path fill="#FEE4C1" d="M22.25 144.72c-0.1,2.65 4.05,11.89 4.88,15.43l4.26 -0.03 5.68 -16.84c-2.88,0.86 -4.08,2.34 -8.16,1.23 -1.6,-0.44 -2.08,-1.31 -3.31,-0.97 -1.01,0.28 -1.85,0.83 -3.35,1.18z"/>
   <path fill="#C47944" d="M24.28 189.78c-0.68,-2.98 -0.75,-20.27 -0.15,-23.29l8.5 0 0 23.27c0.9,-0.7 0.31,0.07 0.6,-1.14 0.03,-0.14 0.07,-1.29 0.07,-1.49l-0.17 -21.23c-3.29,-0.2 -11.19,-0.38 -13.76,0.42 -0.69,1.99 -0.77,19.66 -0.46,21.49 0.43,2.54 2.95,1.99 5.37,1.97z"/>
   <path fill="#E99A58" d="M52.76 80.77l-0.2 -17.18c-3.11,0.2 -3.35,-0.3 -5.89,-0.62 -2.85,3.16 -4.5,6.79 -2.6,11.44 1.34,3.3 4.34,5.91 8.69,6.36z"/>
   <path fill="#E99A58" d="M132.05 63.58l-0.06 17.14c4.36,-0.21 7.42,-3.29 8.67,-6.6 1.81,-4.76 -0.12,-8.59 -2.73,-11.17 -2.64,0.43 -2.72,0.86 -5.88,0.63z"/>
   <path fill="black" d="M92.36 75.33c0,-5.75 1.13,-12.33 -2.59,-12.61 -2.76,-0.21 -3.14,1.9 -3.14,4.47 -0.02,8.48 -1.7,14.81 9.71,13.86 2.22,-0.19 4.11,-1.87 2.76,-4.38 -0.99,-1.85 -4.21,-1.34 -6.74,-1.34z"/>
   <polygon fill="#01C0FA" points="60.33,151.62 64.64,151.62 64.64,123.21 60.34,123.21 "/>
   <polygon fill="#01C0FA" points="120.01,151.61 124.3,151.62 124.3,123.21 121.51,123.21 120.01,123.24 "/>
   <path fill="#FDD2A4" d="M27.13 160.15c-0.83,-3.54 -4.98,-12.78 -4.88,-15.43 -4.22,0.44 -4.22,-0.52 -7.38,-1.38l5.74 16.82 6.52 -0.01z"/>
   <path fill="#883F2E" d="M137.8 102.06c-3.09,1.56 -12.44,0.19 -13.56,-2.41 -2.07,1.86 -3.8,3.73 -5.78,5.74 2.18,2.11 7.39,2.47 10.93,1.75 3.73,-0.77 7.03,-2.65 8.41,-5.08z"/>
   <path fill="#883F2E" d="M67.83 63.59c-0.96,-0.01 -0.79,-0.16 -0.97,-0.2l0.21 -8.48c-2.18,0.89 -7.7,4.14 -8.75,5.81l0 4.66c2.23,-0.11 8.28,-0.46 9.51,-1.79z"/>
   <path fill="black" d="M109.36 62.92c-2.64,1.04 -2.01,3.44 -2,6.59 0,2.8 0.61,5.65 4.03,4.42 2.76,-0.99 2.93,-12.97 -2.03,-11.01z"/>
   <path fill="black" d="M117.85 171.82c-1.33,0.52 -2.43,1.39 -1.57,3.67 0.56,1.51 2.29,2.02 3.76,1.39 3.1,-1.34 1.59,-6.54 -2.19,-5.06z"/>
   <path fill="black" d="M65.37 177.14c1.6,-0.08 2.01,-0.6 3.03,-1.39 0.48,-2.93 -0.21,-4.1 -3.03,-4.24 -1.47,0.47 -2.31,0.75 -2.38,2.63 -0.08,1.97 0.92,2.55 2.38,3z"/>
  </g>
 </g>
</svg>
