<?xml version="1.0" encoding="UTF-8"?>
<!DOCTYPE svg PUBLIC "-//W3C//DTD SVG 1.1//EN" "http://www.w3.org/Graphics/SVG/1.1/DTD/svg11.dtd">
<!-- Creator: CorelDRAW -->
<svg xmlns="http://www.w3.org/2000/svg" xml:space="preserve" width="1093px" height="1602px" version="1.1" shape-rendering="geometricPrecision" text-rendering="geometricPrecision" image-rendering="optimizeQuality" fill-rule="evenodd" clip-rule="evenodd"
viewBox="0 0 520.01 762"
 xmlns:xlink="http://www.w3.org/1999/xlink"
 xmlns:xodm="http://www.corel.com/coreldraw/odm/2003">
 <g id="Слой_x0020_1">
  <metadata id="CorelCorpID_0Corel-Layer"/>
  <g id="_2216240301952">
   <path fill="#EFF7FC" stroke="#EFF7FC" stroke-width="0.95" stroke-miterlimit="22.9256" d="M277.72 583.15c-1.59,-7.21 -0.57,-27.12 -0.61,-35.68 -0.15,-30.21 9.83,-24.8 46.67,-24.96 31.08,-0.14 25.47,9.63 25.65,47.28 0.07,13.14 -0.41,21.53 -11.64,24.3 -6.92,1.71 -26.57,0.72 -34.86,0.76 -11.51,0.05 -22.58,0.21 -25.21,-11.7zm-28.24 2.98c-4.57,9.72 -13.71,8.75 -26.8,8.71 -7.95,-0.03 -28.27,0.92 -34.2,-1.33 -10.71,-4.07 -9.62,-14.76 -9.57,-26.7 0.04,-8.59 -1.38,-29.07 1.91,-35.94 4.78,-9.98 15.72,-8.38 26.99,-8.35 36.47,0.1 43.52,-4.35 43.39,27.93 -0.03,8.51 1.27,29.33 -1.72,35.68zm-98.22 0c-4.53,9.5 -13.72,8.76 -26.68,8.71 -38.52,-0.14 -44.01,3.89 -43.87,-28.04 0.17,-40.08 -3.75,-44.36 29,-44.28 8.12,0.02 27.35,-1.27 33.84,1.43 9.92,4.13 9.49,13.41 9.44,26.5 -0.03,8.31 1.18,29.59 -1.73,35.68zm75.09 -111.48c-0.99,-13.15 11.82,-12.35 23.08,-12.29l72.84 0.01c11.01,-0.02 26.5,-2.4 26.92,10.85 0.41,12.75 -12.98,11.47 -23.94,11.42l-72.85 0c-11.69,0.02 -25.13,2.15 -26.05,-9.99zm0.78 -43.93c-2.59,-17.88 6.32,-16.9 20.8,-16.82l71.37 0.02c11.53,-0.01 25.62,-2.36 29.04,6.57 5.62,14.69 -8.61,15.78 -20.11,15.72l-71.36 -0.03c-15.59,0.01 -18.75,2.57 -29.74,-5.46zm14.87 -43c-21.87,0 -20.36,-22.26 -1.48,-22.26l93.64 0c20.7,0 20.41,22.26 0,22.26l-92.16 0zm-109.57 -198.81c38.01,-8.84 69.23,11.85 84.18,33.14 8.22,11.7 14.25,28.18 14.35,45.98 0.1,15.9 3.51,10.22 8.29,22.11 6.2,15.43 0.84,33.52 -12.89,42.52 -8.39,5.5 -13.61,1.59 -17.4,12.33l-31.13 89.26c-6.78,18.97 -14.4,62.79 -36.73,47.71 -9.1,-6.14 -35.96,-92.98 -41.55,-108.63 -12.82,-35.93 -6.71,-31.93 -21.85,-37.67 -12.66,-4.79 -24.25,-21.9 -19.94,-40.63 2.3,-9.99 9.11,-14.07 9.89,-19.71 1.34,-9.69 -0.31,-16.47 2.55,-27.4 7.94,-30.32 30.96,-51.74 62.23,-59.01zm167.66 449.86c3.12,3.6 0.45,-4.11 2.86,3.96l25.26 0c2.33,-8.3 -0.38,-0.32 2.84,-4.03 7.05,-10.46 17.34,-7.27 32.84,-7.27 13.94,0 27.88,0 41.82,0l0 -336.76c-42.24,0 -27.57,-6.27 -64.63,30.82 -5.37,5.38 -17.01,20.15 -29.78,10.04 -9.35,-7.39 -6.32,-26.37 -6.32,-40.86 -44.58,0 -49.02,5.13 -49.02,-41.5 0,-28.58 1.66,-62.57 -0.28,-90.49l-230.93 0.04 -0.28 468.64 248.75 0.07c14.24,-0.02 20.45,-2.45 26.87,7.34z"/>
   <path fill="black" stroke="black" stroke-width="0.95" stroke-miterlimit="22.9256" d="M258.63 714.49l0.08 24.74 -51.98 -0.01 -35.32 0.01 0.09 -26.56c22.45,0 76.25,-2.5 86.02,1.24 0.29,0.11 0.78,0.33 1.11,0.58zm-218.81 -714.01l68.4 0 270.74 0c57.75,-0.05 48.85,38.73 48.85,86.21 10.92,0 70.92,-1.79 78.41,1.85 18.65,9.04 12.26,38.61 12.26,68.01 0,20.33 4.76,38.33 -12.61,41.62 -5.9,-3.82 -6.89,-1.28 -9.79,-8.43l-0.41 -79.84c-6.36,-1.72 -204.46,-2.19 -217.38,-0.3 -2.3,10.82 -0.73,123.53 -0.81,154.03 -0.02,8.77 0.01,6.8 1.82,8.83l18.48 -0.07c30.59,0.01 29.07,4.91 29.53,33.8 5.59,-2.71 19.86,-18.58 25.36,-24.11 13.06,-13.1 14.51,-9.69 40.95,-9.68 33.83,0 67.66,0 101.49,0 1.46,-42.08 -5.01,-35.82 10.75,-45.99 15.51,2.93 12.61,13.8 12.62,31.22 0,15.56 0.57,28.16 -8.85,34.26 -8.26,5.35 -67.47,2.9 -81.82,2.9l0 407.28c0,28.98 0.79,38.84 -16.52,51.86 -6.31,4.74 -13.79,6.79 -22.23,7.6l-37.06 0 -4.23 0 -4.23 0 -4.22 0 -4.23 0 -4.23 0 -4.23 0 -4.22 0 -4.23 0 -4.23 0 -4.22 0 -4.23 0 -4.23 0 -4.22 0 -4.23 0 -4.23 0 -4.23 0 -4.22 0 -4.23 0 -4.23 0 -4.22 0 -4.23 0 -4.23 0 -4.22 0 -4.23 0 -4.23 0 -4.23 0 -4.22 0 -4.23 0 -4.23 0 -4.22 0 -4.23 0 -4.23 0 -4.22 0 -4.23 0 -4.23 0 -4.23 0 -4.22 0 -4.23 0 -4.23 0 -4.22 0 -4.23 0 -4.23 0 -4.22 0 -4.23 0 -4.23 0 -4.23 0 -4.22 0 -4.23 0 -4.23 0 -4.22 0 -4.23 0 -4.23 0 -4.22 0 -4.23 0 -4.23 0 -4.23 0 -4.22 0 -4.23 0 -4.23 0 -4.22 0 -4.23 0 -4.23 0 -4.23 0 -4.22 0 -37.56 0c-25.46,-1.71 -42.76,-11.2 -42.71,-55l0 -407.28c0,-35.37 -2.6,-252.77 2.05,-268.48 4.76,-16.05 17.23,-29.23 36.57,-30.29zm291.23 638.22c-1.68,18.93 13.89,15.01 29.87,15 14.66,0 29.33,0 44,0 2.21,9.6 0.77,39.55 0.79,51.34 0.06,41.91 -7.63,34.2 -71.55,34.2 -16.42,0 -37.29,1.12 -53.17,-0.35 0,-54.75 3.11,-48.5 -65.74,-48.5 -11.58,0 -46.35,-1.61 -54.71,1.56 -15.51,5.89 -11.42,27.25 -11.42,46.56l-67.82 0.73c-27.29,-0.03 -52,5.33 -56.29,-14.74 -1.67,-7.82 -1.21,-60.54 -0.33,-70.3l269.34 -0.98c4.82,-5.25 6.87,-3.41 6.07,-14.45 -6.42,-9.79 -12.63,-7.36 -26.87,-7.34l-248.75 -0.07 0.28 -468.64 230.93 -0.04c1.94,27.92 0.28,61.91 0.28,90.49 0,46.63 4.44,41.5 49.02,41.5 0,14.49 -3.03,33.47 6.32,40.86 12.77,10.11 24.41,-4.66 29.78,-10.04 37.06,-37.09 22.39,-30.82 64.63,-30.82l0 336.76c-13.94,0 -27.88,0 -41.82,0 -15.5,0 -25.79,-3.19 -32.84,7.27zm-249.77 -615.94l291.53 0c40.69,-0.08 32.9,10.69 32.9,64.64 -72.41,0 -144.81,0 -217.22,0 -27.93,0 -58.41,-5.32 -56.84,12.83 4.37,12 11.33,9.49 25.62,9.46l98.66 -0.01 0 30.72 -180.41 0 -51.1 0 0 -30.72 51.1 0c14.31,0.01 21.22,2.58 25.62,-9.46 1.28,-14.65 -13.16,-12.8 -25.83,-12.83l-50.89 -0.01c0,-14.14 -2.91,-49.39 4.28,-57.94 8.95,-10.65 37.43,-6.66 52.58,-6.68z"/>
   <path fill="#FC8087" stroke="#FC8087" stroke-width="0.95" stroke-miterlimit="22.9256" d="M319.17 219.93c3.75,-1.55 80.53,-3.51 87.1,1.28 7.4,5.41 4.58,17.12 -2.92,19.3 -1.61,0.47 -80.69,3.45 -87.31,-1.93 -6.79,-5.53 -4.78,-15.38 3.13,-18.65zm7.56 -17.8c-19.21,0 -21.76,-22.29 1.48,-22.29l117.43 0c21.18,0 21.43,22.29 1.49,22.29l-120.4 0zm121.81 -61.27c17.21,0.79 15.46,18.16 5.63,21.42l-129.03 0.91c-17.74,-1.08 -16.68,-18.7 -3.91,-21.87l127.31 -0.46zm-150.76 131.53c30.59,0.01 29.07,4.91 29.53,33.8 5.59,-2.71 19.86,-18.58 25.36,-24.11 13.06,-13.1 14.51,-9.69 40.95,-9.68 33.83,0 67.66,0 101.49,0 1.46,-42.08 -5.01,-35.82 10.75,-45.99l0.01 -28.24c-5.9,-3.82 -6.89,-1.28 -9.79,-8.43l-1.88 -79.28 -197.23 0.05c0,27.24 0,54.48 0,81.72 0,18.64 -2.27,64.71 0.81,80.16z"/>
   <path fill="#ABBEDB" stroke="#ABBEDB" stroke-width="0.95" stroke-miterlimit="22.9256" d="M294.02 653.22l-218.71 2.76c0,14.87 0,29.74 0,44.6 -0.01,19.39 -1.78,23.1 5.99,38.66l67.82 -0.73c0,-19.31 -4.09,-40.67 11.42,-46.56 8.36,-3.17 43.13,-1.56 54.71,-1.56 68.85,0 65.74,-6.25 65.74,48.5 15.88,1.47 36.75,0.35 53.17,0.35 63.92,0 71.61,7.71 71.55,-34.2 -0.02,-11.79 1.42,-41.74 -0.79,-51.34 -14.67,0 -29.34,0 -44,0 -15.98,0.01 -31.55,3.93 -29.87,-15 -3.22,3.71 -0.51,-4.27 -2.84,4.03l-25.26 0c-2.41,-8.07 0.26,-0.36 -2.86,-3.96 0.8,11.04 -1.25,9.2 -6.07,14.45z"/>
   <path fill="#ABBEDB" stroke="#ABBEDB" stroke-width="0.95" stroke-miterlimit="22.9256" d="M154.3 64.28c-9.41,0 -15.83,-1.68 -15.3,-11.75 0.48,-9.16 7.16,-10.52 15.3,-10.52l121.89 0c20.76,0 20.74,22.27 0.37,22.27l-122.26 0zm-78.99 23.11c12.67,0.03 27.11,-1.82 25.83,12.83l-0.17 -1.67 30.85 0 -0.17 1.68c-1.57,-18.15 28.91,-12.83 56.84,-12.83 72.41,0 144.81,0 217.22,0 0,-53.95 7.79,-64.72 -32.9,-64.64l-291.53 0c-6.53,13.05 -6.02,12.69 -5.98,29.74 0.03,11.63 0.01,23.26 0.01,34.89z"/>
   <path fill="black" stroke="black" stroke-width="0.95" stroke-miterlimit="22.9256" d="M138.92 337.75c15.17,-6.66 7.94,-3.35 21.62,-0.12 13.61,3.21 18.31,-1.62 28.5,-4.39l-25.16 73.37 -14.03 40.3c-4.48,-7.5 -7.54,-18.89 -10.43,-27.24 -6.45,-18.64 -27.92,-75.45 -29.74,-86.26 12.73,2.19 10.21,6.68 29.24,4.34zm-3.63 -126.54c40.11,-10.24 75,21.61 73.48,59.63 -1.02,25.72 -1.93,12.92 7.72,24.22 6.43,7.52 1.79,19.55 -7.27,20.95 -13.7,2.1 -12.78,-11.56 -24.37,-8.54 -6.69,1.75 -12.36,14.84 -24.16,6.22 -9.71,-7.09 -8.63,-11.13 -21.16,-1.01 -12.83,10.35 -17.29,-2.12 -23.72,-4.77 -12.17,-5.02 -13.02,8.03 -23.92,8.13 -10.95,0.1 -16.92,-12.04 -9.73,-20.58 2.84,-3.37 6.88,-4.1 8.38,-9.81 2.28,-8.7 -5.47,-21.43 6.03,-44.12 7.29,-14.37 19.78,-25.49 38.72,-30.32zm-2.86 -22.3c-31.27,7.27 -54.29,28.69 -62.23,59.01 -2.86,10.93 -1.21,17.71 -2.55,27.4 -0.78,5.64 -7.59,9.72 -9.89,19.71 -4.31,18.73 7.28,35.84 19.94,40.63 15.14,5.74 9.03,1.74 21.85,37.67 5.59,15.65 32.45,102.49 41.55,108.63 22.33,15.08 29.95,-28.74 36.73,-47.71l31.13 -89.26c3.79,-10.74 9.01,-6.83 17.4,-12.33 13.73,-9 19.09,-27.09 12.89,-42.52 -4.78,-11.89 -8.19,-6.21 -8.29,-22.11 -0.1,-17.8 -6.13,-34.28 -14.35,-45.98 -14.95,-21.29 -46.17,-41.98 -84.18,-33.14z"/>
   <path fill="#9EE02D" stroke="#9EE02D" stroke-width="0.95" stroke-miterlimit="22.9256" d="M135.29 211.21c-18.94,4.83 -31.43,15.95 -38.72,30.32 -11.5,22.69 -3.75,35.42 -6.03,44.12 -1.5,5.71 -5.54,6.44 -8.38,9.81 -7.19,8.54 -1.22,20.68 9.73,20.58 10.9,-0.1 11.75,-13.15 23.92,-8.13 6.43,2.65 10.89,15.12 23.72,4.77 12.53,-10.12 11.45,-6.08 21.16,1.01 11.8,8.62 17.47,-4.47 24.16,-6.22 11.59,-3.02 10.67,10.64 24.37,8.54 9.06,-1.4 13.7,-13.43 7.27,-20.95 -9.65,-11.3 -8.74,1.5 -7.72,-24.22 1.52,-38.02 -33.37,-69.87 -73.48,-59.63z"/>
   <path fill="#01C0FA" stroke="#01C0FA" stroke-width="0.95" stroke-miterlimit="22.9256" d="M101.14 100.22c-4.4,12.04 -11.31,9.47 -25.62,9.46l0 30.72 180.41 0 0 -30.72 -98.66 0.01c-14.29,0.03 -21.25,2.54 -25.62,-9.46l0.17 -1.68 -30.85 0 0.17 1.67z"/>
   <path fill="#99AFD3" stroke="#99AFD3" stroke-width="0.95" stroke-miterlimit="22.9256" d="M81.3 739.24c-7.77,-15.56 -6,-19.27 -5.99,-38.66 0,-14.86 0,-29.73 0,-44.6l218.71 -2.76 -269.34 0.98c-0.88,9.76 -1.34,62.48 0.33,70.3 4.29,20.07 29,14.71 56.29,14.74z"/>
   <path fill="black" stroke="black" stroke-width="0.95" stroke-miterlimit="22.9256" d="M326.98 545.87l0.07 25.98 -27.61 0.7 0.38 -27.75c8.21,0 20.8,-1.74 27.16,1.07zm-49.26 37.28c2.63,11.91 13.7,11.75 25.21,11.7 8.29,-0.04 27.94,0.95 34.86,-0.76 11.23,-2.77 11.71,-11.16 11.64,-24.3 -0.18,-37.65 5.43,-47.42 -25.65,-47.28 -36.84,0.16 -46.82,-5.25 -46.67,24.96 0.04,8.56 -0.98,28.47 0.61,35.68z"/>
   <path fill="black" stroke="black" stroke-width="0.95" stroke-miterlimit="22.9256" d="M228.78 547.47l0.06 23.26c-4.7,3.54 -21.28,1.82 -27.61,1.82l0.41 -27.75 22.46 0.05c5.69,1.39 1.93,-2.81 4.68,2.62zm20.7 38.66c2.99,-6.35 1.69,-27.17 1.72,-35.68 0.13,-32.28 -6.92,-27.83 -43.39,-27.93 -11.27,-0.03 -22.21,-1.63 -26.99,8.35 -3.29,6.87 -1.87,27.35 -1.91,35.94 -0.05,11.94 -1.14,22.63 9.57,26.7 5.93,2.25 26.25,1.3 34.2,1.33 13.09,0.04 22.23,1.01 26.8,-8.71z"/>
   <path fill="black" stroke="black" stroke-width="0.95" stroke-miterlimit="22.9256" d="M130.58 545.87l0.06 25.98 -27.63 0.09 0.14 -26.56c7.42,-1.32 21.69,-2.22 27.43,0.49zm20.68 40.26c2.91,-6.09 1.7,-27.37 1.73,-35.68 0.05,-13.09 0.48,-22.37 -9.44,-26.5 -6.49,-2.7 -25.72,-1.41 -33.84,-1.43 -32.75,-0.08 -28.83,4.2 -29,44.28 -0.14,31.93 5.35,27.9 43.87,28.04 12.96,0.05 22.15,0.79 26.68,-8.71z"/>
   <path fill="black" stroke="black" stroke-width="0.95" stroke-miterlimit="22.9256" d="M154.3 64.28l122.26 0c20.37,0 20.39,-22.27 -0.37,-22.27l-121.89 0c-8.14,0 -14.82,1.36 -15.3,10.52 -0.53,10.07 5.89,11.75 15.3,11.75z"/>
   <path fill="#99AFD3" stroke="#99AFD3" stroke-width="0.95" stroke-miterlimit="22.9256" d="M75.31 87.39c0,-11.63 0.02,-23.26 -0.01,-34.89 -0.04,-17.05 -0.55,-16.69 5.98,-29.74 -15.15,0.02 -43.63,-3.97 -52.58,6.68 -7.19,8.55 -4.28,43.8 -4.28,57.94l50.89 0.01z"/>
   <path fill="black" stroke="black" stroke-width="0.95" stroke-miterlimit="22.9256" d="M326.73 202.13l120.4 0c19.94,0 19.69,-22.29 -1.49,-22.29l-117.43 0c-23.24,0 -20.69,22.29 -1.48,22.29z"/>
   <path fill="black" stroke="black" stroke-width="0.95" stroke-miterlimit="22.9256" d="M321.23 141.32c-12.77,3.17 -13.83,20.79 3.91,21.87l129.03 -0.91c9.83,-3.26 11.58,-20.63 -5.63,-21.42l-127.31 0.46z"/>
   <path fill="#FE636F" stroke="#FE636F" stroke-width="0.95" stroke-miterlimit="22.9256" d="M279.3 272.46l18.48 -0.07c-3.08,-15.45 -0.81,-61.52 -0.81,-80.16 0,-27.24 0,-54.48 0,-81.72l-18.04 0.05 0.37 161.9z"/>
   <path fill="black" stroke="black" stroke-width="0.95" stroke-miterlimit="22.9256" d="M227.13 430.72c10.99,8.03 14.15,5.47 29.74,5.46l71.36 0.03c11.5,0.06 25.73,-1.03 20.11,-15.72 -3.42,-8.93 -17.51,-6.58 -29.04,-6.57l-71.37 -0.02c-14.48,-0.08 -23.39,-1.06 -20.8,16.82z"/>
   <path fill="black" stroke="black" stroke-width="0.95" stroke-miterlimit="22.9256" d="M226.35 474.65c0.92,12.14 14.36,10.01 26.05,9.99l72.85 0c10.96,0.05 24.35,1.33 23.94,-11.42 -0.42,-13.25 -15.91,-10.87 -26.92,-10.85l-72.84 -0.01c-11.26,-0.06 -24.07,-0.86 -23.08,12.29z"/>
   <path fill="black" stroke="black" stroke-width="0.95" stroke-miterlimit="22.9256" d="M242 387.72l92.16 0c20.41,0 20.7,-22.26 0,-22.26l-93.64 0c-18.88,0 -20.39,22.26 1.48,22.26z"/>
   <path fill="#D88A55" d="M163.88 406.61l-4.65 -8.38c-1.07,-3.21 -1.86,-5.58 -3.03,-8.81 -3.85,-10.64 -16.45,-44.55 -17.28,-51.67 -19.03,2.34 -16.51,-2.15 -29.24,-4.34 1.82,10.81 23.29,67.62 29.74,86.26 2.89,8.35 5.95,19.74 10.43,27.24l14.03 -40.3z"/>
   <path fill="black" stroke="black" stroke-width="0.95" stroke-miterlimit="22.9256" d="M319.17 219.93c-7.91,3.27 -9.92,13.12 -3.13,18.65 6.62,5.38 85.7,2.4 87.31,1.93 7.5,-2.18 10.32,-13.89 2.92,-19.3 -6.57,-4.79 -83.35,-2.83 -87.1,-1.28z"/>
   <path fill="#E89958" d="M138.92 337.75c0.83,7.12 13.43,41.03 17.28,51.67 1.17,3.23 1.96,5.6 3.03,8.81l4.65 8.38 25.16 -73.37c-10.19,2.77 -14.89,7.6 -28.5,4.39 -13.68,-3.23 -6.45,-6.54 -21.62,0.12z"/>
   <polygon fill="#08A9F1" stroke="#08A9F1" stroke-width="0.95" stroke-miterlimit="22.9256" points="75.52,140.4 75.52,109.68 24.42,109.68 24.42,140.4 "/>
   <polygon fill="#01C0FA" stroke="#01C0FA" stroke-width="0.95" stroke-miterlimit="22.9256" points="206.73,739.22 258.71,739.23 258.63,714.49 206.73,715.24 "/>
   <path fill="#08A9F1" stroke="#08A9F1" stroke-width="0.95" stroke-miterlimit="22.9256" d="M206.73 739.22l0 -23.98 51.9 -0.75c-0.33,-0.25 -0.82,-0.47 -1.11,-0.58 -9.77,-3.74 -63.57,-1.24 -86.02,-1.24l-0.09 26.56 35.32 -0.01z"/>
   <path fill="#874448" d="M279.3 272.46l-0.37 -161.9 18.04 -0.05 197.23 -0.05 1.88 79.28 -0.41 -79.84c-6.36,-1.72 -204.46,-2.19 -217.38,-0.3 -2.3,10.82 -0.73,123.53 -0.81,154.03 -0.02,8.77 0.01,6.8 1.82,8.83z"/>
   <polygon fill="#FC8087" stroke="#FC8087" stroke-width="0.95" stroke-miterlimit="22.9256" points="130.64,571.85 130.58,545.87 114.55,546.18 114.56,571.06 "/>
   <polygon fill="#FC8087" stroke="#FC8087" stroke-width="0.95" stroke-miterlimit="22.9256" points="327.05,571.85 326.98,545.87 310.96,546.32 310.99,570.65 "/>
   <path fill="#08A9F1" stroke="#08A9F1" stroke-width="0.95" stroke-miterlimit="22.9256" d="M228.84 570.73l-16.05 -0.95 0 -22.31 15.99 0c-2.75,-5.43 1.01,-1.23 -4.68,-2.62l-22.46 -0.05 -0.41 27.75c6.33,0 22.91,1.72 27.61,-1.82z"/>
   <polygon fill="#01C0FA" stroke="#01C0FA" stroke-width="0.95" stroke-miterlimit="22.9256" points="228.84,570.73 228.78,547.47 212.79,547.47 212.79,569.78 "/>
   <path fill="#FE636F" stroke="#FE636F" stroke-width="0.95" stroke-miterlimit="22.9256" d="M327.05 571.85l-16.06 -1.2 -0.03 -24.33 16.02 -0.45c-6.36,-2.81 -18.95,-1.07 -27.16,-1.07l-0.38 27.75 27.61 -0.7z"/>
   <path fill="#FE636F" stroke="#FE636F" stroke-width="0.95" stroke-miterlimit="22.9256" d="M130.64 571.85l-16.08 -0.79 -0.01 -24.88 16.03 -0.31c-5.74,-2.71 -20.01,-1.81 -27.43,-0.49l-0.14 26.56 27.63 -0.09z"/>
  </g>
 </g>
</svg>
