<?xml version="1.0" encoding="UTF-8"?>
<!DOCTYPE svg PUBLIC "-//W3C//DTD SVG 1.1//EN" "http://www.w3.org/Graphics/SVG/1.1/DTD/svg11.dtd">
<!-- Creator: CorelDRAW -->
<svg xmlns="http://www.w3.org/2000/svg" xml:space="preserve" width="135.45mm" height="135.45mm" version="1.1" style="shape-rendering:geometricPrecision; text-rendering:geometricPrecision; image-rendering:optimizeQuality; fill-rule:evenodd; clip-rule:evenodd"
viewBox="0 0 1790.78 1790.78"
 xmlns:xlink="http://www.w3.org/1999/xlink"
 xmlns:xodm="http://www.corel.com/coreldraw/odm/2003">
 <defs>
  <style type="text/css">
   <![CDATA[
    .fil0 {fill:black}
    .fil6 {fill:#60B6FE}
    .fil2 {fill:#89C8FD}
    .fil10 {fill:#8F8133}
    .fil3 {fill:#E5E0E5}
    .fil1 {fill:#EEECEE}
    .fil5 {fill:#F08BC3}
    .fil4 {fill:#F5A6D1}
    .fil7 {fill:#FE9738}
    .fil9 {fill:#FEA85B}
    .fil8 {fill:#FEE45A}
   ]]>
  </style>
 </defs>
 <g id="Слой_x0020_1">
  <metadata id="CorelCorpID_0Corel-Layer"/>
  <g id="_1726372111936">
   <path class="fil0" d="M675.04 1671.86l521.15 0c6.83,29.3 29.57,49.63 38.47,66.46l-598.09 0c11.63,-17.37 36.39,-41.48 38.47,-66.46zm260.88 -1671.86l41.93 0c91.65,14.47 143.43,122.79 113.4,185.37l153.02 158.27c16.17,16.17 45.63,43.59 57.99,60.93 32.85,46.05 -21.21,110.72 -74.61,85.1l0 31.48c52.35,0 339.45,-3.49 365.94,1.31 49.59,8.99 85.24,38.65 101.87,80 16.85,41.9 11.36,113.41 11.36,170.51 0,242.5 0,485 0,727.51 47.5,3.95 77.72,98.4 28.27,147.19 -34.81,34.35 -136.19,24.2 -199.65,24.2 -2.24,26.93 -26.29,48.26 -38.47,66.46l241.35 -0.01c25.81,-0.11 49.02,-2.92 52.45,18.6l0 12.5c-2.29,16.38 -13.59,20.5 -29.08,21.38l-1737.12 0c-13.33,-0.99 -22.68,-5.09 -24.58,-19.66l0 -12.2c3.18,-25.78 27.57,-20.68 55.96,-20.61 106.08,0.27 212.2,0.01 318.29,0.01 -12.42,-18.54 -32.84,-42.25 -38.47,-66.46 -58.04,0 -216.59,7.47 -254.05,-8.27 -68.37,-28.74 -59.46,-148.74 2.22,-163.11 0,-59.46 0.01,-118.92 0,-178.38 -0.03,-107.83 25.26,-185.64 109.87,-246.89 32.06,-23.21 78.69,-42.81 127.97,-46.91 0,-65.29 0,-130.58 0,-195.87 0,-117.92 -30.51,-261.87 87.8,-303.93 26.1,-9.28 55.98,-7.34 90.58,-7.36 40.45,-0.03 62.44,-6.42 69.95,28.61 -16.96,26.59 -7.61,25.41 -62.96,25.25 -22.82,-0.07 -58.34,-2.36 -78.45,3.98 -57.87,18.27 -52.9,72.26 -52.9,112.09 65.45,13.68 224.99,-41.49 226.66,106.32 0.62,54.68 -0.17,109.72 -0.03,164.45 0.51,206.43 -222.22,71.59 -354.96,142.67 -95,50.87 -108.61,128.24 -108.61,222.3 41.64,7.05 71.87,31.32 88.61,54.7 26.05,36.41 29.4,58.79 29.4,112.61l111.28 -0.06c13.64,-23.23 47.9,-47.06 84.84,-58.3 101.48,-30.87 233.48,35.16 234,180.78l498.38 -0.34c0.2,-142.12 130.53,-214.06 238.55,-179.22 18.86,6.08 35.45,15.37 48.5,25.09 45.17,33.65 17.65,32.39 66.19,32.33l113.26 0.02 0 -721.44c0,-76.82 17.77,-164.26 -47.05,-191.89 -54.96,-23.42 -787.41,4.92 -950.75,-7.19 -6.26,-6.91 -4.34,-2.07 -10.6,-10.73 -3.94,-5.46 -4.08,-7.94 -6.91,-12.43 3.36,-17.57 8.53,-25.77 25.18,-28.89l146.2 -0.7 0 -31.48c-73.69,-6.13 -133.8,-117.91 -101.43,-185.37 -20.14,-13.48 -40.78,-49.14 -47.05,-78.86 -21.16,-100.29 66.81,-191.07 163.23,-173.27 31.96,5.9 19.01,-8.76 52.27,-30.62 13.16,-8.65 27.92,-13.8 44.75,-18.21 5.49,-1.44 10.9,-2.53 16.21,-3.33zm-476.85 1726.37c-22.13,-1.29 -47.21,-28.13 -56.73,-40.68 -66.85,-88.08 13.01,-194.34 59.8,-194.38 30.59,-28.07 98.2,-1.7 122.48,15.63 63.03,44.97 69,156.03 -3.39,207.54 -25.11,17.86 -94.27,39.95 -122.16,11.9zm863.63 -235.03c36.82,-34.25 173.34,2.59 172.44,117.56 -0.86,110.53 -115.53,149.32 -174.08,119.34 -44.27,-8.72 -83,-62.11 -83.17,-119.3 -0.09,-29.35 11.16,-58.88 25.37,-76.4 11.59,-14.28 37.02,-41 59.44,-41.2zm215.83 55.53c32.78,0 65.57,0.02 98.35,0 37.38,-0.02 67.26,-8.75 68.84,30.88 1.72,43.01 -21,39 -58.35,38.88 -24.33,-0.09 -79.4,3.15 -99.75,-2.06 -0.23,-28.14 -8.45,-47.76 -9.09,-67.7zm-1213.81 69.07l-206.04 0.75c-25.45,-1.36 -32.46,-12.53 -31.12,-39.21 2.08,-41.5 47.8,-30.6 108.3,-30.6 45.26,0 93.75,-1.66 138.6,0.38 -3.64,25.48 -9.55,37.03 -9.74,68.68zm-185.85 -234.95c39.29,8.89 65.53,46.04 65.53,95.01l0 18.42 -65.38 0 -0.15 -113.43zm236.93 -353.74l0.01 -280.56c21.63,-3.98 135.73,-3.77 150.68,3.49 35.24,17.11 23.47,90.6 23.47,134.73 0,39.45 11.06,119.19 -20.43,137.71 -15.91,9.36 -132.35,9.94 -153.72,4.64zm484.61 -534.08c59.87,0 79.84,-48.28 101.16,-48.92l176.05 30.52c41.84,8.06 37.57,-3.77 37.57,46.37l-314.79 0 0 -27.98zm168.53 -181.89l36.54 -74.05c10.34,5.18 8.36,4.56 16.51,13.48 4.71,5.15 6.87,7.69 11.59,12.8l120.14 124.69c12.14,10.18 41.47,37.71 44.79,53.61l-119.89 -20.7c-32.39,-6.68 -132.35,-18.46 -154.11,-29.86l44.43 -79.97zm-239.02 112.04c-16.08,-8.04 -30.26,-28.83 -35.43,-51.38 -8.59,-37.48 3.72,-42.53 9.8,-69.46 8.4,-37.17 -56.67,-36.96 -54.51,-110.12 1.37,-46.32 36.71,-83.17 80.66,-87.95 29.32,-3.19 53.55,14.28 69.94,7.66 12.3,-4.97 12.14,-12.21 19.84,-22.29 10.76,-14.09 14.19,-16.54 22.25,-18.29 21.2,-30.16 107.82,-28.61 134.45,35.29 23.89,57.32 -18.03,106.7 -39.5,149.22 -22.62,44.8 -47.49,89.83 -72.04,134.17 -37.04,66.89 -112.85,57.79 -135.46,33.15z"/>
   <path class="fil1" d="M1538.61 1494.4c0,-32.95 0,-65.9 0,-98.85 0,-16.32 -0.06,-32.65 0.01,-48.98 0.05,-13.3 2.77,-32.42 -3.79,-41.2 -18.3,7.55 -24.02,27.32 -76.25,28.61 -16.17,0.4 -36.84,0.83 -52.79,0.09 -20.47,-0.96 -25.06,-4.45 -31.62,-19.41l-6.6 -7.11 -70.13 0c-4.51,27.39 -17.23,26.66 -45.23,26.54l-349.82 -0.11c-83.06,0 -183.75,20.59 -213.81,-67.62 -12.75,-37.41 -0.48,-392.56 -5.17,-412.94 -2.7,-11.72 -43.98,-33.49 -46.83,-94.3 -3.43,-73.07 7.16,-65.43 73.44,-65.41l828.6 -0.03c0,-46.51 -2.2,-91.27 -30.18,-114.03 -33.95,5.05 -682.39,0.75 -801.91,0.94 -8.87,0.01 -19.6,0.71 -28.05,0.49 -5.12,-0.13 -9.33,-0.37 -14.17,-1.83 -10.76,-3.22 -3.2,2.72 -10.24,-5.36 -6.26,-6.91 -4.34,-2.07 -10.6,-10.73 -3.94,-5.46 -4.08,-7.94 -6.91,-12.43l-66.45 -0.98c-16.96,26.59 -7.61,25.41 -62.96,25.25 -22.82,-0.07 -58.34,-2.36 -78.45,3.98 -57.87,18.27 -52.9,72.26 -52.9,112.09 65.45,13.68 224.99,-41.49 226.66,106.32 0.62,54.68 -0.17,109.72 -0.03,164.45 0.51,206.43 -222.22,71.59 -354.96,142.67 -95,50.87 -108.61,128.24 -108.61,222.3 41.64,7.05 71.87,31.32 88.61,54.7 26.05,36.41 29.4,58.79 29.4,112.61l111.28 -0.06c13.64,-23.23 47.9,-47.06 84.84,-58.3 101.48,-30.87 233.48,35.16 234,180.78l498.38 -0.34c0.2,-142.12 130.53,-214.06 238.55,-179.22 18.86,6.08 35.45,15.37 48.5,25.09 45.17,33.65 17.65,32.39 66.19,32.33z"/>
   <path class="fil2" d="M1297.44 1307.56l70.13 0 6.6 7.11c-5.06,-58.59 70.63,-19.45 108.96,-37.95 36.65,-17.68 26.56,-71.95 26.56,-115.51 0,-90.88 5.45,-199.86 -0.53,-288.5 -76.68,-1.32 -70.98,-13.9 -110.12,-41.7 -8.07,4.77 -3.79,1.92 -10.64,8.31 -54.55,50.84 -125,41.66 -174.14,-9.22 -53.72,57.73 -126.89,57.66 -183.04,0.04 -23.2,21.68 -45.51,41.69 -90.31,42.43 -59.89,0.99 -79.11,-32.7 -94.49,-41.56 -40.75,29.63 -34,39.86 -110.07,41.75 -4.98,77.54 -0.5,170.71 -0.5,249.97 0,140.75 -18.29,158.87 89.58,158.81l377.74 -0c38.34,0 88.44,-11.4 94.26,26.01z"/>
   <path class="fil0" d="M1490.26 820.47c-38.75,-0.82 -68.33,-31.67 -64.38,-73.96l129.37 -0.13c6.82,40.8 -27.28,74.89 -64.99,74.1zm-249.32 -72.26c13.44,-7.57 123.1,-3.66 131.83,-1.41 1.26,11.15 3.07,10.2 -3.22,16.95 -0.42,68.22 -123.81,88.01 -128.61,-15.54zm-53.49 -1.47c12.28,96.01 -141.43,96.42 -129.37,-0.33l129.37 0.33zm-367.79 0.54c3.99,41.53 -25.66,72.4 -64.43,73.19 -37.69,0.77 -71.66,-33.36 -64.93,-74.16l129.37 0.96zm184.98 0.93c-5.18,105.15 -130.18,82.75 -129.43,13.62 -4.59,-7.51 -3.74,-2.95 -2.42,-14.95l129.43 0.02c0.47,-0.79 1.61,0.87 2.41,1.32zm292.8 559.35c-5.81,-37.41 -55.92,-26.01 -94.26,-26.01l-377.74 0c-107.87,0.06 -89.58,-18.06 -89.58,-158.81 0,-79.26 -4.48,-172.43 0.5,-249.97 76.06,-1.88 69.32,-12.11 110.07,-41.75 15.38,8.86 34.6,42.55 94.49,41.56 44.8,-0.74 67.11,-20.75 90.31,-42.43 56.15,57.62 129.31,57.7 183.04,-0.04 49.14,50.88 119.59,60.06 174.14,9.22 6.85,-6.39 2.57,-3.53 10.64,-8.31 39.14,27.8 33.44,40.38 110.12,41.7 5.98,88.64 0.53,197.62 0.53,288.5 0,43.56 10.09,97.83 -26.56,115.51 -38.33,18.49 -114.02,-20.64 -108.96,37.95 6.56,14.96 11.15,18.45 31.62,19.41 15.95,0.74 36.62,0.31 52.79,-0.09 52.24,-1.29 57.95,-21.06 76.25,-28.61 6.26,-13.25 15.49,-19.52 22.12,-38.96 12.59,-36.95 0.19,-391.56 5.2,-413 2.76,-11.8 42.07,-31.43 46.54,-90.82 5.41,-71.77 -4.69,-68.82 -70.09,-68.92l-828.6 0.03c-66.28,-0.02 -76.87,-7.66 -73.44,65.41 2.85,60.8 44.14,82.58 46.83,94.3 4.69,20.38 -7.57,375.54 5.17,412.94 30.06,88.21 130.75,67.62 213.81,67.62l349.82 0.11c28.01,0.12 40.72,0.86 45.23,-26.54z"/>
   <path class="fil3" d="M1538.61 693.68c65.4,0.1 75.5,-2.85 70.09,68.92 -4.48,59.4 -43.78,79.02 -46.54,90.82 -5.02,21.44 7.39,376.05 -5.2,413 -6.63,19.43 -15.86,25.71 -22.12,38.96 6.55,8.78 3.84,27.89 3.79,41.2 -0.06,16.32 -0.01,32.65 -0.01,48.98 0,32.95 0,65.9 0,98.85l113.26 0.02 0 -721.44c0,-76.82 17.77,-164.26 -47.05,-191.89 -54.96,-23.42 -787.41,4.92 -950.75,-7.19 7.03,8.08 -0.52,2.14 10.24,5.36 4.84,1.45 9.05,1.69 14.17,1.83 8.45,0.22 19.17,-0.48 28.05,-0.49 119.52,-0.19 767.96,4.11 801.91,-0.94 27.98,22.76 30.18,67.52 30.18,114.03z"/>
   <path class="fil2" d="M375.81 1027.24c21.37,5.3 137.81,4.72 153.72,-4.64 31.5,-18.52 20.43,-98.25 20.43,-137.71 0,-44.13 11.77,-117.62 -23.47,-134.73 -14.95,-7.26 -129.05,-7.46 -150.68,-3.49l-0.01 280.56z"/>
   <path class="fil4" d="M789.92 423.31c19.03,-6.16 41.7,-62.63 50.54,-79.69 18.89,-36.48 79.65,-140.29 87.38,-171.22 8.31,-33.23 0.94,-92.6 -25.37,-100.92 -8.06,1.75 -11.49,4.2 -22.25,18.29 -7.71,10.09 -7.55,17.33 -19.84,22.29 -16.4,6.62 -40.62,-10.85 -69.94,-7.66 -43.94,4.78 -79.29,41.63 -80.66,87.95 -2.16,73.16 62.91,72.95 54.51,110.12 -6.08,26.93 -18.39,31.98 -9.8,69.46 5.17,22.55 19.35,43.34 35.43,51.38z"/>
   <path class="fil5" d="M902.47 71.48c26.31,8.32 33.68,67.69 25.37,100.92 -7.73,30.92 -68.5,134.73 -87.38,171.22 -8.83,17.06 -31.51,73.54 -50.54,79.69 22.6,24.63 98.42,33.74 135.46,-33.15 24.55,-44.34 49.43,-89.37 72.04,-134.17 21.47,-42.52 63.39,-91.9 39.5,-149.22 -26.63,-63.9 -113.25,-65.45 -134.45,-35.29z"/>
   <path class="fil6" d="M1322.7 1491.34c14.43,6.08 26.4,21.52 35.2,37.03 -0.09,0.01 -0.06,0.24 -0.07,0.26l-4.23 5.6c120.83,-4.73 115.02,152.27 7.11,151.25 -6.63,16.42 -24.66,37.7 -39.64,42.77 58.55,29.98 173.22,-8.82 174.08,-119.34 0.9,-114.97 -135.63,-151.81 -172.44,-117.56z"/>
   <path class="fil6" d="M462.14 1491.31c14.14,6.64 32.08,25.17 37.22,42.03 109.2,-0.12 111.46,152.15 0.56,151.69 -4.4,11.67 -7.94,16.22 -16.65,25.87 -8.25,9.15 -11.08,16.13 -24.19,15.48 27.89,28.04 97.05,5.96 122.16,-11.9 72.39,-51.5 66.41,-162.57 3.39,-207.54 -24.28,-17.32 -91.89,-43.7 -122.48,-15.63z"/>
   <path class="fil7" d="M1028.94 311.27c14.57,-1.76 5.62,3.2 29.02,22.88l80.66 86.95 119.89 20.7c-3.33,-15.9 -32.65,-43.43 -44.79,-53.61l-120.14 -124.69c-4.72,-5.12 -6.88,-7.65 -11.59,-12.8 -8.15,-8.92 -6.17,-8.3 -16.51,-13.48l-36.54 74.05z"/>
   <path class="fil4" d="M324.73 1615.94c0.19,-31.65 6.11,-43.21 9.74,-68.68 -44.86,-2.04 -93.35,-0.38 -138.6,-0.38 -60.51,0 -106.22,-10.9 -108.3,30.6 -1.34,26.68 5.67,37.85 31.12,39.21l206.04 -0.75z"/>
   <path class="fil0" d="M1388.38 1597.11c5.76,45.27 -33.58,42.29 -42.73,23 -11.78,-24.83 11.6,-46.52 42.73,-23zm-27.67 88.36c107.91,1.02 113.72,-155.98 -7.11,-151.25 -37.22,10.15 -64.23,33.01 -63.13,78.14 0.96,39.48 32.25,68.66 70.24,73.11z"/>
   <path class="fil0" d="M492.44 1590.34c31.46,-19.58 50.37,26.13 25.16,39.77 -27.05,14.63 -49.45,-24.65 -25.16,-39.77zm7.48 94.69c110.9,0.45 108.64,-151.82 -0.56,-151.69 -95.02,15.93 -91.84,139.54 0.56,151.69z"/>
   <path class="fil2" d="M459.07 1726.37c13.11,0.65 15.94,-6.33 24.19,-15.48 8.7,-9.65 12.25,-14.2 16.65,-25.87 -92.4,-12.15 -95.58,-135.76 -0.56,-151.69 -5.13,-16.86 -23.07,-35.38 -37.22,-42.03 -46.79,0.05 -126.65,106.31 -59.8,194.38 9.53,12.55 34.6,39.39 56.73,40.68z"/>
   <path class="fil2" d="M1321.06 1728.25c14.98,-5.08 33.01,-26.35 39.64,-42.77 -37.98,-4.44 -69.27,-33.63 -70.24,-73.11 -1.1,-45.13 25.91,-67.99 63.13,-78.14l4.23 -5.6c0.01,-0.02 -0.02,-0.25 0.07,-0.26 -8.79,-15.51 -20.77,-30.94 -35.2,-37.03 -22.42,0.2 -47.85,26.92 -59.44,41.2 -14.22,17.52 -25.46,47.05 -25.37,76.4 0.17,57.19 38.9,110.59 83.17,119.3z"/>
   <path class="fil4" d="M1636.89 1546.87c-32.78,0.02 -65.57,0 -98.35,0 0.65,19.94 8.87,39.56 9.09,67.7 20.35,5.21 75.42,1.97 99.75,2.06 37.35,0.13 60.06,4.13 58.35,-38.88 -1.58,-39.63 -31.46,-30.9 -68.84,-30.88z"/>
   <path class="fil4" d="M1555.25 746.37l-129.37 0.13c-3.95,42.29 25.62,73.15 64.38,73.96 37.71,0.79 71.81,-33.3 64.99,-74.1z"/>
   <path class="fil4" d="M1187.45 746.74l-129.37 -0.33c-12.06,96.75 141.65,96.34 129.37,0.33z"/>
   <path class="fil4" d="M819.66 747.28l-129.37 -0.96c-6.73,40.8 27.25,74.92 64.93,74.16 38.78,-0.79 68.42,-31.66 64.43,-73.19z"/>
   <path class="fil8" d="M875.21 761.83c-0.75,69.13 124.25,91.53 129.43,-13.62l-129.08 -0 -0.34 13.62z"/>
   <path class="fil8" d="M1369.54 763.75l0.65 -15.54 -129.26 0c4.79,103.55 128.19,83.76 128.61,15.54z"/>
   <path class="fil9" d="M1138.63 421.1l-80.66 -86.95c-23.4,-19.68 -14.45,-24.64 -29.02,-22.88l-44.43 79.97c21.76,11.4 121.73,23.19 154.11,29.86z"/>
   <path class="fil8" d="M139.03 1494.42l65.38 0 0 -18.42c0,-48.97 -26.24,-86.12 -65.53,-95.01l0.15 113.43z"/>
   <path class="fil1" d="M492.44 1590.34c-24.29,15.12 -1.89,54.39 25.16,39.77 25.21,-13.63 6.31,-59.35 -25.16,-39.77z"/>
   <path class="fil1" d="M1388.38 1597.11c-31.14,-23.52 -54.51,-1.83 -42.73,23 9.15,19.29 48.49,22.27 42.73,-23z"/>
   <path class="fil10" d="M1369.54 763.75c6.28,-6.75 4.48,-5.8 3.22,-16.95 -8.73,-2.25 -118.38,-6.16 -131.83,1.41l129.26 0 -0.65 15.54z"/>
   <path class="fil10" d="M875.21 761.83l0.34 -13.62 129.08 0c-0.8,-0.45 -1.95,-2.11 -2.41,-1.32l-129.43 -0.02c-1.32,12 -2.17,7.45 2.42,14.95z"/>
  </g>
 </g>
</svg>
