<?xml version="1.0" encoding="UTF-8"?>
<!DOCTYPE svg PUBLIC "-//W3C//DTD SVG 1.1//EN" "http://www.w3.org/Graphics/SVG/1.1/DTD/svg11.dtd">
<!-- Creator: CorelDRAW -->
<svg xmlns="http://www.w3.org/2000/svg" xml:space="preserve" width="1600px" height="1512px" version="1.1" shape-rendering="geometricPrecision" text-rendering="geometricPrecision" image-rendering="optimizeQuality" fill-rule="evenodd" clip-rule="evenodd"
viewBox="0 0 469.65 443.98"
 xmlns:xlink="http://www.w3.org/1999/xlink"
 xmlns:xodm="http://www.corel.com/coreldraw/odm/2003">
 <g id="Слой_x0020_1">
  <metadata id="CorelCorpID_0Corel-Layer"/>
  <g id="_2216729936832">
   <path fill="black" d="M112.98 399.88l40.03 0.22c-3.61,3.52 -6.46,6.23 -10.36,9.5 -9.13,7.68 -3.65,8.99 -29.67,7.71l0 -17.43zm356.67 -53.97l0 6.52c-0.94,15.01 -7.76,32.6 -14.85,43.66 -8.42,13.11 -8.56,14.04 -17.36,12.1 -3.05,-7.33 -3.76,-6.54 1.4,-13.37 2.72,-3.6 5.81,-8.49 8.07,-13 3.88,-7.73 8.58,-21.79 8.6,-31.96l-173.08 -0.13c-1.12,15.02 9.45,34.97 15.61,43.87 7.69,11.12 18.23,20.25 32.33,27.3 14.37,7.19 31.05,10.59 49.41,8.39 33.26,-4 30.01,-17.88 44,-9.92 2.65,10.32 -4.67,11.35 -12.22,15.13 -33.73,16.89 -79.2,10.54 -106.82,-13.67 -7.27,-6.37 -11.28,-9.02 -17.83,-18.87l-10.81 -18.54 -50.45 0c0,18.24 2.46,28.62 -15.57,28.46 -14.81,-0.12 -32.13,4.07 -32.13,-11.95 -6.28,0.14 -8.15,4.52 -16.24,11.28 -1.63,1.36 -2.67,2.58 -4.16,4.1 -2.47,2.51 -15.9,14.92 -19.23,15.63 -1.89,0.4 -30.23,1.26 -33.97,-1.43 -7.53,-5.42 -5.28,-16.25 -5.28,-29.58 -16.84,0 -20.16,2.23 -22.62,-6.42 1.74,-9.69 9.49,-7.4 18.95,-7.4l82.45 -0.04 0.05 -23.82 -0.07 -12.49c-17.28,-0.25 -158.87,-1.05 -163.15,0.64 -1.13,1.03 -2.26,32.23 0.23,34.66 3.52,2.72 24.56,1.05 30.77,1.05 7.56,0.01 11.36,0.05 12.71,7.4 -1.96,6.9 -3.3,6.52 -12.51,6.44 -7.15,-0.06 -32.41,1.14 -37.08,-1.48 -3.56,-2 -7.84,-6.71 -8.6,-10.66 -0.08,-0.39 -0.14,-1.13 -0.2,-2.14l0 -35.06c0.03,-0.44 0.05,-0.79 0.08,-1.04 0.63,-5.56 3.65,-8.83 7.75,-11.51 4.98,-3.27 9.42,-2.34 16.94,-2.33 51.06,0.03 102.12,0 153.18,0 0,-5.89 2.83,-9.59 7.15,-11.2 2.72,-1.01 29.75,-1.62 33.92,0.4 4.49,2.17 5.44,5.67 6.63,10.8l63.29 0c0,-12.03 3.68,-23.32 7.63,-31.82 4.15,-8.9 8.55,-13.75 14.53,-20.33 22.13,-24.32 57.98,-31.41 90.16,-17.97 17.81,7.43 31.54,21.86 39.97,38.91 3.87,7.84 7.32,19.41 7.32,31.21 7.09,0 19.99,-1.61 21.1,10.18zm-277.88 -8.23l19.53 0 0.08 60.48 -19.72 0 0.11 -60.48zm33.45 12.29c2.38,-0.29 39.32,-1.14 42.79,0.57l3.23 18.55 -46.19 -0.49 0.17 -18.63zm77.64 -14.19c1.77,-34.77 29.84,-62.81 65.89,-62.98 36.16,-0.17 64.37,28.31 66.06,63.19l-48.63 0c-4.72,-2.22 -8.09,-9.59 -12.57,-11.63 -7.43,-3.37 -12.08,3.93 -7.88,11.63l-62.87 -0.21z"/>
   <path fill="#DAF4FC" d="M423.78 419.37c1.26,-1 2.02,-1.4 3.3,-2.39 1.67,-1.29 1.89,-1.72 3.41,-3 2.27,-1.92 4.94,-4.34 6.95,-5.79 -3.05,-7.33 -3.76,-6.54 1.4,-13.37 2.72,-3.6 5.81,-8.49 8.07,-13 3.88,-7.73 8.58,-21.79 8.6,-31.96l-173.08 -0.13c-1.12,15.02 9.45,34.97 15.61,43.87 7.69,11.12 18.23,20.25 32.33,27.3 14.37,7.19 31.05,10.59 49.41,8.39 33.26,-4 30.01,-17.88 44,-9.92z"/>
   <path fill="black" d="M214.38 269.68c2.38,-3.72 75.38,-76.83 82.79,-83.29 6.21,8.16 4.55,29.56 1.46,39.76 -10.85,35.83 -47.88,54.59 -80.26,45.31 -2.33,-0.67 -2.23,-0.56 -3.99,-1.78zm11.94 -84.2c8.94,4.06 11.84,-2.36 23.31,-13.82 6.77,-6.78 13.75,-13.31 20.06,-20.12 7.36,3.21 17.7,13.8 21.5,21.05l-91.22 90.77c-8,-5.11 -16.57,-12.7 -20.76,-21.03 5.51,-6.68 13.94,-14.2 20.42,-20.68 11.7,-11.7 18.37,-14.77 14.3,-23.77 -6.93,-2.88 -8.84,-1.4 -13.11,2.94 -5.75,5.86 -24.41,25.22 -28.44,27.98 -3.57,-20.78 -6.56,-35.12 7.07,-56.68 3.76,-5.94 5.61,-7.49 10.08,-11.95 17.18,-17.15 48.24,-24.19 66.97,-14.94 -6.2,5.54 -12.4,12.33 -18.52,18.45 -11.2,11.21 -15.59,12.48 -11.66,21.8zm-71.3 20.91c0,36.55 18.76,59.76 47.08,74 29.92,15.06 65.64,6.21 89.39,-15.51 7.02,-6.42 12.15,-15.44 16.42,-23.93 23.13,-45.95 -7.38,-113.45 -75.84,-113.45 -10.66,0 -23.52,3.93 -30.89,7.63 -26.91,13.52 -46.16,39.43 -46.16,71.26z"/>
   <path fill="black" d="M397.99 139.56c-6.57,-19.18 8.31,-27.67 23.25,-18.85 -2.61,5.75 -15.16,16.54 -23.25,18.85zm-87.06 -87.51c0.86,-6.55 10.45,-17.33 14.71,-20.3 8.19,10.57 -1.06,22.77 -14.71,20.3zm62.59 94.01c-24.71,0.74 -43.38,-10.83 -53.55,-22.99 -13.55,-16.21 -18.2,-31.81 -14.39,-58.05 23.71,3.03 16.92,-0.25 30.58,-7.31 0.83,-2.99 5.86,-7.11 6.18,-17.34 0.26,-8.04 -2.5,-12.26 -5.38,-17.26 11.79,-7.35 27.91,-10.14 44.5,-8.18 -0.12,11.85 2.23,19.53 10.7,24.02 13.87,7.34 23.11,-3.02 26.47,-4.25 6.89,10.23 13.06,16.07 16.37,33 3.76,19.25 -1.17,26.72 -5.4,41.86 -6.69,-3.1 -8.84,-6.46 -18.7,-6.59 -18.91,-0.24 -34.06,16.79 -26.1,41.04 -2.78,1.69 -7.62,1.77 -11.28,2.05zm-83.66 -66.26c0,19.42 6.78,37.18 18.98,51.66 19.81,23.5 48.12,32.93 78.79,26.85 5.15,-1.02 11.21,-3.19 15.07,-5.11 7.53,-3.73 18.11,-10.27 24.1,-16.26 47.01,-47 20.54,-136.94 -59.89,-136.94 -10.66,0 -23.52,3.93 -30.89,7.63 -10.54,5.3 -15.11,8.58 -23,16.45 -12.59,12.56 -23.16,31.09 -23.16,55.72z"/>
   <path fill="#FDE3C0" d="M350.65 122.92c-2.07,-10.07 12.5,-11.36 13.36,-2.61 0.89,9.17 -11.82,10.08 -13.36,2.61zm46.59 -38.53c-7.08,26.73 -48.39,16.12 -40.63,-11.25 7.31,-25.83 47.76,-15.72 40.63,11.25zm12.12 -18.35c-2.07,-10.06 12.5,-11.36 13.35,-2.6 0.9,9.17 -11.81,10.08 -13.35,2.6zm-53.2 -28.43c-2.08,-10.07 12.5,-11.36 13.35,-2.6 0.9,9.17 -11.82,10.07 -13.35,2.6zm-20 20.1c-1.06,6.23 -3.62,12.62 -2.59,19.25 1.79,3.95 3.01,5.94 0.05,10.84 0.65,22.66 16.92,44.29 35.77,55.55 2.41,1.44 2.05,0.77 4.13,2.71 3.66,-0.28 8.5,-0.36 11.28,-2.05 -7.96,-24.25 7.19,-41.28 26.1,-41.04 9.86,0.13 12.01,3.49 18.7,6.59 4.23,-15.14 9.16,-22.61 5.4,-41.86 -3.31,-16.93 -9.48,-22.77 -16.37,-33 -3.36,1.23 -12.6,11.59 -26.47,4.25 -8.47,-4.49 -10.82,-12.17 -10.7,-24.02 -16.59,-1.96 -32.71,0.83 -44.5,8.18 2.88,5 5.64,9.22 5.38,17.26 -0.32,10.23 -5.35,14.35 -6.18,17.34z"/>
   <path fill="#9FE12D" d="M321.97 312.46c3.35,-1.03 13.99,-1.15 16.9,0.84 3.82,2.61 3.58,10.15 -1.68,11.97 -3.82,1.31 -14.74,1.26 -17.64,-0.88 -4.63,-3.39 -3.18,-10.2 2.42,-11.93zm79.54 -12.03c6.05,-2 11.36,4.27 7.95,9.88 -0.74,1.23 -9.04,9.88 -10.8,10.53 -6.81,2.49 -11.68,-4.2 -8.27,-10.21 1.27,-2.26 8.27,-9.26 11.12,-10.2zm-44.62 -12.69c3.05,-0.93 14.19,-0.94 16.83,0.81 3.84,2.55 3.59,10.15 -1.68,11.95 -3.78,1.28 -14.67,1.19 -17.58,-0.94 -4.67,-3.43 -3.13,-10.13 2.43,-11.82zm-54.03 48.04l62.87 0.21c-4.2,-7.7 0.45,-15 7.88,-11.63 4.48,2.04 7.85,9.41 12.57,11.63l48.63 0c-1.69,-34.88 -29.9,-63.36 -66.06,-63.19 -36.05,0.17 -64.12,28.21 -65.89,62.98z"/>
   <path fill="#FE99A0" d="M226.32 185.48l-12.39 12.4c4.07,9 -2.6,12.07 -14.3,23.77 -6.48,6.48 -14.91,14 -20.42,20.68 4.19,8.33 12.76,15.92 20.76,21.03l91.22 -90.77c-3.8,-7.25 -14.14,-17.84 -21.5,-21.05 -6.31,6.81 -13.29,13.34 -20.06,20.12 -11.47,11.46 -14.37,17.88 -23.31,13.82z"/>
   <path fill="#FE99A0" d="M45.68 386.11c7.56,0.01 11.36,0.05 12.71,7.4l18.06 0c1.74,-9.69 9.49,-7.4 18.95,-7.4l82.45 -0.04 0.05 -23.82c-6.78,-1.48 -102.56,-0.5 -118.3,-0.56 -6.98,-0.03 -12.04,0.46 -13.95,5.9 -1.4,3.97 -1.14,14.53 0.03,18.52z"/>
   <path fill="#F6E203" d="M213.93 197.88l12.39 -12.4c-3.93,-9.32 0.46,-10.59 11.66,-21.8 6.12,-6.12 12.32,-12.91 18.52,-18.45 -18.73,-9.25 -49.79,-2.21 -66.97,14.94 -4.47,4.46 -6.32,6.01 -10.08,11.95 -13.63,21.56 -10.64,35.9 -7.07,56.68 4.03,-2.76 22.69,-22.12 28.44,-27.98 4.27,-4.34 6.18,-5.82 13.11,-2.94z"/>
   <path fill="#F6E203" d="M214.38 269.68c1.76,1.22 1.66,1.11 3.99,1.78 32.38,9.28 69.41,-9.48 80.26,-45.31 3.09,-10.2 4.75,-31.6 -1.46,-39.76 -7.41,6.46 -80.41,79.57 -82.79,83.29z"/>
   <path fill="#FD8087" d="M45.68 386.11c-1.17,-3.99 -1.43,-14.55 -0.03,-18.52 1.91,-5.44 6.97,-5.93 13.95,-5.9 15.74,0.06 111.52,-0.92 118.3,0.56l-0.07 -12.49c-17.28,-0.25 -158.87,-1.05 -163.15,0.64 -1.13,1.03 -2.26,32.23 0.23,34.66 3.52,2.72 24.56,1.05 30.77,1.05z"/>
   <path fill="#FCD2A4" d="M373.52 146.06c-2.08,-1.94 -1.72,-1.27 -4.13,-2.71 -18.85,-11.26 -35.12,-32.89 -35.77,-55.55 -13.5,6.74 -17.87,-15.03 -0.05,-10.84 -1.03,-6.63 1.53,-13.02 2.59,-19.25 -13.66,7.06 -6.87,10.34 -30.58,7.31 -3.81,26.24 0.84,41.84 14.39,58.05 10.17,12.16 28.84,23.73 53.55,22.99z"/>
   <path fill="black" d="M374.97 72.02c9.42,-2.95 12.51,11.06 4.3,13.82 -10.07,3.39 -12.85,-11.15 -4.3,-13.82zm22.27 12.37c7.13,-26.97 -33.32,-37.08 -40.63,-11.25 -7.76,27.37 33.55,37.98 40.63,11.25z"/>
   <polygon fill="#FE646F" points="191.66,398.16 211.38,398.16 211.3,337.68 191.77,337.68 "/>
   <path fill="#DAF4FC" d="M225.05 368.6l46.19 0.49 -3.23 -18.55c-3.47,-1.71 -40.41,-0.86 -42.79,-0.57l-0.17 18.63z"/>
   <path fill="#FE646F" d="M112.98 417.31c26.02,1.28 20.54,-0.03 29.67,-7.71 3.9,-3.27 6.75,-5.98 10.36,-9.5l-40.03 -0.22 0 17.43z"/>
   <path fill="#A24E3D" d="M397.99 139.56c8.09,-2.31 20.64,-13.1 23.25,-18.85 -14.94,-8.82 -29.82,-0.33 -23.25,18.85z"/>
   <path fill="black" d="M321.97 312.46c-5.6,1.73 -7.05,8.54 -2.42,11.93 2.9,2.14 13.82,2.19 17.64,0.88 5.26,-1.82 5.5,-9.36 1.68,-11.97 -2.91,-1.99 -13.55,-1.87 -16.9,-0.84z"/>
   <path fill="black" d="M356.89 287.74c-5.56,1.69 -7.1,8.39 -2.43,11.82 2.91,2.13 13.8,2.22 17.58,0.94 5.27,-1.8 5.52,-9.4 1.68,-11.95 -2.64,-1.75 -13.78,-1.74 -16.83,-0.81z"/>
   <path fill="black" d="M401.51 300.43c-2.85,0.94 -9.85,7.94 -11.12,10.2 -3.41,6.01 1.46,12.7 8.27,10.21 1.76,-0.65 10.06,-9.3 10.8,-10.53 3.41,-5.61 -1.9,-11.88 -7.95,-9.88z"/>
   <path fill="#A24E3D" d="M310.93 52.05c13.65,2.47 22.9,-9.73 14.71,-20.3 -4.26,2.97 -13.85,13.75 -14.71,20.3z"/>
   <path fill="#A24E3D" d="M374.97 72.02c-8.55,2.67 -5.77,17.21 4.3,13.82 8.21,-2.76 5.12,-16.77 -4.3,-13.82z"/>
   <path fill="black" d="M409.36 66.04c1.54,7.48 14.25,6.57 13.35,-2.6 -0.85,-8.76 -15.42,-7.46 -13.35,2.6z"/>
   <path fill="black" d="M350.65 122.92c1.54,7.47 14.25,6.56 13.36,-2.61 -0.86,-8.75 -15.43,-7.46 -13.36,2.61z"/>
   <path fill="black" d="M356.16 37.61c1.53,7.47 14.25,6.57 13.35,-2.6 -0.85,-8.76 -15.43,-7.47 -13.35,2.6z"/>
   <path fill="black" d="M333.62 87.8c2.96,-4.9 1.74,-6.89 -0.05,-10.84 -17.82,-4.19 -13.45,17.58 0.05,10.84z"/>
  </g>
 </g>
</svg>
