<?xml version="1.0" encoding="UTF-8"?>
<!DOCTYPE svg PUBLIC "-//W3C//DTD SVG 1.1//EN" "http://www.w3.org/Graphics/SVG/1.1/DTD/svg11.dtd">
<!-- Creator: CorelDRAW -->
<svg xmlns="http://www.w3.org/2000/svg" xml:space="preserve" width="1600px" height="1600px" version="1.1" shape-rendering="geometricPrecision" text-rendering="geometricPrecision" image-rendering="optimizeQuality" fill-rule="evenodd" clip-rule="evenodd"
viewBox="0 0 95.27 95.27"
 xmlns:xlink="http://www.w3.org/1999/xlink"
 xmlns:xodm="http://www.corel.com/coreldraw/odm/2003">
 <g id="Слой_x0020_1">
  <metadata id="CorelCorpID_0Corel-Layer"/>
  <g id="_1868349013616">
   <path fill="black" d="M52.51 28.94c-0.67,0 -5.31,2.15 -6.09,2.65l0 13.47c0,1.87 -0.17,1.57 0.86,2.57 0.97,0.96 4.72,4.92 5.24,5.18l0 -21.52 -0.01 -2.35zm-23.83 8.79c0.58,0.89 21.85,22.11 23.68,23.95 1.37,1.38 2.6,2.62 3.97,4 0.69,0.69 1.26,1.25 1.93,1.96 1.75,1.87 4.58,-0.36 2.19,-2.76l-13.76 -13.86c-1.76,-1.77 -15.15,-15.47 -15.83,-15.81 -1.73,-3.04 -5.84,0.07 -2.18,2.52zm14.95 -4.84c-0.62,0.12 -7.18,3.06 -7.58,3.43l7.6 7.56 -0.02 -10.99zm20.78 14.59c0.92,-2.22 1.95,-4.31 2.92,-6.57 0.56,-1.3 2.63,-5.53 2.74,-6.55 0.43,-0.55 0.17,-11.82 0.17,-13.42 -0.6,0.01 -5.33,2.19 -6.09,2.66l0.03 24.31c0.03,-0.16 -0.06,-0.05 0.23,-0.43zm8.84 -20.02l3.01 -6.84 1.38 -3.15 -4.63 2.17 0 8.24 0.24 -0.42zm-11.97 30.62c-0.42,-0.49 -0.58,-0.35 -1.16,-0.74 0.27,-1.14 1,-1.96 1.12,-3.04 0.31,-0.54 0.3,-26.69 0.11,-29.41 -0.7,0.15 -5.45,2.32 -6.07,2.75 0,6.36 0,12.73 0,19.09 0,10.31 -1,7.95 2.62,11.6 0.77,0.78 1.5,1.58 2.28,2.28 2.12,2.02 5.17,4.33 3.64,7.84 -1.16,2.66 -4.38,3.27 -6.23,2.28 -0.68,-0.37 -1.17,-1.12 -1.84,-1.3 -0.28,1.19 -1.3,2.3 -1.85,3.35 2.75,0 5.87,-0.51 7.12,3.05 0.35,1 0.29,2.07 -0.1,2.9l9.23 0 0 2.98 -67.96 0 0 -2.98 9.23 0c-0.83,-1.75 -0.12,-3.55 1.24,-4.89 1.42,-1.38 3.16,-1.06 5.78,-1.06 -1.58,-3.02 -2.37,-3.16 -3.72,-7.98 -0.85,-3.05 -0.9,-7.32 -0.09,-10.56 1.2,-4.79 3.21,-7.97 6.44,-11.19 0.61,-0.61 2.62,-2.26 3.47,-2.46 0.13,0.52 0.24,0.56 0.53,0.93l0.72 1.27c-0.92,1.19 -2.8,1.46 -5.69,5.8 -3.57,5.33 -4.22,12.26 -1.71,18.28 2.05,4.91 4.26,5.09 3.55,7.38 -0.9,1.8 -2.26,1.32 -4.45,1.36 -1.53,-0.01 -3.61,-0.3 -3.54,1.63 0.06,1.74 1.81,1.54 3.39,1.53 2.71,0.02 39.22,0.22 40.15,-0.14 0.95,-0.38 1.26,-1.99 0.31,-2.71 -1.41,-1.06 -5.54,0.57 -6.96,-0.99 -2.12,-2.3 1.68,-3.83 2.98,-7.79l-24.78 -24.93c-0.46,-0.58 -1.24,-1.47 -1.92,-1.81 -1,-1.51 -1.94,-1.33 -2.56,-3.56 -0.99,-3.58 2.42,-6.62 5.85,-5.52 1.71,0.54 2.25,1.88 3.54,2.76 3.63,-1.94 13.86,-6.2 18.35,-8.31 5.85,-2.76 12.68,-5.57 18.53,-8.31 0.81,-0.39 11.36,-5.27 12.43,-5.52l-14.1 31.75c-0.6,1.26 -6.35,14.16 -6.4,14.76 -0.97,-0.02 -0.7,-0.19 -1.48,-0.37z"/>
   <path fill="#FF99CC" stroke="#FF99CC" stroke-width="0.12" stroke-miterlimit="22.9256" d="M38.94 66.97l2 -1.96 -2.02 -2.04 -1.99 1.95 2.01 2.05zm-4.25 -4.25l2.1 -1.99 -2.05 -1.97 -1.97 1.87 1.92 2.09zm-2.18 -6.13c-0.45,-0.63 -1.43,-1.69 -2.11,-2.03l-1.8 1.79c0.33,0.74 1.36,1.71 2.03,2.15 0.7,-0.36 1.54,-1.2 1.88,-1.91zm-15.17 22.18c-0.43,-1.23 -0.64,-2 0.15,-3.16 2.19,-0.04 3.55,0.44 4.45,-1.36 1.26,-0.12 2.24,0.16 3.13,-0.34 0.12,-1.19 -0.83,-1.69 -2.02,-3.55 -4.26,-6.7 -4.12,-15.53 0.2,-22.32 1.09,-1.71 3.97,-5.13 5.79,-5.83l24.78 24.93c-1.3,3.96 -5.1,5.49 -2.98,7.79 1.42,1.56 5.55,-0.07 6.96,0.99 0.95,0.72 0.64,2.33 -0.31,2.71 -0.93,0.36 -37.44,0.16 -40.15,0.14z"/>
   <path fill="#FEE85D" d="M61.24 54.3c-0.12,1.08 -0.85,1.9 -1.12,3.04 0.58,0.39 0.74,0.25 1.16,0.74 -0.25,0.51 -0.42,0.73 -0.55,1.38 -1.12,-0.74 -3.29,-3.24 -4.43,-4.36 -0.52,-0.5 -0.74,-0.5 -0.81,-1.3l0.01 -23.89 5.68 -2.57 0.06 26.96z"/>
   <path fill="#FEE85D" d="M28.68 37.73c-0.31,-1.31 1.15,-2.16 2.18,-2.52 0.68,0.34 14.07,14.04 15.83,15.81l13.76 13.86c2.39,2.4 -0.44,4.63 -2.19,2.76 -0.67,-0.71 -1.24,-1.27 -1.93,-1.96 -1.37,-1.38 -2.6,-2.62 -3.97,-4 -1.83,-1.84 -23.1,-23.06 -23.68,-23.95z"/>
   <path fill="#FC7998" stroke="#FC7998" stroke-width="0.12" stroke-miterlimit="22.9256" d="M29.04 42.21c-1.82,0.7 -4.7,4.12 -5.79,5.83 -4.32,6.79 -4.46,15.62 -0.2,22.32 1.19,1.86 2.14,2.36 2.02,3.55 -0.89,0.5 -1.87,0.22 -3.13,0.34 0.71,-2.29 -1.5,-2.47 -3.55,-7.38 -2.51,-6.02 -1.86,-12.95 1.71,-18.28 2.89,-4.34 4.77,-4.61 5.69,-5.8l-0.72 -1.27c0.52,-0.12 0.6,-0.17 1.06,-0.44l0.99 -0.68c0.68,0.34 1.46,1.23 1.92,1.81z"/>
   <path fill="#FEE85D" d="M70.07 34.36c-0.11,1.02 -2.18,5.25 -2.74,6.55 -0.97,2.26 -2,4.35 -2.92,6.57l0 -21.58 5.62 -2.56 0.04 11.02z"/>
   <path fill="#FEE85D" d="M52.31 51.05c-0.74,-0.66 -5.45,-5.28 -5.61,-5.74 -0.17,-0.52 -0.14,-10.48 0,-11.39l5.57 -2.56 0.04 19.69z"/>
   <path fill="black" d="M80.87 48.89c-2.05,-0.53 -2.63,2.51 -0.86,3 2.16,0.59 2.81,-2.5 0.86,-3zm4.05 1.38c0,2.49 -2.14,4.46 -3.69,4.46 -1.59,0 -2.82,-0.03 -4.01,-1.35 -3.7,-4.09 2.17,-10.11 6.28,-6.15 0.65,0.64 1.42,1.85 1.42,3.04z"/>
   <path fill="black" d="M21.78 19.12c-2.05,-0.53 -2.64,2.51 -0.87,3 2.16,0.59 2.82,-2.5 0.87,-3zm4.05 1.37c0,1.12 -0.54,2.37 -1.07,3.02 -1.59,1.92 -4.94,1.99 -6.64,0.1 -3.69,-4.09 2.18,-10.11 6.28,-6.15 0.66,0.63 1.43,1.85 1.43,3.03z"/>
   <path fill="black" d="M6.62 34.45l0 2.6 2.96 0 0 2.8 -2.96 0 0 3.16 -2.95 0 0 -3.16 -2.96 0 0 -2.8 2.96 0c0,-3.75 -0.54,-3.16 2.4,-3.16 0.42,0 0.55,0.13 0.55,0.56z"/>
   <path fill="black" d="M92.31 65.71l0 2.6 2.96 0 0 2.79 -2.96 0 0 3.17 -2.95 0 0 -3.17 -2.96 0 0 -2.79 2.96 0c0,-3.75 -0.54,-3.16 2.4,-3.16 0.42,0 0.55,0.13 0.55,0.56z"/>
   <path fill="#FDC076" d="M61.24 54.3l-0.06 -26.96 -5.68 2.57 -0.01 23.89c0.07,0.8 0.29,0.8 0.81,1.3 1.14,1.12 3.31,3.62 4.43,4.36 -0.23,0.33 -0.43,0.71 -0.55,1.15 -0.78,-0.7 -1.51,-1.5 -2.28,-2.28 -3.62,-3.65 -2.62,-1.29 -2.62,-11.6 0,-6.36 0,-12.73 0,-19.09 0.62,-0.43 5.37,-2.6 6.07,-2.75 0.19,2.72 0.2,28.87 -0.11,29.41z"/>
   <path fill="#FDC076" d="M52.27 31.36l-5.57 2.56c-0.14,0.91 -0.17,10.87 0,11.39 0.16,0.46 4.87,5.08 5.61,5.74l-0.04 -19.69zm0.25 -0.07l0 21.52c-0.52,-0.26 -4.27,-4.22 -5.24,-5.18 -1.03,-1 -0.86,-0.7 -0.86,-2.57l0 -13.47c0.78,-0.5 5.42,-2.65 6.09,-2.65l0.01 2.35z"/>
   <path fill="#FDC076" d="M43.45 35.34l-4.55 2c0.41,0.91 3.9,4.2 4.55,4.78l0 -6.78zm0.2 8.54l-7.6 -7.56c0.4,-0.37 6.96,-3.31 7.58,-3.43l0.02 10.99z"/>
   <path fill="#FDC076" d="M70.07 34.36l-0.04 -11.02 -5.62 2.56 0 21.58c-0.29,0.38 -0.2,0.27 -0.23,0.43l-0.03 -24.31c0.76,-0.47 5.49,-2.65 6.09,-2.66 0,1.6 0.26,12.87 -0.17,13.42z"/>
   <path fill="#FEE85D" d="M43.45 42.12c-0.65,-0.58 -4.14,-3.87 -4.55,-4.78l4.55 -2 0 6.78z"/>
   <polygon fill="#FDC076" points="76.26,20.62 73.23,21.92 73.25,27.46 73.01,27.88 73.01,19.64 77.64,17.47 "/>
   <path fill="#FC7998" stroke="#FC7998" stroke-width="0.12" stroke-miterlimit="22.9256" d="M17.34 78.77c-1.58,0.01 -3.33,0.21 -3.39,-1.53 -0.07,-1.93 2.01,-1.64 3.54,-1.63 -0.79,1.16 -0.58,1.93 -0.15,3.16z"/>
   <path fill="#FEFFFD" d="M32.51 56.59c-0.34,0.71 -1.18,1.55 -1.88,1.91 -0.67,-0.44 -1.7,-1.41 -2.03,-2.15l1.8 -1.79c0.68,0.34 1.66,1.4 2.11,2.03z"/>
   <polygon fill="#FEE85D" points="73.25,27.46 73.23,21.92 76.26,20.62 "/>
   <polygon fill="#FEFFFD" points="36.93,64.92 38.92,62.97 40.94,65.01 38.94,66.97 "/>
   <polygon fill="#FEFFFD" points="32.77,60.63 34.74,58.76 36.79,60.73 34.69,62.72 "/>
   <path fill="#FEE85D" d="M21.78 19.12c1.95,0.5 1.29,3.59 -0.87,3 -1.77,-0.49 -1.18,-3.53 0.87,-3z"/>
   <path fill="#FEE85D" d="M80.87 48.89c1.95,0.5 1.3,3.59 -0.86,3 -1.77,-0.49 -1.19,-3.53 0.86,-3z"/>
   <path fill="#FDC076" d="M30.86 35.21c-1.03,0.36 -2.49,1.21 -2.18,2.52 -3.66,-2.45 0.45,-5.56 2.18,-2.52z"/>
   <rect fill="none" width="94.55" height="95.27"/>
  </g>
 </g>
</svg>
