<svg xmlns="http://www.w3.org/2000/svg" xml:space="preserve" width="979px" height="1709px" version="1.1" shape-rendering="geometricPrecision" text-rendering="geometricPrecision" image-rendering="optimizeQuality" fill-rule="evenodd" clip-rule="evenodd"
viewBox="0 0 658.47 1149.86"
 xmlns:xlink="http://www.w3.org/1999/xlink"
 xmlns:xodm="http://www.corel.com/coreldraw/odm/2003">
 <g id="Слой_x0020_1">
  <metadata id="CorelCorpID_0Corel-Layer"/>
  <g id="_2216910100240">
   <path fill="black" stroke="black" stroke-width="1.35" stroke-miterlimit="22.9256" d="M295.55 1084.14l33.56 -34.32 35.09 33.88c-5.12,13.55 -18.24,31.54 -34.54,31.59 -19.39,0.06 -26.75,-17.6 -34.11,-31.15zm-17.3 -1083.47l30.27 0c35.21,3.69 68.3,20.27 98.63,48.16 7.21,6.63 23.18,27.58 25.72,37.08 55.85,0 86.09,11.98 122.64,32.14 24.86,13.72 42.99,34.12 60.82,55.83 17.37,21.16 30.43,51.63 36.87,79.78 5.15,22.51 5.12,43.22 3.96,67.75 -1.89,39.64 -23.92,86.18 -43.1,109.45 -30.5,37 -29.01,20.31 -28.69,49.82 0.28,25.39 0.04,50.9 0.04,76.31 0,27.75 3.66,50.58 -9.56,66.71 -26.29,32.1 -36.02,3.31 -44.67,31.59l-53.45 177.61c-2.57,9.37 -5.74,20.66 -8.59,29.54 -3.83,11.93 -7.6,15.32 -22.66,15.32 -5.77,-5.9 -12.28,-7.65 -11.42,-19.89 0.44,-6.27 5.85,-18.36 5.1,-22.17 -1.1,-5.66 -22.38,-23.19 -27.12,-29.89 -7.55,3.99 -54.86,51.31 -58.97,58.99 15.23,10.86 45.1,48.98 58.06,54.91 12.09,-13.7 5.33,-24.01 29.71,-22.71 9.76,4.41 12.24,14.17 8.89,25.35l-27.64 91.44c-13.23,44.58 -28.64,128.19 -84.43,135.4l-16.19 0c-1.15,-0.14 -2.32,-0.3 -3.49,-0.5 -49.89,-8.27 -66.83,-78.85 -78.55,-121.11 -23.78,-85.77 -56.46,-185.72 -82.67,-274l-27.98 -93.15c-7.19,-23.55 -7.02,-16.82 -18.9,-19.23 -43.91,-8.93 -37.03,-54.74 -37.05,-84.34 -0.01,-16.61 1.89,-19.44 15.83,-23.36 32.18,8.13 10.01,39.86 19,65.09 4.51,12.69 19.31,10.78 32.59,10.7 14.4,-0.08 28.8,0.05 43.2,-0.08 80.89,1.37 162.92,0.1 243.93,0.1 136.47,0 123.76,16.08 123.76,-61.3 0,-17.72 1.63,-45.57 -0.81,-62.05 -39.53,19.2 -76.76,33.08 -130.48,27.09 -23.02,-2.56 -44.44,-8.8 -63.74,-17.2 -10.01,-4.36 -18.36,-9.25 -26.26,-14.09 -10.67,-6.54 -16.01,-13.17 -26.94,-18.26 0,35.59 10.49,108.08 -52.7,109.99 -25.1,0.75 -42.84,-14.14 -50.7,-30.96 -9.12,-19.53 -5.53,-55.19 -5.53,-78.37l-13.95 0.29c-32.36,0.89 -47.49,-8.4 -73.44,-14.82 -0.69,12.71 0.2,25.36 -0.26,37.89 -0.59,15.98 -5.07,17.81 -17.67,21.5 -17.83,-4.65 -15.87,-9.61 -15.72,-32.77 0.11,-15.7 0.02,-31.43 0.02,-47.13 -45.14,-30.22 -85.6,-100.5 -69.81,-177.47 7.85,-38.22 22.06,-59.84 42.55,-85.32 8.46,-10.52 23.29,-21.95 35.3,-29.75 13.56,-8.8 25.21,-15.28 42.11,-20.7 13.86,-4.44 15.21,-0.24 20.49,-13.16 15.15,-37.06 20.9,-41.01 46.55,-65.61 10.36,-9.92 7.47,-5.94 18.3,-13.11 4.42,-2.93 4.83,-3.7 9.68,-6.02 20.19,-9.65 39.93,-15.34 59.12,-17.31zm98.81 1047.15l-22.68 -21.81c5.12,-8.8 32.85,-35.59 41.61,-42.03l-18.93 63.84zm-113.95 -63.76c8.92,6.2 36.86,33.27 41.69,41.75l-21.88 22.13 -19.81 -63.88zm52.44 -80.81l13.92 -15.82 57.19 56.98c-8.95,8.7 -15.18,15.06 -23.28,23.13 -7.24,7.22 -14.74,17.39 -22.85,21 -3.46,6.18 -5.51,7.83 -10.85,12.06l-56.32 -55.55c5,-8.64 34.33,-37.31 42.19,-41.8zm-69.23 -97.45c7.34,3.87 55.37,51.78 59.23,59.28 -16.41,10.68 -44.34,48.19 -58.21,54.58 -9.79,-10.34 -17.54,-46.28 -22.6,-62.59 -11.79,-37.94 -2.23,-17.59 21.58,-51.27zm27.09 -24.5l55.54 -57.17 57.93 56.49c-5.48,9.12 -48.62,52.1 -57.2,57.2 -8.18,-4.86 -51.58,-48.36 -56.27,-56.52zm192.95 -30.26l-13.76 47.18 -16.73 -16.99 30.49 -30.19zm-242.69 30.51l-17.03 16.09 -13.2 -46.58 30.23 30.49zm130.47 -83.6c15.55,-10.84 35.46,-36.18 50.66,-50.19 9.52,-8.77 76.58,-4.85 93.19,-4.85 -1.77,53.77 -54.57,71.25 -84.88,113.98 -7.42,-3.81 -55.37,-51.67 -58.97,-58.94zm-105.26 -52.51l8.83 5.88c2.65,2.57 3.98,4.15 6.67,6.86 5.02,5.04 8.45,8.41 13.48,13.44 8.73,8.72 17.85,19.69 27.37,26.33 -4.34,8.74 -32.19,35.92 -39.01,39.22 -4.35,7.6 -11.1,15.18 -19.98,19.73 -9.27,-13.17 -36.73,-37.68 -49.91,-50.86 -6.06,-6.06 -20.75,-19.15 -24.16,-25.22 -3.28,-5.82 -10.57,-30.87 -10.8,-37.91 9.99,0 75.44,-1.47 84.35,0.97 0.41,0.11 1.33,1.24 1.62,0.74 0.28,-0.49 1.08,0.46 1.54,0.82zm80.62 29.79l-31.22 -32.32 63.39 0.5 -32.17 31.82zm44.61 -608.33l9.71 7.48c2.87,3.17 4.21,4.57 7.34,8.37 4.96,6.03 9.15,12.35 13.07,20.49 12.94,26.85 17.89,16.65 48.89,18.12 38.58,1.83 73.95,16.6 97.99,34.77 46.26,34.98 87.88,101.18 67.19,189.29 -24.91,106.11 -147.26,165.81 -249.69,118.82 -45.82,-21.02 -46.79,-47.69 -85.58,-42.05 -18.07,20.69 -12.73,33.26 -12.72,67.5 0,21.91 3.81,55.08 -25.52,49.51 -41.66,-7.92 14.92,-105.52 -47.32,-108.64 -57.07,-2.85 -81.45,-6.21 -115.52,-38.6 -83.57,-79.43 -48.2,-210.18 52.55,-243.32 33.81,-11.13 29.46,1.64 42.03,-34.18 11.97,-34.11 43.11,-63.64 80.23,-74.61 41.91,-12.4 97.99,-0.43 117.35,27.05z"/>
   <path fill="#FC7998" stroke="#FC7998" stroke-width="1.35" stroke-miterlimit="22.9256" d="M283.03 422.19c38.79,-5.64 39.76,21.03 85.58,42.05 102.43,46.99 224.78,-12.71 249.69,-118.82 20.69,-88.11 -20.93,-154.31 -67.19,-189.29 -24.04,-18.17 -59.41,-32.94 -97.99,-34.77 -31,-1.47 -35.95,8.73 -48.89,-18.12 -3.92,-8.14 -8.11,-14.46 -13.07,-20.49 -3.13,-3.8 -4.47,-5.2 -7.34,-8.37l-9.71 -7.48c-25.24,3.28 -71.2,54.19 -86.67,75.5 -37.41,51.49 -52.49,120.97 -42.34,185.15 4.21,26.67 21.62,81.88 37.93,94.64z"/>
   <path fill="#F4628C" stroke="#F4628C" stroke-width="1.35" stroke-miterlimit="22.9256" d="M283.03 422.19c-16.31,-12.76 -33.72,-67.97 -37.93,-94.64 -10.15,-64.18 4.93,-133.66 42.34,-185.15 15.47,-21.31 61.43,-72.22 86.67,-75.5 -19.36,-27.48 -75.44,-39.45 -117.35,-27.05 -37.12,10.97 -68.26,40.5 -80.23,74.61 -12.57,35.82 -8.22,23.05 -42.03,34.18 -100.75,33.14 -136.12,163.89 -52.55,243.32 34.07,32.39 58.45,35.75 115.52,38.6 62.24,3.12 5.66,100.72 47.32,108.64 29.33,5.57 25.52,-27.6 25.52,-49.51 -0.01,-34.24 -5.35,-46.81 12.72,-67.5z"/>
   <path fill="#B96525" stroke="#B96525" stroke-width="1.35" stroke-miterlimit="22.9256" d="M184.45 609.21c80.89,1.37 162.92,0.1 243.93,0.1 136.47,0 123.76,16.08 123.76,-61.3 0,-17.72 1.63,-45.57 -0.81,-62.05 -39.53,19.2 -76.76,33.08 -130.48,27.09 -23.02,-2.56 -44.44,-8.8 -63.74,-17.2 -10.01,-4.36 -18.36,-9.25 -26.26,-14.09 -10.67,-6.54 -16.01,-13.17 -26.94,-18.26 0,35.59 10.49,108.08 -52.7,109.99 -25.1,0.75 -42.84,-14.14 -50.7,-30.96 -9.12,-19.53 -5.53,-55.19 -5.53,-78.37l-13.95 0.29c0,30.98 -3.64,121.3 3.42,144.76z"/>
   <path fill="#A85822" stroke="#A85822" stroke-width="1.35" stroke-miterlimit="22.9256" d="M89.66 509.02l0 24.48c32.18,8.13 10.01,39.86 19,65.09 4.51,12.69 19.31,10.78 32.59,10.7 14.4,-0.08 28.8,0.05 43.2,-0.08 -7.06,-23.46 -3.42,-113.78 -3.42,-144.76 -32.36,0.89 -47.49,-8.4 -73.44,-14.82 -0.69,12.71 0.2,25.36 -0.26,37.89 -0.59,15.98 -5.07,17.81 -17.67,21.5z"/>
   <path fill="#E9904D" stroke="#E9904D" stroke-width="1.35" stroke-miterlimit="22.9256" d="M354.14 697.95c3.6,7.27 51.55,55.13 58.97,58.94 30.31,-42.73 83.11,-60.21 84.88,-113.98 -16.61,0 -83.67,-3.92 -93.19,4.85 -15.2,14.01 -35.11,39.35 -50.66,50.19z"/>
   <path fill="#E9904D" stroke="#E9904D" stroke-width="1.35" stroke-miterlimit="22.9256" d="M273.41 781.3c4.69,8.16 48.09,51.66 56.27,56.52 8.58,-5.1 51.72,-48.08 57.2,-57.2l-57.93 -56.49 -55.54 57.17z"/>
   <path fill="#D48245" stroke="#D48245" stroke-width="1.35" stroke-miterlimit="22.9256" d="M266.22 737.17c-6.05,0.98 -1.96,4.64 -6.09,-7.39l-10.76 -36.59c-4.72,-15.68 -9.24,-31.13 -13.86,-46.34l13.37 -1.41c-0.46,-0.36 -1.26,-1.31 -1.54,-0.82 -0.29,0.5 -1.21,-0.63 -1.62,-0.74 -8.91,-2.44 -74.36,-0.97 -84.35,-0.97 0.23,7.04 7.52,32.09 10.8,37.91 3.41,6.07 18.1,19.16 24.16,25.22 13.18,13.18 40.64,37.69 49.91,50.86 8.88,-4.55 15.63,-12.13 19.98,-19.73z"/>
   <path fill="#E9904D" stroke="#E9904D" stroke-width="1.35" stroke-miterlimit="22.9256" d="M441.84 897c1.55,-8.48 3.69,-10.73 4.64,-19.24 -5.77,-5.9 -12.28,-7.65 -11.42,-19.89 0.44,-6.27 5.85,-18.36 5.1,-22.17 -1.1,-5.66 -22.38,-23.19 -27.12,-29.89 -7.55,3.99 -54.86,51.31 -58.97,58.99 15.23,10.86 45.1,48.98 58.06,54.91 12.09,-13.7 5.33,-24.01 29.71,-22.71z"/>
   <path fill="#D48245" stroke="#D48245" stroke-width="1.35" stroke-miterlimit="22.9256" d="M246.32 805.8c-23.81,33.68 -33.37,13.33 -21.58,51.27 5.06,16.31 12.81,52.25 22.6,62.59 13.87,-6.39 41.8,-43.9 58.21,-54.58 -3.86,-7.5 -51.89,-55.41 -59.23,-59.28z"/>
   <path fill="#E9904D" stroke="#E9904D" stroke-width="1.35" stroke-miterlimit="22.9256" d="M315.55 903.25c-4.1,12.2 5.92,31.31 9.62,43.91 2.65,9.05 8.63,38.25 15.36,41.38 8.11,-3.61 15.61,-13.78 22.85,-21 8.1,-8.07 14.33,-14.43 23.28,-23.13l-57.19 -56.98 -13.92 15.82z"/>
   <path fill="#E9904D" stroke="#E9904D" stroke-width="1.35" stroke-miterlimit="22.9256" d="M266.22 737.17c6.82,-3.3 34.67,-30.48 39.01,-39.22 -9.52,-6.64 -18.64,-17.61 -27.37,-26.33 -5.03,-5.03 -8.46,-8.4 -13.48,-13.44 -2.69,-2.71 -4.02,-4.29 -6.67,-6.86l-8.83 -5.88 -13.37 1.41c4.62,15.21 9.14,30.66 13.86,46.34l10.76 36.59c4.13,12.03 0.04,8.37 6.09,7.39z"/>
   <path fill="#D48245" stroke="#D48245" stroke-width="1.35" stroke-miterlimit="22.9256" d="M340.53 988.54c-6.73,-3.13 -12.71,-32.33 -15.36,-41.38 -3.7,-12.6 -13.72,-31.71 -9.62,-43.91 -7.86,4.49 -37.19,33.16 -42.19,41.8l56.32 55.55c5.34,-4.23 7.39,-5.88 10.85,-12.06z"/>
   <path fill="#D48245" stroke="#D48245" stroke-width="1.35" stroke-miterlimit="22.9256" d="M295.55 1084.14c7.36,13.55 14.72,31.21 34.11,31.15 16.3,-0.05 29.42,-18.04 34.54,-31.59l-35.09 -33.88 -33.56 34.32z"/>
   <polygon fill="#E9904D" stroke="#E9904D" stroke-width="1.35" stroke-miterlimit="22.9256" points="329.5,675.23 361.67,643.41 298.28,642.91 "/>
   <path fill="#E9904D" stroke="#E9904D" stroke-width="1.35" stroke-miterlimit="22.9256" d="M395.99 983.98c-8.76,6.44 -36.49,33.23 -41.61,42.03l22.68 21.81 18.93 -63.84z"/>
   <path fill="#D48245" stroke="#D48245" stroke-width="1.35" stroke-miterlimit="22.9256" d="M263.11 984.06l19.81 63.88 21.88 -22.13c-4.83,-8.48 -32.77,-35.55 -41.69,-41.75z"/>
   <polygon fill="#E9904D" stroke="#E9904D" stroke-width="1.35" stroke-miterlimit="22.9256" points="435.87,781.23 452.6,798.22 466.36,751.04 "/>
   <polygon fill="#D48245" stroke="#D48245" stroke-width="1.35" stroke-miterlimit="22.9256" points="206.64,797.64 223.67,781.55 193.44,751.06 "/>
  </g>
 </g>
</svg>
