<?xml version="1.0" encoding="UTF-8"?>
<!DOCTYPE svg PUBLIC "-//W3C//DTD SVG 1.1//EN" "http://www.w3.org/Graphics/SVG/1.1/DTD/svg11.dtd">
<!-- Creator: CorelDRAW -->
<svg xmlns="http://www.w3.org/2000/svg" xml:space="preserve" width="1602px" height="1411px" version="1.1" shape-rendering="geometricPrecision" text-rendering="geometricPrecision" image-rendering="optimizeQuality" fill-rule="evenodd" clip-rule="evenodd"
viewBox="0 0 7813.82 6881.01"
 xmlns:xlink="http://www.w3.org/1999/xlink"
 xmlns:xodm="http://www.corel.com/coreldraw/odm/2003">
 <g id="Слой_x0020_1">
  <metadata id="CorelCorpID_0Corel-Layer"/>
  <g id="_2216701603728">
   <path fill="black" stroke="black" stroke-width="9.75" stroke-miterlimit="22.9256" d="M4727.63 5247.6l-93.98 -254.33 259.63 -249.81 -165.65 504.14zm-2222.96 -910.17c332.45,-265.65 883.02,-159.47 1137.7,203.8 33.25,47.41 105.4,202.12 118.9,216.6 76.7,82.24 463.58,-77.33 552.32,37.9 34.54,44.85 137.53,368.66 157.14,425.97 51.06,149.26 88.56,369.48 302.39,320.06 149.68,-34.61 178.8,-246.3 231.62,-396.07 26.18,-74.22 54.37,-149.71 79.36,-225.51 41.71,-126.52 17.58,-129.75 166.59,-154.47 105.4,-17.49 169.21,-11.52 273,-0.46 243.04,25.9 105.39,-215.51 481.57,-448.44 133.06,-82.4 298.01,-137.27 492.15,-125.32 86.46,5.32 171.59,25.14 245.3,53.87l197.18 122.55c-330.43,862.28 -1260.32,1478.09 -2225.15,1473.93 -769.04,-3.33 -1440.91,-368.69 -1873.46,-911.17 -64.47,-80.86 -335.41,-460.64 -336.61,-593.24zm2484.96 -302.34l142.19 38.18c-47.92,204.85 -160.19,265.02 -265.34,370.15 -75.82,75.81 -239.3,259.25 -318.07,311.71l-70.69 -206.83 511.91 -513.21zm-672.4 39.38c350.47,-71.18 339.02,-261.63 461.01,-180.71 -15.99,73.85 -132.53,160.64 -186.17,214.29 -61.59,61.61 -123.07,149.01 -202.06,184.85l-72.78 -218.43zm-63.46 -230.29c-134.96,97.89 -697.9,-64.48 -686.46,-574.01 11.35,-505.76 602.07,-647.49 711.65,-541.21 125.23,-3.21 239.62,108.81 303.14,154.67 -31.69,149.87 -92.83,203.18 -92.21,402.06 0.72,228.01 78.56,301.31 89.39,398.19 -68.23,47.01 -190.89,169.91 -325.51,160.3zm659.1 -999.02c42.15,24.66 88.59,85.67 168.52,46.2 60.82,-30.04 60.57,-92.93 49.29,-164.72 419.83,-94.38 772.37,187.17 750.65,590.16 -20.12,373.33 -373.72,634.9 -780.23,512.21 126.35,-177.26 -104.44,-301.46 -187.45,-119.32 -106.72,-76.26 -197.7,-244.72 -194.2,-438.54 4.04,-223.09 104.3,-313.78 193.42,-425.99zm-123 -908.46c265.45,27.91 502.39,251.16 510.15,525.92 -86.07,34.81 -210.07,25.24 -333.42,83.76 -158.68,75.28 -181.4,128.36 -258.26,163.5 -40.66,-80.48 -159.83,-110.46 -191.81,-155.01 -143.61,-41.81 -187.85,-74.3 -365.69,-81.35 -21.58,-301.9 334.99,-592.37 639.03,-536.82zm1470.05 179.46c-139,191.41 129.06,212.49 293.23,794.12 72.99,258.59 124.49,828.53 -9.32,1053.25 -274.21,-3.27 -443.12,24.92 -648.39,152.23 -264.52,164.05 -238.05,223.6 -388.13,408.68l-289.75 11.21 150.59 -445.17c389.38,-37.87 692.79,-332.37 736.58,-712.8 48.83,-424.23 -253.65,-798.13 -570.15,-866.14 -46.08,-1066.02 -1560.92,-1074.86 -1620.33,-10.78 -89.44,53.26 -153.58,59.79 -239.41,126.22 -646.03,500 -282.88,1410.09 403.22,1463.71l145.59 432.38 -321.6 19.61c-51.11,-153.17 -248.43,-345.29 -373.99,-420.52 -184.67,-110.66 -375.76,-165.46 -635.81,-160.29 -94.59,-497.77 -111.24,-849.95 97.94,-1303.16 449.91,-974.76 1575.64,-1396.32 2545.94,-941.79 326.09,152.75 341,279.54 501.94,196.46 67.08,-149.41 -59.07,-203.3 -148.79,-259.59 -294.73,-184.94 -570.84,-298.82 -944.43,-335.91 -913.06,-90.64 -1814.72,428.9 -2161.85,1239.89 -203.34,475.07 -245.06,903.47 -116.23,1442.59 -37.36,19.74 -215.68,100.59 -253.06,112.02 -79.81,-461.49 -155.9,-720.15 -24.57,-1246.33 94.38,-378.13 271.92,-703.87 465.6,-937.34 1018.09,-1227.28 2815.94,-1166.34 3758.3,22.55 340.25,429.25 539.64,997.17 512.86,1593.69 -4.4,97.92 -42.96,489.36 -109.56,582.77 -77.12,-34.82 -145.89,-87.38 -237.51,-106.13 75.11,-454.88 128.03,-698.53 -3.76,-1165.63 -49.94,-177 -111.11,-314.42 -192.56,-462.45 -103.6,-188.28 -176.6,-330.18 -322.59,-277.35zm-2613.14 -1092.24l-321.86 186.01c-291.58,186.87 -552.87,421.67 -757.59,720.92 -635.61,929.08 -634.82,2085.21 0.27,3014.24 207.03,302.85 472.46,538.7 766.82,727 130.14,83.26 207.29,110.24 275.15,151.03 41.81,25.13 10.91,0.87 37.69,29.13 13.09,0.3 437.21,147.88 637.11,181.4 243.07,40.75 507.54,48.73 754.59,17.84 2400.07,-300.08 3169.08,-3406.79 1182.65,-4775.87 -1281.83,-883.46 -2479.13,-253.67 -2574.83,-251.7z"/>
   <path fill="black" stroke="black" stroke-width="9.75" stroke-miterlimit="22.9256" d="M1079.46 5283.86l1150.8 0c52.79,18.52 76.97,68.36 114.57,112.43 28.43,33.33 73.9,84.1 98.82,122.71l-1356.44 0.08 -7.75 -235.22zm6729.48 -2009.75l0 348.63c-5.86,96.58 -16.62,192.09 -32.59,285.8 -86.68,508.78 -266.3,949.6 -561.74,1358.79 -166,229.93 -204.9,285.78 -342.39,228.51 -78.74,-130.25 -16.07,-145.44 129.42,-334.77 1392.69,-1812.41 153.84,-4733.17 -2552.01,-4565.67 -538.05,61.35 -1059.47,257.86 -1456.5,572.49 -258.37,204.75 -182.78,169.85 -359.71,325.9 -173.44,152.97 -433.59,579.16 -534.36,822.58 -408.44,986.67 -268.27,2041.71 374.82,2874.63 43.3,56.08 116.97,153.28 159.7,191.25 162.5,144.37 116.38,132.43 351.35,319.11 402.87,320.05 916.72,515.57 1464.06,579.37 697.88,42.49 1419.69,-109.21 1961.38,-537.36 105.69,-83.54 111.85,-110.99 255.4,-47.46 17.93,72.37 27.48,120.32 -27.41,168.79 -85.88,75.85 -327,222.04 -413.83,272.11 -1083.48,624.71 -2436.28,487.75 -3430.41,-290.3 -48.24,-37.75 -70.72,-81.37 -138.03,-90.6l-1569 -0.95c0,238.79 -0.03,477.59 0,716.39 0.03,297.52 5.63,398.34 -304.49,396.66 -528.1,-2.86 -769.79,84.13 -777.72,-250.52l0 -51.36c15.86,-1957.8 0,-3982.84 0,-5947.83l0 -348.85c12.08,-315.53 113.04,-260.59 793.14,-261.38 303.68,-0.35 289.07,120.37 289.07,412.08 -0.02,233.72 0,467.44 0,701.15 284.52,0 569.04,0 853.57,0 942.14,0 609.49,67.28 1045.49,-234.86 85.29,-59.1 175.31,-114.88 265.14,-161.64 640.43,-333.35 1361.06,-472.03 2109.82,-310.84 210.17,45.25 621.42,184.9 785.8,281.17l268.66 158.13c216.71,132.19 328.81,268.56 472.7,380.87 50.46,39.38 55.44,66.36 101.11,112.28 483.88,486.54 777.64,1214.93 819.56,1927.7zm-6828.55 275.29c-152.45,28.79 -124.71,119.08 -124.31,269.78l0.02 2805.65 -622.18 2.54 0 -6378.42 622.18 -0.72 -0.02 2732.63c-0.4,150.87 -27.87,240.49 124.31,269.78 130.35,-40.05 106.98,-62.75 106.7,-269.78l0 -1158.42 1005.99 0c-183.55,346.89 -186.53,310.81 -322.14,714.34 -245.17,729.57 -150.73,1493.55 143.6,2177.33 79.16,183.88 95.69,183.14 178.54,339.7l-1005.99 0 -0.86 -1401.44c-10.96,-84.59 -43.74,-83.89 -105.84,-102.97zm91.45 -2190.74l1363.68 0c-24.37,43.64 -161.97,226.36 -205.26,233.74l-1144.39 0 -0.93 -59.56 -13.1 -174.18z"/>
   <path fill="#B7C6DD" stroke="#B7C6DD" stroke-width="9.75" stroke-miterlimit="22.9256" d="M980.39 3549.4l0 -298.76c-152.18,-29.29 -124.71,-118.91 -124.31,-269.78l0.02 -2732.63 -622.18 0.72 0 6378.42 622.18 -2.54 -0.02 -2805.65c-0.4,-150.7 -28.14,-240.99 124.31,-269.78z"/>
   <path fill="#62DAFA" stroke="#62DAFA" stroke-width="9.75" stroke-miterlimit="22.9256" d="M2504.67 4337.43c1.2,132.6 272.14,512.38 336.61,593.24 432.55,542.48 1104.42,907.84 1873.46,911.17 964.83,4.16 1894.72,-611.65 2225.15,-1473.93l-197.18 -122.55c-73.71,-28.73 -158.84,-48.55 -245.3,-53.87 -194.14,-11.95 -359.09,42.92 -492.15,125.32 -376.18,232.93 -238.53,474.34 -481.57,448.44 -103.79,-11.06 -167.6,-17.03 -273,0.46 -149.01,24.72 -124.88,27.95 -166.59,154.47 -24.99,75.8 -53.18,151.29 -79.36,225.51 -52.82,149.77 -81.94,361.46 -231.62,396.07 -213.83,49.42 -251.33,-170.8 -302.39,-320.06 -19.61,-57.31 -122.6,-381.12 -157.14,-425.97 -88.74,-115.23 -475.62,44.34 -552.32,-37.9 -13.5,-14.48 -85.65,-169.19 -118.9,-216.6 -254.68,-363.27 -805.25,-469.45 -1137.7,-203.8z"/>
   <path fill="#FBE503" stroke="#FBE503" stroke-width="9.75" stroke-miterlimit="22.9256" d="M6259.92 2116.16c-40.34,-26.65 -28.24,-19.69 -61.05,-56.31 -19.94,-22.26 -28.71,-33.18 -50.78,-55.04 -38.22,-37.86 -64.7,-61.39 -110.02,-91.43 -160.94,83.08 -175.85,-43.71 -501.94,-196.46 -970.3,-454.53 -2096.03,-32.97 -2545.94,941.79 -209.18,453.21 -192.53,805.39 -97.94,1303.16 260.05,-5.17 451.14,49.63 635.81,160.29 125.56,75.23 322.88,267.35 373.99,420.52l321.6 -19.61 -145.59 -432.38c-686.1,-53.62 -1049.25,-963.71 -403.22,-1463.71 85.83,-66.43 149.97,-72.96 239.41,-126.22 59.41,-1064.08 1574.25,-1055.24 1620.33,10.78 316.5,68.01 618.98,441.91 570.15,866.14 -43.79,380.43 -347.2,674.93 -736.58,712.8l-150.59 445.17 289.75 -11.21c150.08,-185.08 123.61,-244.63 388.13,-408.68 205.27,-127.31 374.18,-155.5 648.39,-152.23 133.81,-224.72 82.31,-794.66 9.32,-1053.25 -164.17,-581.63 -432.23,-602.71 -293.23,-794.12z"/>
   <path fill="white" stroke="white" stroke-width="9.75" stroke-miterlimit="22.9256" d="M6038.07 1913.38c45.32,30.04 71.8,53.57 110.02,91.43 22.07,21.86 30.84,32.78 50.78,55.04 32.81,36.62 20.71,29.66 61.05,56.31 145.99,-52.83 218.99,89.07 322.59,277.35 81.45,148.03 142.62,285.45 192.56,462.45 131.79,467.1 78.87,710.75 3.76,1165.63 91.62,18.75 160.39,71.31 237.51,106.13 66.6,-93.41 105.16,-484.85 109.56,-582.77 26.78,-596.52 -172.61,-1164.44 -512.86,-1593.69 -942.36,-1188.89 -2740.21,-1249.83 -3758.3,-22.55 -193.68,233.47 -371.22,559.21 -465.6,937.34 -131.33,526.18 -55.24,784.84 24.57,1246.33 37.38,-11.43 215.7,-92.28 253.06,-112.02 -128.83,-539.12 -87.11,-967.52 116.23,-1442.59 347.13,-810.99 1248.79,-1330.53 2161.85,-1239.89 373.59,37.09 649.7,150.97 944.43,335.91 89.72,56.29 215.87,110.18 148.79,259.59z"/>
   <path fill="#FD989F" stroke="#FD989F" stroke-width="9.75" stroke-miterlimit="22.9256" d="M4449.63 595.4c-25.43,26.19 -383.8,165.68 -445.99,196.28l-297.18 175.7c-86.43,56.43 -67.23,41.34 -59.68,56.54 95.7,-1.97 1293,-631.76 2574.83,251.7 1986.43,1369.08 1217.42,4475.79 -1182.65,4775.87 -247.05,30.89 -511.52,22.91 -754.59,-17.84 -199.9,-33.52 -624.02,-181.1 -637.11,-181.4 -13.25,27.3 -19.6,-1.53 22.28,31.35l140.61 90.2c215.76,135.84 605.13,271.15 638.84,306.93 697.88,42.49 1419.69,-109.21 1961.38,-537.36 105.69,-83.54 111.85,-110.99 255.4,-47.46 14.43,-21.37 174.89,-170.09 206.45,-200.07 -78.74,-130.25 -16.07,-145.44 129.42,-334.77 1392.69,-1812.41 153.84,-4733.17 -2552.01,-4565.67z"/>
   <path fill="#FD8087" stroke="#FD8087" stroke-width="9.75" stroke-miterlimit="22.9256" d="M4448.99 6280.73c-33.71,-35.78 -423.08,-171.09 -638.84,-306.93l-140.61 -90.2c-41.88,-32.88 -35.53,-4.05 -22.28,-31.35 -26.78,-28.26 4.12,-4 -37.69,-29.13 -67.86,-40.79 -145.01,-67.77 -275.15,-151.03 -294.36,-188.3 -559.79,-424.15 -766.82,-727 -635.09,-929.03 -635.88,-2085.16 -0.27,-3014.24 204.72,-299.25 466.01,-534.05 757.59,-720.92l321.86 -186.01c-7.55,-15.2 -26.75,-0.11 59.68,-56.54l297.18 -175.7c62.19,-30.6 420.56,-170.09 445.99,-196.28 -538.05,61.35 -1059.47,257.86 -1456.5,572.49 -258.37,204.75 -182.78,169.85 -359.71,325.9 -173.44,152.97 -433.59,579.16 -534.36,822.58 -408.44,986.67 -268.27,2041.71 374.82,2874.63 43.3,56.08 116.97,153.28 159.7,191.25 162.5,144.37 116.38,132.43 351.35,319.11 402.87,320.05 916.72,515.57 1464.06,579.37z"/>
   <path fill="#9FE12D" stroke="#9FE12D" stroke-width="9.75" stroke-miterlimit="22.9256" d="M5476.37 3417.76c144.1,-57.3 205.96,162.81 81.36,208.85 -141.77,52.38 -226.04,-151.34 -81.36,-208.85zm-504.01 -259.81c145.07,-57.33 207.15,163.5 82.8,210.51 -142.61,53.92 -228.52,-152.91 -82.8,-210.51zm504.01 -197.46c144.1,-57.3 205.96,162.81 81.36,208.85 -141.77,52.38 -226.04,-151.34 -81.36,-208.85zm-345.69 -233.85c11.28,71.79 11.53,134.68 -49.29,164.72 -79.93,39.47 -126.37,-21.54 -168.52,-46.2 -89.12,112.21 -189.38,202.9 -193.42,425.99 -3.5,193.82 87.48,362.28 194.2,438.54 83.01,-182.14 313.8,-57.94 187.45,119.32 406.51,122.69 760.11,-138.88 780.23,-512.21 21.72,-402.99 -330.82,-684.54 -750.65,-590.16z"/>
   <path fill="#FD989F" stroke="#FD989F" stroke-width="9.75" stroke-miterlimit="22.9256" d="M4253.77 3844.18c134.62,9.61 257.28,-113.29 325.51,-160.3 -10.83,-96.88 -88.67,-170.18 -89.39,-398.19 -0.62,-198.88 60.52,-252.19 92.21,-402.06 -63.52,-45.86 -177.91,-157.88 -303.14,-154.67 -80.4,5.98 -23.95,-28.29 -90.9,14.2 -44.93,28.51 -127.8,130.25 -156.11,180.24 -54.78,96.74 -98.1,211.07 -100.87,346.86 -2.77,136.31 34.16,272.34 95.95,367.69 78.57,121.28 121.57,176.89 226.74,206.23z"/>
   <path fill="#FD8087" stroke="#FD8087" stroke-width="9.75" stroke-miterlimit="22.9256" d="M4253.77 3844.18c-105.17,-29.34 -148.17,-84.95 -226.74,-206.23 -61.79,-95.35 -98.72,-231.38 -95.95,-367.69 2.77,-135.79 46.09,-250.12 100.87,-346.86 28.31,-49.99 111.18,-151.73 156.11,-180.24 66.95,-42.49 10.5,-8.22 90.9,-14.2 -109.58,-106.28 -700.3,35.45 -711.65,541.21 -11.44,509.53 551.5,671.9 686.46,574.01z"/>
   <path fill="#D88A55" stroke="#D88A55" stroke-width="9.75" stroke-miterlimit="22.9256" d="M4516.53 2554.87c31.98,44.55 151.15,74.53 191.81,155.01 76.86,-35.14 99.58,-88.22 258.26,-163.5 123.35,-58.52 247.35,-48.95 333.42,-83.76 -7.76,-274.76 -244.7,-498.01 -510.15,-525.92 -39.57,56.36 -73.46,67.06 -116.58,118.91 -30.41,36.56 -66.66,81.56 -94.41,133.55 -46.7,87.53 -101,253.29 -62.35,365.71z"/>
   <path fill="#B7C6DD" stroke="#B7C6DD" stroke-width="9.75" stroke-miterlimit="22.9256" d="M1087.21 5519.08l1356.44 -0.08c-24.92,-38.61 -70.39,-89.38 -98.82,-122.71 -37.6,-44.07 -61.78,-93.91 -114.57,-112.43l-1150.8 0 7.75 235.22z"/>
   <path fill="#B7C6DD" stroke="#B7C6DD" stroke-width="9.75" stroke-miterlimit="22.9256" d="M1084.94 1532.84l0.93 59.56 1144.39 0c43.29,-7.38 180.89,-190.1 205.26,-233.74l-1363.68 0 13.1 174.18z"/>
   <path fill="#C47A44" stroke="#C47A44" stroke-width="9.75" stroke-miterlimit="22.9256" d="M4516.53 2554.87c-38.65,-112.42 15.65,-278.18 62.35,-365.71 27.75,-51.99 64,-96.99 94.41,-133.55 43.12,-51.85 77.01,-62.55 116.58,-118.91 -304.04,-55.55 -660.61,234.92 -639.03,536.82 177.84,7.05 222.08,39.54 365.69,81.35z"/>
   <path fill="#A24E3E" stroke="#A24E3E" stroke-width="9.75" stroke-miterlimit="22.9256" d="M4477.72 4548.3l70.69 206.83c78.77,-52.46 242.25,-235.9 318.07,-311.71 105.15,-105.13 217.42,-165.3 265.34,-370.15l-142.19 -38.18 -511.91 513.21z"/>
   <path fill="#A24E3E" stroke="#A24E3E" stroke-width="9.75" stroke-miterlimit="22.9256" d="M4317.23 4074.47l72.78 218.43c78.99,-35.84 140.47,-123.24 202.06,-184.85 53.64,-53.65 170.18,-140.44 186.17,-214.29 -121.99,-80.92 -110.54,109.53 -461.01,180.71z"/>
   <polygon fill="#A24E3E" stroke="#A24E3E" stroke-width="9.75" stroke-miterlimit="22.9256" points="4893.28,4743.46 4633.65,4993.27 4727.63,5247.6 "/>
   <path fill="black" stroke="black" stroke-width="9.75" stroke-miterlimit="22.9256" d="M4972.36 3157.95c-145.72,57.6 -59.81,264.43 82.8,210.51 124.35,-47.01 62.27,-267.84 -82.8,-210.51z"/>
   <path fill="black" stroke="black" stroke-width="9.75" stroke-miterlimit="22.9256" d="M5476.37 2960.49c-144.68,57.51 -60.41,261.23 81.36,208.85 124.6,-46.04 62.74,-266.15 -81.36,-208.85z"/>
   <path fill="black" stroke="black" stroke-width="9.75" stroke-miterlimit="22.9256" d="M5476.37 3417.76c-144.68,57.51 -60.41,261.23 81.36,208.85 124.6,-46.04 62.74,-266.15 -81.36,-208.85z"/>
  </g>
 </g>
</svg>
