<?xml version="1.0" encoding="UTF-8"?>
<!DOCTYPE svg PUBLIC "-//W3C//DTD SVG 1.1//EN" "http://www.w3.org/Graphics/SVG/1.1/DTD/svg11.dtd">
<!-- Creator: CorelDRAW -->
<svg xmlns="http://www.w3.org/2000/svg" xml:space="preserve" width="1253px" height="1600px" version="1.1" shape-rendering="geometricPrecision" text-rendering="geometricPrecision" image-rendering="optimizeQuality" fill-rule="evenodd" clip-rule="evenodd"
viewBox="0 0 101.64 129.77"
 xmlns:xlink="http://www.w3.org/1999/xlink"
 xmlns:xodm="http://www.corel.com/coreldraw/odm/2003">
 <g id="Слой_x0020_1">
  <metadata id="CorelCorpID_0Corel-Layer"/>
  <g id="_2217778974720">
   <path fill="#EFF8FD" d="M74.66 110.47c-3.38,0 -3.54,-3.79 0,-3.79l4.56 0c3.52,0 3.3,3.79 0,3.79l-4.56 0zm-18.84 -3.63c0.8,-0.32 5.55,-0.28 6.67,-0.14 2.25,0.29 2.24,2.95 0.56,3.6 -0.67,0.26 -5.72,0.27 -6.61,0.14 -2.12,-0.29 -2.43,-2.9 -0.62,-3.6zm-17.49 0c0.76,-0.3 5.55,-0.25 6.68,-0.16 2.64,0.22 2.53,3.02 0.82,3.64 -0.69,0.25 -5.68,0.23 -6.65,0.15 -2.4,-0.22 -2.65,-2.91 -0.85,-3.63zm-17.21 0.02c0.77,-0.33 5.53,-0.3 6.64,-0.16 2.33,0.29 2.3,3.01 0.59,3.62 -0.69,0.24 -5.76,0.25 -6.63,0.12 -1.99,-0.31 -2.44,-2.78 -0.6,-3.58zm36.62 -19.73c9.81,-2.41 13.44,12.55 3.48,15.03 -9.53,2.37 -13.86,-12.48 -3.48,-15.03zm17.47 -0.01c4.61,-1.09 8.41,2.13 9.23,5.75 1.07,4.71 -2.26,8.54 -5.93,9.33 -9.86,2.1 -13.29,-12.73 -3.3,-15.08zm-34.88 0.05c9.95,-2.47 13.42,12.55 3.63,14.97 -9.78,2.42 -13.82,-12.45 -3.63,-14.97zm-17.16 -0.1c9.92,-2.23 13.12,12.85 3.34,15.1 -9.99,2.3 -13.51,-12.81 -3.34,-15.1zm21.07 -10.14c1.23,0 2.91,-0.3 3.67,0.77 0.61,0.84 0.48,2.3 -0.7,2.83 -0.32,0.14 -10.69,0.78 -11.88,-0.39 -0.95,-0.92 -0.52,-2.43 0.44,-2.95 1.01,-0.55 6.84,-0.25 8.47,-0.26zm29.66 3.8c-3.83,0 -3.7,-3.79 -0.26,-3.79l8.37 0c3.59,0 3.6,3.79 0,3.79l-8.11 0zm-51.39 -12.35c4.49,-1.37 8.19,1.78 9.11,5.06 1.29,4.6 -1.77,8.26 -5.09,9.21 -9.28,2.67 -13.74,-11.32 -4.02,-14.27zm36.3 0.03c9.46,-2.78 13.37,11.45 4.19,14.22 -9.42,2.84 -13.88,-11.38 -4.19,-14.22zm13.81 1.95c0.79,-0.24 6.98,-0.08 8.38,-0.09 1.45,0 2.77,-0.15 3.35,0.91 2.23,4.1 -6.56,2.88 -9.7,2.9 -5.39,0.04 -3.47,-3.29 -2.03,-3.72zm-36.43 0.05c1.03,-0.36 6.72,-0.12 8.31,-0.13 5.75,-0.04 3.6,3.26 2.66,3.61 -1,0.38 -6.98,0.18 -8.5,0.19 -1.35,0.01 -2.88,0.16 -3.53,-0.85 -0.87,-1.33 -0.06,-2.44 1.06,-2.82zm38.19 -13.74c0.68,-0.21 6.44,-0.1 7.64,-0.09 3.56,0.04 3.05,3.2 1.2,3.7 -0.85,0.23 -6.6,0.16 -7.82,0.12 -3.3,-0.13 -2.98,-3.13 -1.02,-3.73zm-55.96 0.03c0.94,-0.31 6.13,-0.12 7.59,-0.12 1.25,0 2.12,0.11 2.55,1.19 1.44,3.58 -5.22,2.65 -8.66,2.64 -3.69,-0.02 -3.55,-3.03 -1.48,-3.71zm57 -3.81c-3.33,0 -3.63,-3.8 0.25,-3.8l6.34 0c3.6,0 3.57,3.8 -0.07,3.8l-6.52 0zm-57.34 -3.56c0.18,-0.1 9.57,-1.28 10.48,0.84 1.6,3.74 -5.28,2.7 -8.41,2.73 -4.42,0.04 -3.25,-2.94 -2.07,-3.57zm56.14 -7.55c0.89,-0.4 6.13,-0.2 7.55,-0.19 1.36,0.01 2.3,0.1 2.69,1.11 1.39,3.69 -4.91,2.76 -8.81,2.71 -3.28,-0.04 -3.5,-2.71 -1.43,-3.63zm-54.57 3.63c-3.48,0 -3.72,-3.82 0,-3.82 4.03,0.01 9.15,-0.79 9.06,1.99 -0.08,2.6 -5.1,1.82 -9.06,1.83zm21.53 -12.73c1.36,-12.23 17.93,-12.26 19.3,0 8.41,2.65 9.22,16.43 -1.95,18.61l-4.66 13.34c-1.36,3.93 -4.65,4.12 -6.14,-0.19l-4.6 -13.15c-11.23,-2.19 -10.28,-15.99 -1.95,-18.61zm34.24 5.22c-1.51,0 -2.49,-0.35 -2.48,-1.91 0.02,-2.73 4.65,-1.89 9.07,-1.89 3.65,0 3.51,3.8 0,3.8l-6.59 0zm-57.39 -3.55c1.13,-0.6 6.06,-0.27 7.72,-0.26 1.41,0.01 2.4,0.05 2.82,1.11 1.49,3.73 -4.91,2.68 -8.42,2.71 -4.42,0.05 -3.22,-2.99 -2.12,-3.56zm45.23 -18.26c1.5,-0.01 2.94,-0.18 3.52,0.92 0.64,1.24 -0.02,2.46 -1.03,2.75 -1.47,0.42 -22.71,0.1 -27.34,0.13 -1.63,0.01 -3.1,0.21 -3.6,-1.09 -0.59,-1.53 0.22,-2.32 1.43,-2.62 1.59,-0.4 22.33,-0.07 27.02,-0.09zm-29.63 -6.18c-0.79,1.99 -2.4,1.43 -5.86,1.43 -2.14,0 -5.36,-0.19 -7.35,0.09 -0.52,1.11 -0.57,1.92 -1.2,3.09 -0.67,1.24 -0.95,1.51 -1.86,2.45 -1.86,1.91 -2.75,2.14 -5.71,3.15l-0.01 89.53c2.76,0.92 3.9,1.25 5.6,3.02 0.89,0.93 1.22,1.2 1.9,2.42 0.66,1.21 0.72,2.05 1.28,3.25l60.83 0.09c2.12,-4.68 1.92,-6.48 8.77,-8.77 0.03,-17.26 -0.28,-36.53 -0.01,-53.66 0.03,-1.7 0.14,-1.96 1.42,-2.54l0.5 -0.49 0.04 -4.37 -0.53 -0.43c-1.28,-0.57 -1.4,-0.83 -1.43,-2.53 -0.02,-1.17 0.01,-2.39 0.01,-3.57l0 -21.96c-3.06,-1.03 -3.77,-1.19 -5.71,-3.16 -2.27,-2.31 -1.65,-2.51 -3.06,-5.52 -2.2,-0.31 -33.09,-0.12 -38.53,-0.09 -2.14,0.01 -3.16,0.3 -3.84,-1.42 -0.75,-0.79 -1.4,-0.49 -2.75,-0.5 -1.34,0 -1.76,-0.28 -2.5,0.49z"/>
   <path fill="black" d="M99.37 106.71c-1.68,1.07 -1.83,0.47 -1.82,3.28 0.01,1.89 0.2,14.11 -0.13,15.4 -0.01,0.05 -0.07,0.24 -0.08,0.2 -0.01,-0.03 -0.05,0.14 -0.08,0.2 -1.69,0.66 -73.37,0.24 -81.78,0.17 -2.15,0.02 -9.7,0.36 -11.08,-0.17l-0.31 -1.58c-0.2,-8.59 0.02,-19.97 0.02,-28.66l0.29 -91.57c1.4,-0.53 8.92,-0.19 11.08,-0.17 7.02,-0.05 81.3,-0.23 81.78,0.17l0.23 0.61c0.01,0.08 0.03,0.14 0.04,0.23 0.03,0.18 0.04,0.55 0.04,0.74 0.02,0.48 -0.01,1.04 -0.01,1.54l-0.01 90.74c-0.01,3.99 0.3,3.07 1.82,4.05 2.5,-0.47 2.16,-2.23 2.15,-5.07l0 -79.33c0,-3.18 0.39,-12 -0.23,-14.21 -0.6,-2.15 -2.05,-2.99 -3.95,-3.28l-7.22 0 -85.37 0c-0.55,0.02 -0.9,0.03 -1.01,0.05 -4.77,0.8 -3.6,7.56 -3.6,10.85l0 100.88c0,3.14 -0.39,11.86 0.13,14.31 0.41,1.89 1.74,3.34 3.47,3.63 0,0 5.56,0.02 13.97,0.05l79.67 0c0.14,0 0.26,-0.01 0.32,-0.02 1.84,-0.21 3.2,-1.67 3.64,-3.46 0.35,-1.43 0.18,-11.86 0.18,-14.26 0,-2.93 0.42,-4.84 -2.15,-5.32z"/>
   <path fill="black" d="M85.28 118.43c0.57,-2.48 2.37,-4.08 4.72,-4.72l0.02 4.69 -4.74 0.03zm-73.57 -4.72c2.32,0.66 4.08,2.21 4.67,4.74l-4.75 -0.14 0.08 -4.6zm-0.07 -102.34l4.74 -0.03c-0.6,2.52 -2.35,4.05 -4.72,4.72l-0.02 -4.69zm80.76 110.84c1.21,-0.54 1.42,-1.23 1.43,-2.81l-0.01 -59.33c0,-2.91 0.92,-6.93 -2.39,-6.61 -1.28,0.58 -1.39,0.84 -1.42,2.54 -0.27,17.13 0.04,36.4 0.01,53.66 -6.85,2.29 -6.65,4.09 -8.77,8.77l-60.83 -0.09c-0.56,-1.2 -0.62,-2.04 -1.28,-3.25 -0.68,-1.22 -1.01,-1.49 -1.9,-2.42 -1.7,-1.77 -2.84,-2.1 -5.6,-3.02l0.01 -89.53c2.96,-1.01 3.85,-1.24 5.71,-3.15 0.91,-0.94 1.19,-1.21 1.86,-2.45 0.63,-1.17 0.68,-1.98 1.2,-3.09 1.99,-0.28 5.21,-0.09 7.35,-0.09 3.46,0 5.07,0.56 5.86,-1.43 0.08,-1.44 -0.25,-1.82 -1.3,-2.34l-21.04 -0.04c-3.23,-0.02 -3.47,0.49 -3.46,3.62 0.2,32.36 0.01,65.16 0.01,97.58 0,2.54 -0.66,12.01 0.74,13.1 1.09,0.85 24.18,0.39 27.55,0.39 18.68,0 37.62,0.32 56.27,-0.01z"/>
   <path fill="#FE99A0" d="M32.33 7.57c1.05,0.52 1.38,0.9 1.3,2.34 0.74,-0.77 1.16,-0.49 2.5,-0.49 1.35,0.01 2,-0.29 2.75,0.5 -0.16,-2.62 1.62,-2.4 3.84,-2.39l44.1 0.01c8.39,0 7,-2.96 7,18.06l0 18.76c0.01,2.22 0.2,4.07 -2.38,3.81l0.53 0.43 -0.04 4.37 -0.5 0.49c3.31,-0.32 2.39,3.7 2.39,6.61l0.01 59.33c-0.01,1.58 -0.22,2.27 -1.43,2.81 -1.19,0.74 -7.81,0.4 -9.63,0.4 -7.92,0 -63.93,-0.3 -67.34,0.06l0.05 3.29c8.41,0.07 80.09,0.49 81.78,-0.17 0.03,-0.06 0.07,-0.23 0.08,-0.2 0.01,0.04 0.07,-0.15 0.08,-0.2 0.33,-1.29 0.14,-13.51 0.13,-15.4 -0.01,-2.81 0.14,-2.21 1.82,-3.28l0 -4.82c-1.52,-0.98 -1.83,-0.06 -1.82,-4.05l0.01 -90.74c0,-0.5 0.03,-1.06 0.01,-1.54 0,-0.19 -0.01,-0.56 -0.04,-0.74 -0.01,-0.09 -0.03,-0.15 -0.04,-0.23l-0.23 -0.61c-0.48,-0.4 -74.76,-0.22 -81.78,-0.17l-0.06 3.29c2.13,0.23 9.58,0.07 12.6,0.07 0.68,0 1.35,-0.01 2.03,-0.02l1.53 0.1c0.46,0.13 0.54,0.19 0.75,0.32z"/>
   <path fill="black" d="M49.95 49.6l0.88 -0.58c1,0.67 2.1,1.56 3.7,1.86l-1.87 5.82 -1.72 4.71 -3.87 -10.5c1.16,-0.24 2.07,-0.73 2.88,-1.31zm-4.56 -2.31c-1.16,0.9 -3.66,-0.26 -4.46,-0.89 -0.94,-0.73 -2.06,-2.09 -2.28,-3.83 -0.5,-3.85 2.24,-6.43 5.72,-6.68 2.01,0.07 3.08,0.77 4.12,1.63 -1.21,4.18 -1.18,4.22 -0.01,8.38 -0.64,0.74 -1.7,1.44 -3.09,1.39zm12.44 -0.13c0.16,0.17 0.52,-0.28 0.1,0.37 -8.19,0.45 -8.89,-10.88 -0.89,-11.65l0.89 0.05c-0.32,1.21 -0.32,2.36 0.76,2.86 1.39,0.65 2.12,-0.45 2.79,-0.99 2.6,2.13 1.54,5.49 0.21,7.79 -0.76,-0.35 -1.09,-1.18 -2.36,-0.86 -1.21,0.31 -1.27,1.2 -1.5,2.43zm-12.65 -15.22c0.92,-5.86 10.04,-6.41 11.32,0 -0.86,0.43 -2.25,0.57 -3.17,0.98 -0.99,0.43 -1.76,1.1 -2.5,1.5 -0.75,-0.4 -1.51,-1.06 -2.5,-1.5 -0.91,-0.42 -2.27,-0.55 -3.15,-0.98zm-4 0.74c-8.33,2.62 -9.28,16.42 1.95,18.61l4.6 13.15c1.49,4.31 4.78,4.12 6.14,0.19l4.66 -13.34c11.17,-2.18 10.36,-15.96 1.95,-18.61 -1.37,-12.26 -17.94,-12.23 -19.3,0z"/>
   <path fill="#FD8087" d="M15.48 125.96l-0.05 -3.29c3.41,-0.36 59.42,-0.06 67.34,-0.06 1.82,0 8.44,0.34 9.63,-0.4 -18.65,0.33 -37.59,0.01 -56.27,0.01 -3.37,0 -26.46,0.46 -27.55,-0.39 -1.4,-1.09 -0.74,-10.56 -0.74,-13.1 0,-32.42 0.19,-65.22 -0.01,-97.58 -0.01,-3.13 0.23,-3.64 3.46,-3.62l21.04 0.04c-0.21,-0.13 -0.29,-0.19 -0.75,-0.32l-1.53 -0.1c-0.68,0.01 -1.35,0.02 -2.03,0.02 -3.02,0 -10.47,0.16 -12.6,-0.07l0.06 -3.29c-2.16,-0.02 -9.68,-0.36 -11.08,0.17l-0.29 91.57c0,8.69 -0.22,20.07 -0.02,28.66l0.31 1.58c1.38,0.53 8.93,0.19 11.08,0.17z"/>
   <path fill="black" d="M89.96 16.06c-2.3,-0.66 -4.11,-2.23 -4.68,-4.74l4.75 0.14 -0.07 4.6zm-51.08 -6.14c0.68,1.72 1.7,1.43 3.84,1.42 5.44,-0.03 36.33,-0.22 38.53,0.09 1.41,3.01 0.79,3.21 3.06,5.52 1.94,1.97 2.65,2.13 5.71,3.16l0 21.96c0,1.18 -0.03,2.4 -0.01,3.57 0.03,1.7 0.15,1.96 1.43,2.53 2.58,0.26 2.39,-1.59 2.38,-3.81l0 -18.76c0,-21.02 1.39,-18.06 -7,-18.06l-44.1 -0.01c-2.22,-0.01 -4,-0.23 -3.84,2.39z"/>
   <path fill="black" d="M25.7 98.25c-1.94,1.43 -4.9,-1.27 -4.86,-3.71 0.04,-2.2 2.84,-5 5.13,-3.52 3.8,0.56 3.42,7.16 -0.27,7.23zm-2.53 -11.18c-10.17,2.29 -6.65,17.4 3.34,15.1 9.78,-2.25 6.58,-17.33 -3.34,-15.1z"/>
   <path fill="black" d="M58.26 90.96c2.23,-0.84 4.4,0.67 4.93,2.39 0.74,2.36 -0.78,4.48 -2.45,5.01 -4.73,1.52 -7.67,-5.46 -2.48,-7.4zm-0.52 -3.83c-10.38,2.55 -6.05,17.4 3.48,15.03 9.96,-2.48 6.33,-17.44 -3.48,-15.03z"/>
   <path fill="black" d="M41.07 90.84c5.1,-1.37 7.06,6.42 2.01,7.61 -5.02,1.19 -6.95,-6.3 -2.01,-7.61zm-0.74 -3.67c-10.19,2.52 -6.15,17.39 3.63,14.97 9.79,-2.42 6.32,-17.44 -3.63,-14.97z"/>
   <path fill="black" d="M75.71 90.93c2.29,-0.81 4.38,0.77 4.92,2.46 0.76,2.38 -0.81,4.53 -2.61,5.02 -4.82,1.33 -7.33,-5.71 -2.31,-7.48zm-0.5 -3.81c-9.99,2.35 -6.56,17.18 3.3,15.08 3.67,-0.79 7,-4.62 5.93,-9.33 -0.82,-3.62 -4.62,-6.84 -9.23,-5.75z"/>
   <path fill="black" d="M59.5 72.19c4.6,-1.96 6.92,5.01 2.77,6.67 -4.36,1.75 -7.44,-4.67 -2.77,-6.67zm-0.69 -3.78c-9.69,2.84 -5.23,17.06 4.19,14.22 9.18,-2.77 5.27,-17 -4.19,-14.22z"/>
   <path fill="black" d="M25.78 72.24c1.24,0.25 2.33,1.65 2.31,3.29 -0.01,1.65 -1.06,3.08 -2.43,3.19 -0.94,0.87 -2.56,0.28 -3.33,-0.29 -0.87,-0.64 -1.46,-1.56 -1.48,-2.91 -0.04,-2.31 2.6,-4.73 4.93,-3.28zm-3.27 -3.86c-9.72,2.95 -5.26,16.94 4.02,14.27 3.32,-0.95 6.38,-4.61 5.09,-9.21 -0.92,-3.28 -4.62,-6.43 -9.11,-5.06z"/>
   <path fill="black" d="M36.24 16.18c-1.21,0.3 -2.02,1.09 -1.43,2.62 0.5,1.3 1.97,1.1 3.6,1.09 4.63,-0.03 25.87,0.29 27.34,-0.13 1.01,-0.29 1.67,-1.51 1.03,-2.75 -0.58,-1.1 -2.02,-0.93 -3.52,-0.92 -4.69,0.02 -25.43,-0.31 -27.02,0.09z"/>
   <path fill="#FD8087" d="M45.39 47.29c1.39,0.05 2.45,-0.65 3.09,-1.39 -1.17,-4.16 -1.2,-4.2 0.01,-8.38 -1.04,-0.86 -2.11,-1.56 -4.12,-1.63l-0.38 0.56c-2.08,2.84 -2.9,5.65 -0.98,9.13 0.89,1.61 0.66,1.24 2.38,1.71z"/>
   <path fill="#FEF2DD" d="M55.9 40.02c0.47,0.61 1.07,0.62 1.07,1.8 0,1.18 -0.59,1.21 -1.07,1.81 -0.39,0.29 0.38,0.47 -0.91,0.47 0.66,1.68 1.08,2.97 2.84,3.06 0.23,-1.23 0.29,-2.12 1.5,-2.43 1.27,-0.32 1.6,0.51 2.36,0.86 1.33,-2.3 2.39,-5.66 -0.21,-7.79 -0.67,0.54 -1.4,1.64 -2.79,0.99 -1.08,-0.5 -1.08,-1.65 -0.76,-2.86l-0.89 -0.05c-0.32,0.65 -0.85,1.07 -1.26,1.77 -0.3,0.49 -0.63,1.23 -0.84,1.89 1.3,0 0.58,0.17 0.96,0.48z"/>
   <path fill="#9BDB2B" d="M45.18 31.94c0.88,0.43 2.24,0.56 3.15,0.98 0.99,0.44 1.75,1.1 2.5,1.5 0.74,-0.4 1.51,-1.07 2.5,-1.5 0.92,-0.41 2.31,-0.55 3.17,-0.98 -1.28,-6.41 -10.4,-5.86 -11.32,0z"/>
   <path fill="#9BDB2B" d="M41.07 90.84c-4.94,1.31 -3.01,8.8 2.01,7.61 5.05,-1.19 3.09,-8.98 -2.01,-7.61z"/>
   <path fill="black" d="M72.62 70.36c-1.44,0.43 -3.36,3.76 2.03,3.72 3.14,-0.02 11.93,1.2 9.7,-2.9 -0.58,-1.06 -1.9,-0.91 -3.35,-0.91 -1.4,0.01 -7.59,-0.15 -8.38,0.09z"/>
   <path fill="#FD8107" d="M75.71 90.93c-5.02,1.77 -2.51,8.81 2.31,7.48 1.8,-0.49 3.37,-2.64 2.61,-5.02 -0.54,-1.69 -2.63,-3.27 -4.92,-2.46z"/>
   <path fill="black" d="M35.77 77.19c-0.96,0.52 -1.39,2.03 -0.44,2.95 1.19,1.17 11.56,0.53 11.88,0.39 1.18,-0.53 1.31,-1.99 0.7,-2.83 -0.76,-1.07 -2.44,-0.77 -3.67,-0.77 -1.63,0.01 -7.46,-0.29 -8.47,0.26z"/>
   <path fill="#FBE403" d="M58.26 90.96c-5.19,1.94 -2.25,8.92 2.48,7.4 1.67,-0.53 3.19,-2.65 2.45,-5.01 -0.53,-1.72 -2.7,-3.23 -4.93,-2.39z"/>
   <path fill="black" d="M36.19 70.41c-1.12,0.38 -1.93,1.49 -1.06,2.82 0.65,1.01 2.18,0.86 3.53,0.85 1.52,-0.01 7.5,0.19 8.5,-0.19 0.94,-0.35 3.09,-3.65 -2.66,-3.61 -1.59,0.01 -7.28,-0.23 -8.31,0.13z"/>
   <path fill="black" d="M73.9 80.73l8.11 0c3.6,0 3.59,-3.79 0,-3.79l-8.37 0c-3.44,0 -3.57,3.79 0.26,3.79z"/>
   <path fill="black" d="M18.03 34.35c-1.1,0.57 -2.3,3.61 2.12,3.56 3.51,-0.03 9.91,1.02 8.42,-2.71 -0.42,-1.06 -1.41,-1.1 -2.82,-1.11 -1.66,-0.01 -6.59,-0.34 -7.72,0.26z"/>
   <path fill="black" d="M18.08 49.33c-1.18,0.63 -2.35,3.61 2.07,3.57 3.13,-0.03 10.01,1.01 8.41,-2.73 -0.91,-2.12 -10.3,-0.94 -10.48,-0.84z"/>
   <path fill="black" d="M18.42 56.7c-2.07,0.68 -2.21,3.69 1.48,3.71 3.44,0.01 10.1,0.94 8.66,-2.64 -0.43,-1.08 -1.3,-1.19 -2.55,-1.19 -1.46,0 -6.65,-0.19 -7.59,0.12z"/>
   <path fill="black" d="M74.22 41.78c-2.07,0.92 -1.85,3.59 1.43,3.63 3.9,0.05 10.2,0.98 8.81,-2.71 -0.39,-1.01 -1.33,-1.1 -2.69,-1.11 -1.42,-0.01 -6.66,-0.21 -7.55,0.19z"/>
   <path fill="#9BDB2B" d="M59.5 72.19c-4.67,2 -1.59,8.42 2.77,6.67 4.15,-1.66 1.83,-8.63 -2.77,-6.67z"/>
   <path fill="black" d="M74.38 56.67c-1.96,0.6 -2.28,3.6 1.02,3.73 1.22,0.04 6.97,0.11 7.82,-0.12 1.85,-0.5 2.36,-3.66 -1.2,-3.7 -1.2,-0.01 -6.96,-0.12 -7.64,0.09z"/>
   <path fill="black" d="M19.65 45.41c3.96,-0.01 8.98,0.77 9.06,-1.83 0.09,-2.78 -5.03,-1.98 -9.06,-1.99 -3.72,0 -3.48,3.82 0,3.82z"/>
   <path fill="black" d="M75.42 37.9l6.59 0c3.51,0 3.65,-3.8 0,-3.8 -4.42,0 -9.05,-0.84 -9.07,1.89 -0.01,1.56 0.97,1.91 2.48,1.91z"/>
   <path fill="black" d="M75.42 52.89l6.52 0c3.64,0 3.67,-3.8 0.07,-3.8l-6.34 0c-3.88,0 -3.58,3.8 -0.25,3.8z"/>
   <path fill="#FD646F" d="M45.39 47.29c-1.72,-0.47 -1.49,-0.1 -2.38,-1.71 -1.92,-3.48 -1.1,-6.29 0.98,-9.13l0.38 -0.56c-3.48,0.25 -6.22,2.83 -5.72,6.68 0.22,1.74 1.34,3.1 2.28,3.83 0.8,0.63 3.3,1.79 4.46,0.89z"/>
   <path fill="black" d="M38.33 106.84c-1.8,0.72 -1.55,3.41 0.85,3.63 0.97,0.08 5.96,0.1 6.65,-0.15 1.71,-0.62 1.82,-3.42 -0.82,-3.64 -1.13,-0.09 -5.92,-0.14 -6.68,0.16z"/>
   <path fill="black" d="M55.82 106.84c-1.81,0.7 -1.5,3.31 0.62,3.6 0.89,0.13 5.94,0.12 6.61,-0.14 1.68,-0.65 1.69,-3.31 -0.56,-3.6 -1.12,-0.14 -5.87,-0.18 -6.67,0.14z"/>
   <path fill="black" d="M21.12 106.86c-1.84,0.8 -1.39,3.27 0.6,3.58 0.87,0.13 5.94,0.12 6.63,-0.12 1.71,-0.61 1.74,-3.33 -0.59,-3.62 -1.11,-0.14 -5.87,-0.17 -6.64,0.16z"/>
   <path fill="black" d="M74.66 110.47l4.56 0c3.3,0 3.52,-3.79 0,-3.79l-4.56 0c-3.54,0 -3.38,3.79 0,3.79z"/>
   <path fill="#FEE5C2" d="M57.83 47.16c-1.76,-0.09 -2.18,-1.38 -2.84,-3.06 1.29,0 0.52,-0.18 0.91,-0.47 -3.61,0.3 -3.72,-3.85 0,-3.61 -0.38,-0.31 0.34,-0.48 -0.96,-0.48 0.21,-0.66 0.54,-1.4 0.84,-1.89 0.41,-0.7 0.94,-1.12 1.26,-1.77 -8,0.77 -7.3,12.1 0.89,11.65 0.42,-0.65 0.06,-0.2 -0.1,-0.37z"/>
   <path fill="#EA9B58" d="M52.66 56.7c-0.84,-0.52 -0.14,0.28 -0.7,-0.8l-0.9 -2.65c-0.41,-1.16 -0.97,-2.34 -1.11,-3.65 -0.81,0.58 -1.72,1.07 -2.88,1.31l3.87 10.5 1.72 -4.71z"/>
   <path fill="#99E4FC" d="M25.7 98.25c3.69,-0.07 4.07,-6.67 0.27,-7.23 -0.84,0.13 -0.83,0.25 -1.25,1.24 -0.28,0.69 -0.48,1.45 -0.49,2.28 -0.02,1.5 0.49,3.02 1.47,3.71z"/>
   <path fill="#62DAFA" d="M25.7 98.25c-0.98,-0.69 -1.49,-2.21 -1.47,-3.71 0.01,-0.83 0.21,-1.59 0.49,-2.28 0.42,-0.99 0.41,-1.11 1.25,-1.24 -2.29,-1.48 -5.09,1.32 -5.13,3.52 -0.04,2.44 2.92,5.14 4.86,3.71z"/>
   <path fill="#FD646F" d="M25.66 78.72c-1.57,-0.61 -1.71,-3.57 -1.04,-5.32 0.42,-1.09 0.7,-1.06 1.16,-1.16 -2.33,-1.45 -4.97,0.97 -4.93,3.28 0.02,1.35 0.61,2.27 1.48,2.91 0.77,0.57 2.39,1.16 3.33,0.29z"/>
   <path fill="#FD8087" d="M25.66 78.72c1.37,-0.11 2.42,-1.54 2.43,-3.19 0.02,-1.64 -1.07,-3.04 -2.31,-3.29 -0.46,0.1 -0.74,0.07 -1.16,1.16 -0.67,1.75 -0.53,4.71 1.04,5.32z"/>
   <path fill="#F5A86B" d="M49.95 49.6c0.14,1.31 0.7,2.49 1.11,3.65l0.9 2.65c0.56,1.08 -0.14,0.28 0.7,0.8l1.87 -5.82c-1.6,-0.3 -2.7,-1.19 -3.7,-1.86l-0.88 0.58z"/>
   <path fill="#FD646F" d="M85.28 118.43l4.74 -0.03 -0.02 -4.69c-2.35,0.64 -4.15,2.24 -4.72,4.72z"/>
   <path fill="#FD646F" d="M11.66 16.06c2.37,-0.67 4.12,-2.2 4.72,-4.72l-4.74 0.03 0.02 4.69z"/>
   <path fill="#FD646F" d="M11.63 118.31l4.75 0.14c-0.59,-2.53 -2.35,-4.08 -4.67,-4.74l-0.08 4.6z"/>
   <path fill="#FD646F" d="M89.96 16.06l0.07 -4.6 -4.75 -0.14c0.57,2.51 2.38,4.08 4.68,4.74z"/>
   <path fill="black" d="M55.9 43.63c0.48,-0.6 1.07,-0.63 1.07,-1.81 0,-1.18 -0.6,-1.19 -1.07,-1.8 -3.72,-0.24 -3.61,3.91 0,3.61z"/>
  </g>
 </g>
</svg>
