<?xml version="1.0" encoding="UTF-8"?>
<!DOCTYPE svg PUBLIC "-//W3C//DTD SVG 1.1//EN" "http://www.w3.org/Graphics/SVG/1.1/DTD/svg11.dtd">
<!-- Creator: CorelDRAW -->
<svg xmlns="http://www.w3.org/2000/svg" xml:space="preserve" width="1600px" height="1381px" version="1.1" shape-rendering="geometricPrecision" text-rendering="geometricPrecision" image-rendering="optimizeQuality" fill-rule="evenodd" clip-rule="evenodd"
viewBox="0 0 404.39 349.16"
 xmlns:xlink="http://www.w3.org/1999/xlink"
 xmlns:xodm="http://www.corel.com/coreldraw/odm/2003">
 <g id="Слой_x0020_1">
  <metadata id="CorelCorpID_0Corel-Layer"/>
  <g id="_1929641659952">
   <path fill="black" d="M164.88 312.02c2.48,4.16 3.29,3.94 9.64,3.92l126.4 -0.02c8.7,0 19.38,1.7 23.53,-4.06 3.6,-4.99 1.68,-43.97 1.89,-53.49l66.2 -0.01 -0.09 77.36c-1.13,2.63 -3.97,1.41 -10.97,1.4l-369.43 -0.03 -0.21 -78.72 66.23 -0.04 0.08 48.95c1.42,6.15 4.73,8.54 11.85,8.66l52.95 -0.06c4.2,-0.39 4.15,-1.23 5.72,-3.86 0.13,-7.15 -2.88,-7.99 -9.63,-7.97l-49.11 0.03 0.11 -45.71 224.42 0 -0.06 45.71 -137.48 -0.01c-7.36,-0.04 -12.33,-0.52 -12.04,7.95zm239.51 -4.73l0 31.61c-1,9.68 -5.11,10.25 -19.75,10.25l-365.68 0c-11.05,0 -18.41,0.68 -18.96,-10.24l0 -72.69c0,-19.49 0.28,-19.75 20.54,-19.75 0,-13.46 -1.32,-25.48 1.86,-36.05l25.49 -85.08c6.15,-20.85 6.51,-20.25 28.72,-20.25 0,-20.53 0.01,-41.07 0,-61.6 0,-8.69 -1.81,-18.71 11.81,-18.99 9.9,-0.21 20.12,0.03 30.05,0.03 16.42,0 34.92,-3.7 39.77,6.05 2.69,5.41 1.3,65.27 1.3,74.51l79.77 0 0 -13.42c-70.83,0 -67.13,6.25 -67.13,-25.28 0,-69.98 -6.53,-66.34 26.06,-66.34 40.81,0 81.62,0 122.43,0 32.66,0 26.06,-4.24 26.06,66.34 0,31.42 4.31,25.28 -66.35,25.28l0 13.42c10.51,0 59.53,-1.45 64.83,0.73 3.33,1.38 6.77,4.97 7.97,8.62 1.3,3.96 2.48,8.83 3.72,12.87 2.44,7.98 6.42,17.78 6.42,25.96 -2.04,1.37 -1.33,1.5 -3.95,2.64 -8.47,0.34 -7.62,-4.32 -11.51,-17.17 -1.57,-5.2 -4.67,-17.61 -6.86,-21.57l-181.96 -0.34 0.05 15.45c3.8,0.43 7.2,0.15 8.72,3.32 1.86,3.85 -0.24,7.41 -3.32,8.35 -2.79,0.86 -66.77,0.36 -72.86,0.37 -7.39,-0.02 -28.79,3.1 -23.93,-8.6 1.35,-3.24 4.28,-3.2 8.63,-3.26l0.29 -15.6 -13.24 0.07 -28.71 94.55 333.38 0.12c1.6,-0.3 1.16,-0.69 0.58,-1.65 0.24,-4.28 -4.18,-15.99 -5.61,-20.82 -2.26,-7.67 -6.76,-14.7 1.09,-18.23 4.68,-0.59 6.09,1.3 7.44,4.94l8.25 27.29c1.06,3.15 1.66,5.76 2.78,9.07 2.31,6.83 1.27,26.16 1.27,34.27 20.34,0 20.54,0.19 20.54,20.54l0 0.63 0 0.63 0 0.62 0 0.63 0 0.63 0 0.63 0 0.63 0 0.63 0 0.63 0 0.63 0 0.63 0 0.63 0 0.63 0 0.63 0 0.63 0 0.63 0 0.63 0 0.63 0 0.62 0 0.63 0 0.63 0 0.63 0 0.63 0 0.63 0 0.63 0 0.63 0 0.63 0 0.63 0 0.63 0 0.63 0 0.63 0 0.63 0 0.63 0 0.63 0 0.62 0 0.63 0 0.63 0 0.63 0 0.63 0 0.63 0 0.63 0 0.63 0 0.63 0 0.63 0 0.63 0 0.63 0 0.63 0 0.63 0 0.63 0 0.63 0 0.62 0 0.63 0 0.63 0 0.63 0 0.63 0 0.63 0 0.63 0 0.63 0 0.63 0 0.63 0 0.63 0 0.63 0 0.63 0 0.63zm-334.52 -83.9l301.91 0.28 0 22.86 -301.91 0.01 -37.26 -0.26 0 -22.84 37.26 -0.05zm37.14 -186.6l39.74 0.14 0.78 5.76c-0.2,20.91 1.02,78.82 -0.21,89.67 -4.3,1.61 -35.69,0.64 -44.64,0.63 -4.38,0 -11.73,0.75 -14.38,-0.78l0.13 -95.41 18.58 -0.01zm144.16 54.56l16.82 0 0.03 10.59 -0.16 3.06 -16.66 -0.02 -0.03 -13.63zm-65.57 -79.25l146.15 -0.08c3.66,0.56 2,-0.98 3.01,1.45l0.08 65.41c-0.82,0.75 -0.04,0.92 -3.85,1 -20.38,0.42 -141.21,0.42 -146.65,-0.37 -1.13,-6.69 -0.17,-47.3 -0.32,-60.51 -0.1,-8.18 -0.34,-6.26 1.58,-6.9z"/>
   <path fill="#BAC9E0" d="M317.69 180.1c8.6,-5.29 16.35,5.35 9.35,9.59 -8.32,5.06 -17.31,-4.7 -9.35,-9.59zm-69.5 0c8.6,-5.3 16.36,5.36 9.35,9.6 -3.1,1.88 -8.57,1.4 -10.62,-0.61 -1.55,-1.52 -3.43,-6.09 1.27,-8.99zm-42.84 10.71c-11.11,0 -11.1,-11.84 -0.05,-11.84l19.8 0c11.11,0 11.14,11.84 0,11.84l-19.75 0zm89.18 -10.89c9.95,-4.94 15.82,6.14 9.03,9.97 -9.19,5.2 -16.78,-6.13 -9.03,-9.97zm-23.15 -0.16c8.9,-5.04 16.32,6.11 9.23,10.09 -9.05,5.09 -17.02,-5.69 -9.23,-10.09zm46.86 -22.79c9.31,-4.71 15.74,7.4 8.04,10.59 -10,4.13 -15.95,-6.59 -8.04,-10.59zm-69.5 0c9.33,-4.72 15.74,7.42 8.04,10.59 -10.03,4.13 -15.92,-6.61 -8.04,-10.59zm46.39 -0.13c10.47,-4.29 15.39,7.88 7.55,10.81 -10.14,3.78 -15.05,-7.74 -7.55,-10.81zm-23.26 0.27c10.6,-4.54 14.73,7.01 8.44,10.28 -9.13,4.75 -16.98,-6.62 -8.44,-10.28zm-68.21 -23.15c3.13,-0.81 13.47,-0.34 17.52,-0.34 14.35,0 12.14,6.14 12.09,22.83 -0.03,14.47 -7.35,11.63 -24,11.69 -5.9,0.02 -10.17,-0.62 -11.57,-5.64 -0.92,-3.29 -0.52,-13.17 -0.51,-17.14 0.01,-6.73 0.75,-9.91 6.47,-11.4zm115.34 0.03c10.8,-3.3 13.98,8.36 6.8,11 -10.35,3.81 -15.37,-8.39 -6.8,-11zm-69.5 0c10.81,-3.3 13.98,8.38 6.8,11.01 -10.36,3.79 -15.36,-8.4 -6.8,-11.01zm46.13 0.2c9.56,-4.18 14.92,7.98 7.24,10.76 -10.19,3.7 -15.78,-7.02 -7.24,-10.76zm-23.08 -0.11c10.52,-3.73 13.94,7.9 7.35,10.8 -10.27,4.52 -16.12,-7.69 -7.35,-10.8zm-180.92 10.24l-2.88 10.71c19.65,-0.09 39.3,-0.01 58.95,-0.02 10.22,0 18.38,-1.93 21.64,7.43 7.29,21 15.61,36.59 -6.62,36.49l-87.54 0 -3.22 11.24 296.67 -0.22c0.24,-4.28 -4.18,-15.99 -5.61,-20.82 -2.26,-7.67 -6.76,-14.7 1.09,-18.23 -0.97,-2.38 -1.66,-4.73 -2.37,-7.36 -0.77,-2.8 -1.63,-4.96 -2.37,-7.63 -8.47,0.34 -7.62,-4.32 -11.51,-17.17 -1.57,-5.2 -4.67,-17.61 -6.86,-21.57l-181.96 -0.34 0.05 15.45c3.8,0.43 7.2,0.15 8.72,3.32 1.86,3.85 -0.24,7.41 -3.32,8.35 -2.79,0.86 -66.77,0.36 -72.86,0.37z"/>
   <path fill="#BAC9E0" d="M164.88 312.02c-1.66,-1.87 -1.37,2.27 -1.39,-2.07l-13.33 0c-0.1,4.29 0.14,0.24 -1.49,2.07 -1.57,2.63 -1.52,3.47 -5.72,3.86l-52.95 0.06c-7.12,-0.12 -10.43,-2.51 -11.85,-8.66 -1.35,-1.16 -1.56,-2.17 -1.65,-5.51l0.11 -42.7 -30.8 0 -0.15 76.65 346.79 0 0.09 -77.36 -66.2 0.01c-0.21,9.52 1.71,48.5 -1.89,53.49 -4.15,5.76 -14.83,4.06 -23.53,4.06l-126.4 0.02c-6.35,0.02 -7.16,0.24 -9.64,-3.92z"/>
   <path fill="#98AFD1" d="M180.08 280.06c-11.47,0 -11.32,-11.84 0,-11.84l44.23 0c11.3,0 11.45,11.84 0,11.84l-44.23 0zm-31.41 31.96c1.63,-1.83 1.39,2.22 1.49,-2.07l13.33 0c0.02,4.34 -0.27,0.2 1.39,2.07 -0.29,-8.47 4.68,-7.99 12.04,-7.95l137.48 0.01 0.06 -45.71 -224.42 0 -0.11 45.71 49.11 -0.03c6.75,-0.02 9.76,0.82 9.63,7.97z"/>
   <polygon fill="#ACBFDB" points="69.87,246.54 371.78,246.53 371.78,223.67 69.87,223.39 "/>
   <path fill="black" d="M275.64 70.48c2.63,-1.28 3.63,-2.16 4.3,-5.51 -0.96,-6.21 -3.37,-6.26 -9.79,-6.24 -5.01,0.03 -10.02,0.03 -15.04,0.03 -10.27,0 -20.53,0 -30.8,0l-19.24 0 0.06 -25.44c0.68,-0.38 0.47,-0.49 1.82,-0.74 4.68,-0.89 105,-0.14 107.1,0.14 1.18,3.93 1.31,22.57 -0.14,26.24l-14.13 0.24c-3.03,1.21 -3.35,1.92 -3.95,5.78 1.56,7.8 9.96,5.63 17.74,5.64 15.85,0.03 12.31,-7.88 12.35,-33.45 0.02,-8.99 1.03,-12.87 -6.05,-15.98 -25.98,-1.27 -68.23,-0.16 -97.14,-0.16 -34.02,0 -29.31,-4.37 -29.5,35.1 -0.08,14.89 3.64,14.53 17.65,14.46 21.42,-0.12 43.43,0.55 64.76,-0.11z"/>
   <path fill="#ACBFDB" d="M392.45 335.72l-346.79 0 0.15 -76.65 30.8 0 -0.11 42.7c0.09,3.34 0.3,4.35 1.65,5.51l-0.08 -48.95 -66.23 0.04 0.21 78.72 369.43 0.03c7,0.01 9.84,1.23 10.97,-1.4z"/>
   <path fill="black" d="M158.51 168.28l6.01 17.38c-1.58,1.86 0.01,0.72 -2.62,1.39l-90.46 -0.06 6.05 -20.13 71.79 -0.05c2.74,-0.02 8.29,-1.08 9.23,1.47zm-83.33 30.65l87.54 0c22.23,0.1 13.91,-15.49 6.62,-36.49 -3.26,-9.36 -11.42,-7.43 -21.64,-7.43 -19.65,0.01 -39.3,-0.07 -58.95,0.02 -21.66,-0.14 -20.21,-0.7 -25.69,18.63 -1.35,4.75 -4.88,13.47 -3.74,18.12 1.72,6.96 7.86,7.11 15.86,7.15z"/>
   <path fill="#F0F9FE" d="M119.85 113.48c2.4,-1.35 12.62,-1.4 15.53,-0.07 4.38,2.01 4.33,8.81 -0.36,10.59 -2.35,0.9 -12.53,0.88 -14.83,-0.1 -4.21,-1.79 -4.95,-7.84 -0.34,-10.42zm-0.13 -19.82c2.38,-1.32 12.8,-1.38 15.72,-0.06 4.4,1.98 4.2,8.77 -0.5,10.59 -2.38,0.92 -12.35,0.89 -14.68,-0.11 -4.05,-1.73 -5.21,-7.84 -0.54,-10.42zm1.57 -20.2c2.37,-0.86 11.88,-0.83 14.24,0.34 4.5,2.22 3.86,9.03 -0.72,10.59 -3.22,1.1 -13.11,1.02 -15.61,-0.57 -4.49,-2.84 -3.07,-8.47 2.09,-10.36zm-14.01 -25.09c4.47,-1.17 9.46,-0.79 14.39,-0.8 4.37,-0.01 8.66,0.15 8.98,5.41 0.6,9.9 -15.32,5.77 -22.25,6.55 -2.35,1.57 -1.45,4.15 -1.43,7.65 0.02,3.38 -0.45,4.61 0.95,7.6 0.47,3.97 0.61,4.27 -0.05,8.39 -1.37,3.3 -1.41,8.14 0.02,11.42 0.57,3.54 0.58,4.83 0.01,8.39 -1.46,3.28 -1.38,8.12 -0.04,11.43 0.61,3.8 0.53,4.66 0.07,8.39 -1.48,3.08 -0.92,5.87 -0.92,9.44l39.74 0 0 -95.31 -39.74 -0.14 0.27 11.58z"/>
   <path fill="#ACBFDB" d="M368.63 209.95l-296.67 0.22 3.22 -11.24c-8,-0.04 -14.14,-0.19 -15.86,-7.15 -1.14,-4.65 2.39,-13.37 3.74,-18.12 5.48,-19.33 4.03,-18.77 25.69,-18.63l2.88 -10.71c-7.39,-0.02 -28.79,3.1 -23.93,-8.6 1.35,-3.24 4.28,-3.2 8.63,-3.26l0.29 -15.6 -13.24 0.07 -28.71 94.55 333.38 0.12c1.6,-0.3 1.16,-0.69 0.58,-1.65z"/>
   <path fill="#01C0FA" d="M224.31 58.76c10.27,0 20.53,0 30.8,0 5.02,0 10.03,0 15.04,-0.03 6.42,-0.02 8.83,0.03 9.79,6.24l15.89 0.01c0.6,-3.86 0.92,-4.57 3.95,-5.78 3.18,-1.75 10.37,-0.95 14.04,-0.95l0 -24.99 -89.51 0.03 0 25.47z"/>
   <path fill="#BAC9E0" d="M319.87 21.19c7.08,3.11 6.07,6.99 6.05,15.98 -0.04,25.57 3.5,33.48 -12.35,33.45 -7.78,-0.01 -16.18,2.16 -17.74,-5.64l-15.89 -0.01c-0.67,3.35 -1.67,4.23 -4.3,5.51l-64.69 1.44 0 7.07 123.89 -0.11 -0.08 -65.41 -123.81 0 0 6.33 105.82 0.06c3.75,0.78 1.6,0.23 3.1,1.33z"/>
   <path fill="#DEF5FC" d="M88.3 132.21l18.71 0.03c0,-3.57 -0.56,-6.36 0.92,-9.44 -3.97,1.69 -10.98,2.6 -10.86,-4.26 0.12,-6.92 6.94,-5.64 10.79,-4.13 -1.34,-3.31 -1.42,-8.15 0.04,-11.43 -3.89,1.6 -10.84,2.78 -10.82,-4.2 0.01,-6.96 6.93,-5.76 10.81,-4.19 -1.43,-3.28 -1.39,-8.12 -0.02,-11.42 -3.87,1.53 -10.72,2.78 -10.8,-4.16 -0.08,-6.84 6.89,-5.9 10.85,-4.23 -1.4,-2.99 -0.93,-4.22 -0.95,-7.6 -0.02,-3.5 -0.92,-6.08 1.43,-7.65l-1.45 -1.27c-0.65,-0.68 -0.42,-0.12 -1.15,-1.37 -2.14,-3.66 -0.02,-6.58 1.48,-8.52l-0.27 -11.58 -18.58 0.01 -0.13 95.41z"/>
   <path fill="#ABBEDA" d="M210.95 78.99l0 -7.07 64.69 -1.44c-21.33,0.66 -43.34,-0.01 -64.76,0.11 -14.01,0.07 -17.73,0.43 -17.65,-14.46 0.19,-39.47 -4.52,-35.1 29.5,-35.1 28.91,0 71.16,-1.11 97.14,0.16 -1.5,-1.1 0.65,-0.55 -3.1,-1.33l-105.82 -0.06 0 -6.33 123.81 0c-1.01,-2.43 0.65,-0.89 -3.01,-1.45l-146.15 0.08c-2.12,5.15 -0.82,56.97 -0.82,66.89l26.17 0z"/>
   <polygon fill="#A1E42E" points="164.52,185.66 158.51,168.28 96.03,168.28 90.64,185.67 91.62,185.66 "/>
   <path fill="black" d="M209.2 145.48l12.19 0 -0.18 10.8 -12.1 0 0.09 -10.8zm-5.54 -11.52c-5.72,1.49 -6.46,4.67 -6.47,11.4 -0.01,3.97 -0.41,13.85 0.51,17.14 1.4,5.02 5.67,5.66 11.57,5.64 16.65,-0.06 23.97,2.78 24,-11.69 0.05,-16.69 2.26,-22.83 -12.09,-22.83 -4.05,0 -14.39,-0.47 -17.52,0.34z"/>
   <polygon fill="#99B0D3" points="69.87,246.54 69.87,223.39 32.61,223.44 32.61,246.28 "/>
   <path fill="black" d="M180.08 280.06l44.23 0c11.45,0 11.3,-11.84 0,-11.84l-44.23 0c-11.32,0 -11.47,11.84 0,11.84z"/>
   <path fill="#97D729" d="M164.52 185.66l-72.9 0 -0.98 0.01 5.39 -17.39 62.48 0c-0.94,-2.55 -6.49,-1.49 -9.23,-1.47l-71.79 0.05 -6.05 20.13 90.46 0.06c2.63,-0.67 1.04,0.47 2.62,-1.39z"/>
   <polygon fill="#08A9F1" points="224.31,58.76 224.31,33.29 205.13,33.32 205.07,58.76 "/>
   <path fill="black" d="M205.35 190.81l19.75 0c11.14,0 11.11,-11.84 0,-11.84l-19.8 0c-11.05,0 -11.06,11.84 0.05,11.84z"/>
   <path fill="black" d="M107.28 48.37c-1.5,1.94 -3.62,4.86 -1.48,8.52 0.73,1.25 0.5,0.69 1.15,1.37l1.45 1.27c6.93,-0.78 22.85,3.35 22.25,-6.55 -0.32,-5.26 -4.61,-5.42 -8.98,-5.41 -4.93,0.01 -9.92,-0.37 -14.39,0.8z"/>
   <path fill="black" d="M121.29 73.46c-5.16,1.89 -6.58,7.52 -2.09,10.36 2.5,1.59 12.39,1.67 15.61,0.57 4.58,-1.56 5.22,-8.37 0.72,-10.59 -2.36,-1.17 -11.87,-1.2 -14.24,-0.34z"/>
   <path fill="black" d="M119.72 93.66c-4.67,2.58 -3.51,8.69 0.54,10.42 2.33,1 12.3,1.03 14.68,0.11 4.7,-1.82 4.9,-8.61 0.5,-10.59 -2.92,-1.32 -13.34,-1.26 -15.72,0.06z"/>
   <path fill="black" d="M119.85 113.48c-4.61,2.58 -3.87,8.63 0.34,10.42 2.3,0.98 12.48,1 14.83,0.1 4.69,-1.78 4.74,-8.58 0.36,-10.59 -2.91,-1.33 -13.13,-1.28 -15.53,0.07z"/>
   <polygon fill="#98AFD1" points="251.2,104.98 267.86,105 268.02,101.94 267.99,91.35 251.17,91.35 "/>
   <path fill="#707988" d="M334.84 78.88l-123.89 0.11 -26.17 0c0,-9.92 -1.3,-61.74 0.82,-66.89 -1.92,0.64 -1.68,-1.28 -1.58,6.9 0.15,13.21 -0.81,53.82 0.32,60.51 5.44,0.79 126.27,0.79 146.65,0.37 3.81,-0.08 3.03,-0.25 3.85,-1z"/>
   <path fill="black" d="M271.38 179.76c-7.79,4.4 0.18,15.18 9.23,10.09 7.09,-3.98 -0.33,-15.13 -9.23,-10.09z"/>
   <path fill="black" d="M248.74 156.97c-7.88,3.98 -1.99,14.72 8.04,10.59 7.7,-3.17 1.29,-15.31 -8.04,-10.59z"/>
   <path fill="black" d="M318.24 156.97c-7.91,4 -1.96,14.72 8.04,10.59 7.7,-3.19 1.27,-15.3 -8.04,-10.59z"/>
   <path fill="black" d="M294.53 179.92c-7.75,3.84 -0.16,15.17 9.03,9.97 6.79,-3.83 0.92,-14.91 -9.03,-9.97z"/>
   <path fill="black" d="M272.55 134.08c-8.77,3.11 -2.92,15.32 7.35,10.8 6.59,-2.9 3.17,-14.53 -7.35,-10.8z"/>
   <path fill="black" d="M295.13 156.84c-7.5,3.07 -2.59,14.59 7.55,10.81 7.84,-2.93 2.92,-15.1 -7.55,-10.81z"/>
   <path fill="black" d="M271.87 157.11c-8.54,3.66 -0.69,15.03 8.44,10.28 6.29,-3.27 2.16,-14.82 -8.44,-10.28z"/>
   <path fill="black" d="M295.63 134.19c-8.54,3.74 -2.95,14.46 7.24,10.76 7.68,-2.78 2.32,-14.94 -7.24,-10.76z"/>
   <path fill="black" d="M319 133.99c-8.57,2.61 -3.55,14.81 6.8,11 7.18,-2.64 4,-14.3 -6.8,-11z"/>
   <path fill="black" d="M249.5 133.99c-8.56,2.61 -3.56,14.8 6.8,11.01 7.18,-2.63 4.01,-14.31 -6.8,-11.01z"/>
   <path fill="black" d="M317.69 180.1c-7.96,4.89 1.03,14.65 9.35,9.59 7,-4.24 -0.75,-14.88 -9.35,-9.59z"/>
   <path fill="black" d="M248.19 180.1c-4.7,2.9 -2.82,7.47 -1.27,8.99 2.05,2.01 7.52,2.49 10.62,0.61 7.01,-4.24 -0.75,-14.9 -9.35,-9.6z"/>
   <path fill="#005E7B" d="M224.31 33.29l89.51 -0.03 0 24.99c-3.67,0 -10.86,-0.8 -14.04,0.95l14.13 -0.24c1.45,-3.67 1.32,-22.31 0.14,-26.24 -2.1,-0.28 -102.42,-1.03 -107.1,-0.14 -1.35,0.25 -1.14,0.36 -1.82,0.74l19.18 -0.03z"/>
   <path fill="#747A7B" d="M107.01 132.24l-18.71 -0.03c2.65,1.53 10,0.78 14.38,0.78 8.95,0.01 40.34,0.98 44.64,-0.63 1.23,-10.85 0.01,-68.76 0.21,-89.67l-0.78 -5.76 0 95.31 -39.74 0z"/>
   <polygon fill="#01C0FA" points="209.11,156.28 221.21,156.28 221.39,145.48 209.2,145.48 "/>
   <path fill="black" d="M107.9 102.98c0.57,-3.56 0.56,-4.85 -0.01,-8.39 -3.88,-1.57 -10.8,-2.77 -10.81,4.19 -0.02,6.98 6.93,5.8 10.82,4.2z"/>
   <path fill="black" d="M107.87 83.17c0.66,-4.12 0.52,-4.42 0.05,-8.39 -3.96,-1.67 -10.93,-2.61 -10.85,4.23 0.08,6.94 6.93,5.69 10.8,4.16z"/>
   <path fill="black" d="M107.93 122.8c0.46,-3.73 0.54,-4.59 -0.07,-8.39 -3.85,-1.51 -10.67,-2.79 -10.79,4.13 -0.12,6.86 6.89,5.95 10.86,4.26z"/>
  </g>
 </g>
</svg>
