<?xml version="1.0" encoding="UTF-8"?>
<!DOCTYPE svg PUBLIC "-//W3C//DTD SVG 1.1//EN" "http://www.w3.org/Graphics/SVG/1.1/DTD/svg11.dtd">
<!-- Creator: CorelDRAW -->
<svg xmlns="http://www.w3.org/2000/svg" xml:space="preserve" width="1502px" height="1601px" version="1.1" shape-rendering="geometricPrecision" text-rendering="geometricPrecision" image-rendering="optimizeQuality" fill-rule="evenodd" clip-rule="evenodd"
viewBox="0 0 3187.55 3398.98"
 xmlns:xlink="http://www.w3.org/1999/xlink"
 xmlns:xodm="http://www.corel.com/coreldraw/odm/2003">
 <g id="Слой_x0020_1">
  <metadata id="CorelCorpID_0Corel-Layer"/>
  <g id="_2216901740208">
   <path fill="black" stroke="black" stroke-width="4.24" stroke-miterlimit="22.9256" d="M349.55 3198.33l2732.43 -0.02 0.75 99.1 -2735.85 -0.02 -241.89 -0.01 0.22 -99.03 244.34 -0.02zm2752.49 198.52l-506.86 0c-667.59,0 -1335.19,0 -2002.78,0l-509.31 0c-84.93,-6.5 -80.46,-74.86 -80.96,-165.83 -0.55,-98.35 13.56,-132.59 112.78,-132.59l0 -1810.47c0.03,-98.07 10.03,-72.39 -24.41,-134.75 -43.75,-79.2 -35.25,-172 -35.28,-289.68 -0.03,-124.03 -2.05,-185.69 139.27,-185.69 0,-185.54 -39.04,-344.09 141.75,-415.32 80.67,-31.78 412.71,-15.74 534.69,-15.74 10.29,-123.69 119.63,-231.59 239.46,-244.66l966.8 0c119.83,13.07 229.17,120.97 239.46,244.66 123.07,0 460.88,-15.85 539.34,17.72 175.1,74.91 137.1,219.92 137.1,413.34 145.17,0 139.3,-0.59 139.26,145.9 -0.02,83.55 6.3,199.3 -10.69,267.84 -33.43,134.82 -48.99,-6.84 -48.99,236.17 0,130.99 21.04,210.73 -56.08,225.48 -22.11,-14.59 -35.38,-10.85 -43.99,-38.71 -6.49,-20.99 -2.97,-213.52 -2.91,-243.21l-82.75 18.15 -96.05 -8.29 -0.01 691.18 89.33 0.02 89.35 0.01c0,-57.93 0.1,-115.87 -0.01,-173.79 -0.23,-112.82 -0.24,-88.36 47.04,-119.36 67.12,12.84 56.13,57.24 56.08,132.64l0 1286.56c103.59,0 113.1,37.45 112.76,139.24 -0.31,91.03 1.91,153.43 -83.39,159.18zm-133.25 -1313.11l0.77 1015.16 -2529.59 -0.04 -221.92 0.01 0.07 -1027.06c885.14,0 1784.96,5.39 2668.87,-0.3 38.44,-0.25 65.07,-6.77 81.8,12.23zm-744.6 -111.22l-128.42 -0.02 -85.8 0.44c-9.51,-19.01 -7.82,-53.03 -2.97,-79.45l220.99 -2.42 3.05 60.4c-1.9,16.39 1.81,-3.49 -2.2,11.62l-4.65 9.43zm-523.48 0.15l-129.11 -0.22 -84.19 -0.09 -6.9 -34.22c-0.23,-16.06 0.54,-28.43 3.16,-44.07l220.56 -2.51c4.23,27.58 7.84,60.01 -3.52,81.11zm-522.79 0.46l-129.87 -0.7 -83.21 -0.44 -7.66 -33.85c-0.24,-15.3 0.62,-28.77 2.94,-43.71l220.64 -3 -2.84 81.7zm-830.81 -684.36l49.46 -7.97 0.2 691.58 -89.68 -0.01 -89.02 -0.02 0 -701.43c54.61,12.3 66.33,20.78 129.04,17.85zm2044.28 425.58l94.54 254.5 -158.81 3.9c0,-198.84 -18.42,-178.09 -209.42,-178.09 -193.79,0 -210.31,-22.2 -210.31,177.73l-103.87 0c0.14,-199.36 -17.26,-177.73 -209.73,-177.73 -192.5,0 -209.87,-21.64 -209.87,177.73l-102.65 0c-2.76,-208.19 -1.18,-178.09 -306.19,-177.71 -129.06,-0.16 -114.63,61.46 -114.63,177.69l-158.85 -0.74 94.83 -261.95c16.95,-10.09 1334.16,-3.21 1547.03,-3.73 5.69,-0.01 21.15,0.05 26.13,0.87 46.08,7.64 -29.7,-9.26 11.45,2.95l10.35 4.58zm-1812.26 256.68l-79.58 0 0 -736.12c0,-24.26 17.96,-14.32 26.53,-46.43 35.15,9.39 168.85,204.01 387.61,42.76 19.06,-14.05 30.53,-19.2 36.82,-42.76 31.8,8.49 137.23,172.02 340.14,74.87 48.75,-23.34 78.56,-65.81 90.92,-74.87 15.67,10.49 8.83,7.18 20.7,19.1 0.96,0.97 2.29,2.41 3.26,3.37 97.99,97.34 253.71,113.45 359.37,16 5.21,-4.8 5.15,-4.47 10.42,-9.46l30.68 -29.01c17.21,12.61 17.22,23.03 39.57,40.02 95.78,72.85 185.09,86.38 296.57,30.85 68.2,-33.97 54.86,-60.17 94.93,-70.87 13.51,50.61 137.42,109.16 211.3,105.27 138.09,-7.26 177.82,-95.84 213.13,-105.27 8.57,32.11 26.53,22.17 26.53,46.43l0 736.12c-127.35,0 -84.28,15.34 -126.96,-98.52 -12.62,-33.65 -26.18,-72.35 -37.99,-107.91 -21.89,-65.94 -42.32,-158.32 -133.48,-158.32l-1591.62 0c-108.38,0 -125.31,143.11 -171.47,266.23 -18.73,49.97 -21.51,98.52 -47.38,98.52zm2208.24 -1190.17l240.94 -0.01c0,65.2 7.67,232.58 -4.71,285.55 -17.24,73.79 -80.71,121.51 -165.97,124.16 -198.54,-21.88 -155.79,-221.4 -155.79,-409.4l85.53 -0.3zm-2539.96 0l238.34 0.8c0,189.06 43.37,399.14 -168.08,408.98 -201.41,-17.95 -158.38,-231.5 -158.38,-409.77l88.12 -0.01zm1504.55 273.9c-3.17,75.49 -78.9,134.13 -162.71,135.53 -78.48,-6.57 -151.9,-61.87 -153.31,-135.71 -17.74,-21.36 -14.45,-236.87 -4.81,-276.26l325.58 1.86c9.52,35.1 9.76,253.33 -4.75,274.58zm-425.26 4.64c-4.69,73.7 -78.25,129.91 -161.55,130.85 -79.91,-6.81 -150.92,-62.31 -152.63,-138.08 -16.35,-15.15 -12.81,-237.13 -5.25,-273.72l325.6 1.14c9.2,30.24 11.48,270.72 -6.17,279.81zm1036.37 -278.53l241.46 -0.01c0,182.66 43.74,403.76 -171.15,409.67 -197.24,-21.44 -155.31,-222.5 -155.33,-409.01l85.02 -0.65zm-508.58 8.98c8.92,-14.45 -1.3,-7.96 17.63,-12.3l308.68 2.98c9.37,37.26 9.74,244.94 -3.58,269.53 -6.61,80.77 -76.43,138.55 -163.47,140.24 -198.1,-15.59 -162.05,-219.83 -159.26,-400.45zm-1112.51 400.82c-202.34,-18.3 -158.93,-229.75 -158.93,-409.79l88.93 -0.01 237.53 1.78c0,186.34 42.75,397.18 -167.53,408.02zm535.41 -1089.75c110.94,-0.45 751.62,-8.04 807.96,6.01 96.65,24.11 169.13,140.28 111.56,252.13 -85.13,165.4 -241.42,34.01 -261.27,146.63 13.6,59.3 53.25,51.12 116.02,47.9 103.43,-5.3 197.2,-66.78 237.18,-155.37 10.89,-24.15 7,-35.4 27.81,-47.58 148.5,0 303.55,-4.38 451.22,-0.05 69.61,2.04 117.17,38.02 125.17,102.13 4.74,38.03 4.58,183.31 -0.21,220.37 -17.73,15.08 -55.55,8.68 -78.79,8.57l-2517.41 -0.25c-11.2,-49.49 -8.92,-242.58 14.8,-278 47.86,-71.46 154.12,-53.53 250.23,-52.59l309.27 -0.18c19.4,11.33 4.67,-6.69 18.6,23.66 82.16,179.01 187.39,179.72 372.67,179.72l437.71 0.05c58.31,0.33 89.05,9.04 102.46,-48.38 -10.05,-56.46 -37.17,-51.49 -95.7,-51.17 -48.67,0.26 -97.37,0.08 -146.04,0.08 -95.35,0 -190.72,0.15 -286.07,-0.06 -74.3,0.15 -162.02,10.87 -219.98,-26.62 -126.04,-81.54 -98.24,-247.76 5.09,-304.03 57.19,-31.14 143.88,-23.2 217.72,-22.97z"/>
   <path fill="#FDE803" stroke="#FDE803" stroke-width="4.24" stroke-miterlimit="22.9256" d="M1453.03 2809.72c-11.43,17.82 -123.12,14.38 -136.33,0.06 3.04,61.78 -47.68,58.64 -100.9,58.33 -83.77,-0.47 -461.59,-9.37 -487.44,8.33 -7.01,4.79 -12.64,12.71 -20.08,19.37 -57.58,51.58 -129.65,128.78 -178.93,73.18 -32.69,-36.88 35.02,-321.08 52.49,-406 13.93,-67.7 -30.41,-56.82 -36.38,-121.32 -5.1,-55.12 23.38,-95.73 52.93,-113.3 59.17,-35.18 43.89,-48.22 79.4,-86.3 108.81,-116.7 342.05,-107.18 423.67,73.39l1274.93 -0.08c300.23,1.01 370.34,314.05 217.91,470.47 -87.39,89.67 -191.64,82.21 -343.97,82.21l-636.65 0c-67.22,0 -164.52,21.63 -160.65,-58.34zm-1013.06 289.14l2529.59 0.04 -0.77 -1015.16 -2528.82 0 0 1015.12z"/>
   <path fill="black" stroke="black" stroke-width="4.24" stroke-miterlimit="22.9256" d="M725.39 2746.33c-14.85,16.8 -72.53,67.97 -91.25,78.72l45.73 -248.98c10.58,4.94 53.71,26.31 63.52,34.03 28.37,-1 23.67,5.47 42,23.44 17.21,16.88 22.24,15.9 38.59,27.19 -15.4,17.91 -78.38,74.63 -98.59,85.6zm285.61 -384.06c57.97,48.27 -33.55,187.3 -33.55,187.3 -9.24,40.54 19.14,39.07 -2.92,62.1 -30.21,30.16 -30.89,-14.19 -46.48,-34.38 -20.02,-25.91 -47.53,-13.75 -80.21,-14.69 -8.67,-22.76 -9.6,-49.19 -40.21,-57.19 -37.91,-9.91 -52.15,20.63 -60.07,-19.16 -18.15,-18.76 -8.64,-29.63 -37.28,-37.2 -36.33,-9.61 -32.14,10.89 -58.3,-7.29 -21.95,-34.5 8.41,-30.33 33.42,-39.75 26.94,-10.15 21.44,-16.32 34.47,-45.01 61.27,-134.94 254.24,-113.88 291.13,5.27zm305.7 447.51c-19.26,-60.1 -82.14,-41.15 -207.03,-41.15 -82.89,0 -165.78,0.07 -248.67,-0.03l6.6 -9.45c51.75,-59.94 68.15,-40.08 89.64,-38.96 135.94,7.07 121.88,-144.98 137.42,-174.13 22.34,-41.9 30.71,-72.54 31.47,-127.74 47.26,-10.71 972.41,-3.43 1104.31,-3.43 139.52,0 227.83,-21.34 305.18,66.64 74.22,84.4 33.24,204.89 -37.04,255.05 -69.07,49.3 -241.01,32.05 -341.09,32.05 -133.18,0 -527.2,-6.71 -649.84,-0.07 -38.2,2.06 -44.57,9.72 -54.62,41.16 -3.87,79.97 93.43,58.34 160.65,58.34l636.65 0c152.33,0 256.58,7.46 343.97,-82.21 152.43,-156.42 82.32,-469.46 -217.91,-470.47l-1274.93 0.08c-81.62,-180.57 -314.86,-190.09 -423.67,-73.39 -35.51,38.08 -20.23,51.12 -79.4,86.3 -29.55,17.57 -58.03,58.18 -52.93,113.3 5.97,64.5 50.31,53.62 36.38,121.32 -17.47,84.92 -85.18,369.12 -52.49,406 49.28,55.6 121.35,-21.6 178.93,-73.18 7.44,-6.66 13.07,-14.58 20.08,-19.37 25.85,-17.7 403.67,-8.8 487.44,-8.33 53.22,0.31 103.94,3.45 100.9,-58.33z"/>
   <path fill="#98E5FB" stroke="#98E5FB" stroke-width="4.24" stroke-miterlimit="22.9256" d="M2892.83 673.09c4.79,-37.06 4.95,-182.34 0.21,-220.37 -8,-64.11 -55.56,-100.09 -125.17,-102.13 -147.67,-4.33 -302.72,0.05 -451.22,0.05 -20.81,12.18 -16.92,23.43 -27.81,47.58 -39.98,88.59 -133.75,150.07 -237.18,155.37 -62.77,3.22 -102.42,11.4 -116.02,-47.9l-133.27 0c-13.41,57.42 -44.15,48.71 -102.46,48.38l-437.71 -0.05c-185.28,0 -290.51,-0.71 -372.67,-179.72 -13.93,-30.35 0.8,-12.33 -18.6,-23.66l-309.27 0.18c-31,51.77 -42.26,64.79 -42.41,141.25 -0.11,60.32 0.13,120.69 0.13,181.02l-13.2 0 2386.65 0z"/>
   <path fill="#FEFEFE" d="M1872.32 2541.83c45.08,0 397.83,-6.95 424.13,6.59 31.92,16.45 29.71,75.42 -9.65,88.97 -33.07,11.38 -498.14,3.86 -573.64,3.86 -48.33,0 -394.26,8.79 -423.5,-7.95 -36.37,-20.82 -31.73,-75.6 11.01,-88.32 43.35,-12.91 486.88,-3.15 571.65,-3.15zm-555.62 267.95c13.21,14.32 124.9,17.76 136.33,-0.06 10.05,-31.44 16.42,-39.1 54.62,-41.16 122.64,-6.64 516.66,0.07 649.84,0.07 100.08,0 272.02,17.25 341.09,-32.05 70.28,-50.16 111.26,-170.65 37.04,-255.05 -77.35,-87.98 -165.66,-66.64 -305.18,-66.64 -131.9,0 -1057.05,-7.28 -1104.31,3.43 -0.76,55.2 -9.13,85.84 -31.47,127.74 -15.54,29.15 -1.48,181.2 -137.42,174.13 -21.49,-1.12 -37.89,-20.98 -89.64,38.96l-6.6 9.45c82.89,0.1 165.78,0.03 248.67,0.03 124.89,0 187.77,-18.95 207.03,41.15z"/>
   <polygon fill="#98E5FB" stroke="#98E5FB" stroke-width="4.24" stroke-miterlimit="22.9256" points="346.88,3297.39 3082.73,3297.41 3081.98,3198.31 349.55,3198.33 "/>
   <path fill="#FDE803" d="M1203.87 221.76c114.37,-10.96 471.54,-2.37 628.66,-2.37 35.42,0 71.07,-0.49 106.44,-0.3 43.57,0.24 45.41,4.22 71.87,25.98 14.83,96.94 -68.84,73.74 -151.78,73.74 -143.76,0 -570.88,9.18 -655.92,-2.92 0.35,69.22 46.42,103.03 71.42,138.65 95.35,0.21 190.72,0.06 286.07,0.06 48.67,0 97.37,0.18 146.04,-0.08 58.53,-0.32 85.65,-5.29 95.7,51.17l133.27 0c19.85,-112.62 176.14,18.77 261.27,-146.63 57.57,-111.85 -14.91,-228.02 -111.56,-252.13 -56.34,-14.05 -697.02,-6.46 -807.96,-6.01 -13.67,19.62 -28.96,27.75 -44,50.81 -15.2,23.31 -22.66,40.87 -29.52,70.03z"/>
   <path fill="#F3D902" stroke="#F3D902" stroke-width="4.24" stroke-miterlimit="22.9256" d="M439.97 3098.86l0 -1015.12 2528.82 0c-16.73,-19 -43.36,-12.48 -81.8,-12.23 -883.91,5.69 -1783.73,0.3 -2668.87,0.3l-0.07 1027.06 221.92 -0.01z"/>
   <path fill="#EFF9FE" stroke="#EFF9FE" stroke-width="4.24" stroke-miterlimit="22.9256" d="M975.08 1794.68c305.01,-0.38 303.43,-30.48 306.19,177.71l102.65 0c0,-199.37 17.37,-177.73 209.87,-177.73 192.47,0 209.87,-21.63 209.73,177.73l103.87 0c0,-199.93 16.52,-177.73 210.31,-177.73 191,0 209.42,-20.75 209.42,178.09l158.81 -3.9 -94.54 -254.5c-52.26,12.85 -1301.08,4.46 -1392.41,4.67l-23.9 75.66z"/>
   <path fill="black" stroke="black" stroke-width="4.24" stroke-miterlimit="22.9256" d="M1300.67 2544.98c-42.74,12.72 -47.38,67.5 -11.01,88.32 29.24,16.74 375.17,7.95 423.5,7.95 75.5,0 540.57,7.52 573.64,-3.86 39.36,-13.55 41.57,-72.52 9.65,-88.97 -26.3,-13.54 -379.05,-6.59 -424.13,-6.59 -84.77,0 -528.3,-9.76 -571.65,3.15z"/>
   <path fill="#63DAF9" stroke="#63DAF9" stroke-width="4.24" stroke-miterlimit="22.9256" d="M2892.83 673.09l-2386.65 0 13.2 0c0,-60.33 -0.24,-120.7 -0.13,-181.02 0.15,-76.46 11.41,-89.48 42.41,-141.25 -96.11,-0.94 -202.37,-18.87 -250.23,52.59 -23.72,35.42 -26,228.51 -14.8,278l2517.41 0.25c23.24,0.11 61.06,6.51 78.79,-8.57z"/>
   <path fill="#01C0FA" d="M2433.38 1190.53c214.89,-5.91 171.15,-227.01 171.15,-409.67l-241.46 0.01c0,93.31 -13.54,269.52 21.3,340.05 6.15,12.47 16.4,28.18 22.82,36.77 10.1,13.53 17.46,16.54 26.19,32.84z"/>
   <path fill="#FE98A0" stroke="#FE98A0" stroke-width="4.24" stroke-miterlimit="22.9256" d="M2857.63 1190.56c85.26,-2.65 148.73,-50.37 165.97,-124.16 12.38,-52.97 4.71,-220.35 4.71,-285.55l-240.94 0.01c0,80.13 -1.76,162.22 -0.01,242.11 0.8,36.37 6.62,68.11 21.33,98.02 20.09,40.85 38.59,49.81 48.94,69.57z"/>
   <path fill="#FE98A0" stroke="#FE98A0" stroke-width="4.24" stroke-miterlimit="22.9256" d="M317.67 1190.64c211.45,-9.84 168.08,-219.92 168.08,-408.98l-238.34 -0.8c0,140.41 -23.14,286.95 44.31,376.75 9.97,13.27 17.5,16.65 25.95,33.03z"/>
   <path fill="#01C0FA" d="M741.98 1190.67c210.28,-10.84 167.53,-221.68 167.53,-408.02l-237.53 -1.78c0,80.1 -1.81,162.25 0.02,242.1 2.09,91.6 34.46,120 69.98,167.7z"/>
   <path fill="#FE98A0" stroke="#FE98A0" stroke-width="4.24" stroke-miterlimit="22.9256" d="M1165.15 1190.25c83.3,-0.94 156.86,-57.15 161.55,-130.85 10.76,-80.36 4.58,-190.77 4.58,-274.92l-236.48 0.13c0,100.68 -13.93,259.74 22.13,336.82 22.81,48.76 30.11,34.29 48.22,68.82z"/>
   <path fill="#FE98A0" stroke="#FE98A0" stroke-width="4.24" stroke-miterlimit="22.9256" d="M2013.75 1190.3c87.04,-1.69 156.86,-59.47 163.47,-140.24l0.7 -266.13 -234.26 0.08c0,115.31 -20.94,295.91 41.92,370.69 18.31,21.77 16.17,11.29 28.17,35.6z"/>
   <path fill="#01C0FA" d="M1589.25 1190.29c83.81,-1.4 159.54,-60.04 162.71,-135.53l2.39 -270.31 -235.21 0.13c0,78.7 -1.98,159.94 0.12,238.32 1.03,38.65 7.8,68.27 22.23,98.47 17.25,36.08 34.14,41.7 47.76,68.92z"/>
   <path fill="black" stroke="black" stroke-width="4.24" stroke-miterlimit="22.9256" d="M1203.14 315.89c85.04,12.1 512.16,2.92 655.92,2.92 82.94,0 166.61,23.2 151.78,-73.74 -26.46,-21.76 -28.3,-25.74 -71.87,-25.98 -35.37,-0.19 -71.02,0.3 -106.44,0.3 -157.12,0 -514.29,-8.59 -628.66,2.37 -14.28,14.7 -28.66,17.74 -30.05,44.91 -1.86,36.22 19.41,42.92 29.32,49.22z"/>
   <path fill="#FDE803" stroke="#FDE803" stroke-width="4.24" stroke-miterlimit="22.9256" d="M1274.56 454.54c-25,-35.62 -71.07,-69.43 -71.42,-138.65 -9.91,-6.3 -31.18,-13 -29.32,-49.22 1.39,-27.17 15.77,-30.21 30.05,-44.91 6.86,-29.16 14.32,-46.72 29.52,-70.03 15.04,-23.06 30.33,-31.19 44,-50.81 -73.84,-0.23 -160.53,-8.17 -217.72,22.97 -103.33,56.27 -131.13,222.49 -5.09,304.03 57.96,37.49 145.68,26.77 219.98,26.62z"/>
   <path fill="#98E5FB" stroke="#98E5FB" stroke-width="4.24" stroke-miterlimit="22.9256" d="M2886.94 1289.46c-17.5,44.1 -6.73,588.5 -6.73,682.91l89.35 0.01c0,-57.93 0.1,-115.87 -0.01,-173.79 -0.23,-112.82 -0.24,-88.36 47.04,-119.36l0 -126c-22.11,-14.59 -35.38,-10.85 -43.99,-38.71 -6.49,-20.99 -2.97,-213.52 -2.91,-243.21l-82.75 18.15z"/>
   <path fill="#DDF4FB" stroke="#DDF4FB" stroke-width="4.24" stroke-miterlimit="22.9256" d="M975.08 1794.68l23.9 -75.66c91.33,-0.21 1340.15,8.18 1392.41,-4.67l-10.35 -4.58c-41.15,-12.21 34.63,4.69 -11.45,-2.95 -4.98,-0.82 -20.44,-0.88 -26.13,-0.87 -212.87,0.52 -1530.08,-6.36 -1547.03,3.73l-94.83 261.95 158.85 0.74c0,-116.23 -14.43,-177.85 114.63,-177.69z"/>
   <path fill="#63DAF9" stroke="#63DAF9" stroke-width="4.24" stroke-miterlimit="22.9256" d="M307.09 1972.37l0 -671.15 20.03 -6.88c11.51,-3.47 6.13,1 19.99,-5.57 -62.71,2.93 -74.43,-5.55 -129.04,-17.85l0 701.43 89.02 0.02z"/>
   <path fill="#98E5FB" stroke="#98E5FB" stroke-width="4.24" stroke-miterlimit="22.9256" d="M347.11 1288.77c-13.86,6.57 -8.48,2.1 -19.99,5.57l-20.03 6.88 0 671.15 89.68 0.01 -0.2 -691.58 -49.46 7.97z"/>
   <path fill="#63DAF9" stroke="#63DAF9" stroke-width="4.24" stroke-miterlimit="22.9256" d="M2880.21 1972.37c0,-94.41 -10.77,-638.81 6.73,-682.91l-96.05 -8.29 -0.01 691.18 89.33 0.02z"/>
   <path fill="#FE98A0" stroke="#FE98A0" stroke-width="4.24" stroke-miterlimit="22.9256" d="M747.56 2486.25c7.92,39.79 22.16,9.25 60.07,19.16 30.61,8 31.54,34.43 40.21,57.19 32.68,0.94 60.19,-11.22 80.21,14.69 15.59,20.19 16.27,64.54 46.48,34.38 22.06,-23.03 -6.32,-21.56 2.92,-62.1 0,0 91.52,-139.03 33.55,-187.3 -64.39,-19.39 -122.31,-16.49 -174.82,11.85 -38.95,21.03 -84.96,64.76 -88.62,112.13z"/>
   <path fill="#08A9F1" d="M741.98 1190.67c-35.52,-47.7 -67.89,-76.1 -69.98,-167.7 -1.83,-79.85 -0.02,-162 -0.02,-242.1l-88.93 0.01c0,180.04 -43.41,391.49 158.93,409.79z"/>
   <path fill="#FD8087" stroke="#FD8087" stroke-width="4.24" stroke-miterlimit="22.9256" d="M2013.75 1190.3c-12,-24.31 -9.86,-13.83 -28.17,-35.6 -62.86,-74.78 -41.92,-255.38 -41.92,-370.69 -29.72,0.59 -61.51,-3.47 -89.17,5.84 -2.79,180.62 -38.84,384.86 159.26,400.45z"/>
   <path fill="#FD8087" stroke="#FD8087" stroke-width="4.24" stroke-miterlimit="22.9256" d="M317.67 1190.64c-8.45,-16.38 -15.98,-19.76 -25.95,-33.03 -67.45,-89.8 -44.31,-236.34 -44.31,-376.75l-88.12 0.01c0,178.27 -43.03,391.82 158.38,409.77z"/>
   <path fill="#FD8087" stroke="#FD8087" stroke-width="4.24" stroke-miterlimit="22.9256" d="M2857.63 1190.56c-10.35,-19.76 -28.85,-28.72 -48.94,-69.57 -14.71,-29.91 -20.53,-61.65 -21.33,-98.02 -1.75,-79.89 0.01,-161.98 0.01,-242.11l-85.53 0.3c0,188 -42.75,387.52 155.79,409.4z"/>
   <path fill="#08A9F1" d="M2433.38 1190.53c-8.73,-16.3 -16.09,-19.31 -26.19,-32.84 -6.42,-8.59 -16.67,-24.3 -22.82,-36.77 -34.84,-70.53 -21.3,-246.74 -21.3,-340.05l-85.02 0.65c0.02,186.51 -41.91,387.57 155.33,409.01z"/>
   <path fill="#08A9F1" d="M1435.94 1054.58c1.41,73.84 74.83,129.14 153.31,135.71 -13.62,-27.22 -30.51,-32.84 -47.76,-68.92 -14.43,-30.2 -21.2,-59.82 -22.23,-98.47 -2.1,-78.38 -0.12,-159.62 -0.12,-238.32l-85.81 0.5 2.61 269.5z"/>
   <path fill="#FD8087" stroke="#FD8087" stroke-width="4.24" stroke-miterlimit="22.9256" d="M1012.52 1052.17c1.71,75.77 72.72,131.27 152.63,138.08 -18.11,-34.53 -25.41,-20.06 -48.22,-68.82 -36.06,-77.08 -22.13,-236.14 -22.13,-336.82l-84.5 0.38 2.22 267.18z"/>
   <path fill="#FD8087" stroke="#FD8087" stroke-width="4.24" stroke-miterlimit="22.9256" d="M747.56 2486.25c3.66,-47.37 49.67,-91.1 88.62,-112.13 52.51,-28.34 110.43,-31.24 174.82,-11.85 -36.89,-119.15 -229.86,-140.21 -291.13,-5.27 -13.03,28.69 -7.53,34.86 -34.47,45.01 -25.01,9.42 -55.37,5.25 -33.42,39.75 26.16,18.18 21.97,-2.32 58.3,7.29 28.64,7.57 19.13,18.44 37.28,37.2z"/>
   <polygon fill="#63DAF9" stroke="#63DAF9" stroke-width="4.24" stroke-miterlimit="22.9256" points="346.88,3297.39 349.55,3198.33 105.21,3198.35 104.99,3297.38 "/>
   <path fill="#883F2E" stroke="#883F2E" stroke-width="4.24" stroke-miterlimit="22.9256" d="M725.39 2746.33c-16.26,-19.36 9.07,-116.52 18,-136.23 -9.81,-7.72 -52.94,-29.09 -63.52,-34.03l-45.73 248.98c18.72,-10.75 76.4,-61.92 91.25,-78.72z"/>
   <polygon fill="#A2E62E" stroke="#A2E62E" stroke-width="4.24" stroke-miterlimit="22.9256" points="1048.05,1972.43 1177.92,1973.13 1177.92,1898.07 1048.05,1898.17 "/>
   <polygon fill="#D88A55" stroke="#D88A55" stroke-width="4.24" stroke-miterlimit="22.9256" points="2095.77,1972.5 2224.19,1972.52 2224.19,1897.45 2095.77,1897.47 "/>
   <polygon fill="#FE98A0" stroke="#FE98A0" stroke-width="4.24" stroke-miterlimit="22.9256" points="1571.6,1972.45 1700.71,1972.67 1700.71,1898.11 1571.6,1898.15 "/>
   <path fill="#A24E3D" stroke="#A24E3D" stroke-width="4.24" stroke-miterlimit="22.9256" d="M725.39 2746.33c20.21,-10.97 83.19,-67.69 98.59,-85.6 -16.35,-11.29 -21.38,-10.31 -38.59,-27.19 -18.33,-17.97 -13.63,-24.44 -42,-23.44 -8.93,19.71 -34.26,116.87 -18,136.23z"/>
   <polygon fill="#C57A44" stroke="#C57A44" stroke-width="4.24" stroke-miterlimit="22.9256" points="2009.97,1972.94 2095.77,1972.5 2095.77,1897.47 2009.97,1898.54 "/>
   <path fill="#045C83" d="M1435.94 1054.58l-2.61 -269.5 85.81 -0.5 235.21 -0.13 -2.39 270.31c14.51,-21.25 14.27,-239.48 4.75,-274.58l-325.58 -1.86c-9.64,39.39 -12.93,254.9 4.81,276.26z"/>
   <polygon fill="#FD8087" stroke="#FD8087" stroke-width="4.24" stroke-miterlimit="22.9256" points="1487.41,1972.36 1571.6,1972.45 1571.6,1898.15 1487.41,1898.73 "/>
   <polygon fill="#97D729" stroke="#97D729" stroke-width="4.24" stroke-miterlimit="22.9256" points="964.84,1971.99 1048.05,1972.43 1048.05,1898.17 964.84,1898.85 "/>
   <path fill="#814E52" d="M1012.52 1052.17l-2.22 -267.18 84.5 -0.38 236.48 -0.13c0,84.15 6.18,194.56 -4.58,274.92 17.65,-9.09 15.37,-249.57 6.17,-279.81l-325.6 -1.14c-7.56,36.59 -11.1,258.57 5.25,273.72z"/>
   <path fill="#77474B" d="M1943.66 784.01l234.26 -0.08 -0.7 266.13c13.32,-24.59 12.95,-232.27 3.58,-269.53l-308.68 -2.98c-18.93,4.34 -8.71,-2.15 -17.63,12.3 27.66,-9.31 59.45,-5.25 89.17,-5.84z"/>
   <path fill="#995C61" d="M1487.41 1972.36l0 -73.63 84.19 -0.58 129.11 -0.04 0 74.56c11.36,-21.1 7.75,-53.53 3.52,-81.11l-220.56 2.51c-2.62,15.64 -3.39,28.01 -3.16,44.07l6.9 34.22z"/>
   <path fill="#7A4D2D" d="M2009.97 1972.94l0 -74.4 85.8 -1.07 128.42 -0.02 0 75.07 4.65 -9.43c4.01,-15.11 0.3,4.77 2.2,-11.62l-3.05 -60.4 -220.99 2.42c-4.85,26.42 -6.54,60.44 2.97,79.45z"/>
   <path fill="#618A1C" d="M964.84 1971.99l0 -73.14 83.21 -0.68 129.87 -0.1 0 75.06 2.84 -81.7 -220.64 3c-2.32,14.94 -3.18,28.41 -2.94,43.71l7.66 33.85z"/>
  </g>
 </g>
</svg>
