<?xml version="1.0" encoding="UTF-8"?>
<!DOCTYPE svg PUBLIC "-//W3C//DTD SVG 1.1//EN" "http://www.w3.org/Graphics/SVG/1.1/DTD/svg11.dtd">
<!-- Creator: CorelDRAW -->
<svg xmlns="http://www.w3.org/2000/svg" xml:space="preserve" width="1724px" height="1724px" version="1.1" shape-rendering="geometricPrecision" text-rendering="geometricPrecision" image-rendering="optimizeQuality" fill-rule="evenodd" clip-rule="evenodd"
viewBox="0 0 293.78 293.78"
 xmlns:xlink="http://www.w3.org/1999/xlink"
 xmlns:xodm="http://www.corel.com/coreldraw/odm/2003">
 <g id="Слой_x0020_1">
  <metadata id="CorelCorpID_0Corel-Layer"/>
  <path fill="white" stroke="black" stroke-width="0.34" stroke-miterlimit="22.9256" d="M181.54 198.01c-2.3,-0.54 -16.67,-8.05 -19.88,-9.66 -4.55,-2.27 -16.22,-9.09 -21.02,-9.09 -6.52,0 -9.93,7.37 -14.2,10.23 0,-1.91 -0.04,-3.82 -0.04,-5.72 0,-3.15 -0.33,-2.68 1.27,-4.41l28.45 -28.35c5.31,-5.31 13.72,-11.62 7.04,-19.82 -5.09,-6.26 -12.64,-1.16 -17.08,0.69 -3.58,1.5 -6.59,2.75 -9.97,4.23l-39.59 17.28c-2.4,1.08 -2.26,0.92 -4.39,-0.56 -1.76,-1.21 -2.79,-1.71 -4.55,-2.87 -1.89,-1.24 -7.09,-4.87 -8.85,-5.34l0 -1.14c2.84,-0.24 87.93,-34.03 90.88,-35.22l30.1 -11.92c0,3.57 -3.43,20.38 -4.3,25.23 -1.57,8.74 -3.22,17.26 -4.63,25.47 -1.5,8.73 -3.23,17.11 -4.62,25.48l-4.62 25.49zm-67.6 -31.81c-0.93,1.39 -1.81,2.42 -3.07,3.74 -4.3,4.48 -2.61,10.14 -2.61,19.55 0,5.33 -1.12,24.83 1.54,28 11.06,13.14 21.18,-9.78 33.11,-17.78l37.11 18.56c14.93,7.47 16.67,-0.26 18.8,-12.07l8.69 -47.54c1.42,-8.28 14.62,-74.7 13.59,-79.15 -0.96,-4.17 -5.57,-8.34 -11.48,-6.79l-13.48 5.28c-44.23,17.7 -89.37,34.55 -133.48,52.26 -4.36,1.75 -9.89,2.95 -12.26,6.47 -5.94,8.84 3.48,13.49 7.87,16.41l28.74 18.41c9.43,6.32 15.88,-2.78 26.93,-5.35zm32.95 108.27c-70.46,0 -127.58,-57.12 -127.58,-127.58 0,-70.46 57.12,-127.58 127.58,-127.58 70.46,0 127.58,57.12 127.58,127.58 0,70.46 -57.12,127.58 -127.58,127.58zm0 19.14c-81.03,0 -146.72,-65.69 -146.72,-146.72 0,-81.03 65.69,-146.72 146.72,-146.72 81.03,0 146.72,65.69 146.72,146.72 0,81.03 -65.69,146.72 -146.72,146.72z"/>
 </g>
</svg>
