<?xml version="1.0" encoding="UTF-8"?>
<!DOCTYPE svg PUBLIC "-//W3C//DTD SVG 1.1//EN" "http://www.w3.org/Graphics/SVG/1.1/DTD/svg11.dtd">
<!-- Creator: CorelDRAW -->
<svg xmlns="http://www.w3.org/2000/svg" xml:space="preserve" width="1724px" height="1724px" version="1.1" shape-rendering="geometricPrecision" text-rendering="geometricPrecision" image-rendering="optimizeQuality" fill-rule="evenodd" clip-rule="evenodd"
viewBox="0 0 469.48 469.48"
 xmlns:xlink="http://www.w3.org/1999/xlink"
 xmlns:xodm="http://www.corel.com/coreldraw/odm/2003">
 <g id="Слой_x0020_1">
  <metadata id="CorelCorpID_0Corel-Layer"/>
  <path fill="white" stroke="black" stroke-width="0.54" stroke-miterlimit="22.9256" d="M234.74 469.2c-129.49,0 -234.47,-104.97 -234.47,-234.46 0,-129.49 104.98,-234.47 234.47,-234.47 129.49,0 234.46,104.98 234.46,234.47 0,129.49 -104.97,234.46 -234.46,234.46zm0 -30.58c-112.6,0 -203.89,-91.28 -203.89,-203.88 0,-112.6 91.29,-203.89 203.89,-203.89 112.6,0 203.88,91.29 203.88,203.89 0,112.6 -91.28,203.88 -203.88,203.88zm-27.42 -280.41l37.44 0 0 68.92c0,13.29 20.49,22.72 32.13,11.71 18.64,-17.63 23.08,-22.17 37.16,-45.37 1.96,-3.23 3.01,-5.83 4.77,-8.85l8.83 -18.39c1.55,-4.01 1.73,-6.24 6.18,-7.43 4.55,-1.22 20.72,-0.59 27.49,-0.59 -1.18,5.09 -20.1,32 -24.31,37.8 -4.53,6.22 -7.9,11.98 -12.51,18.12 -19.63,26.07 -1.2,44.61 16.63,62.97l10.71 12.26c1.38,1.74 2.58,2.72 4.18,4.33 2.49,2.49 14.04,15.34 14.66,17.67 -12.92,0 -26.67,0.75 -35.47,-3.67 -5.7,-2.85 -16.06,-13.4 -20.9,-18.24l-10.22 -9.34c-3.5,-3.37 -6.34,-6.35 -9.77,-9.8 -10.81,-10.88 -26.17,-17.49 -41.03,-8.27 -3.9,2.42 -7.8,5.3 -8.46,10.25 -1.2,9.02 -0.07,28.13 -0.07,38.22 -3.25,0.27 -4.13,0.96 -8.51,0.91l-24.79 -3.35c-5.15,-1.59 -8.57,-3.45 -13.25,-5.46 -13.9,-5.99 -34.45,-21.32 -43.14,-32.58 -5.08,-6.57 -8.87,-9.09 -17.17,-21.12 -2.76,-4 -5.05,-6.84 -7.64,-11.08l-10.27 -17.8c-8.18,-16.24 -21.81,-43.72 -25.82,-60.97 3.69,-0.08 3,-0.65 6.8,-0.85l24.68 0c1.13,4.85 4.07,11.03 5.83,15.44 6.76,16.92 22.24,48.84 33.96,62.18 7.35,8.35 20.37,21.93 32.53,21.93 5.98,0 12.76,-6.08 12.76,-11.91l0 -72.32c0,-3.54 -2.32,-12.89 -3.41,-15.32zm20.42 178.67c14.2,0 32.9,2.07 40.27,-15.03 3.69,-8.55 2.27,-27.31 2.27,-37.72 4.23,2.83 27.37,25.24 33.4,31.27 25.44,25.46 39.83,21.48 75.51,21.48 13.06,0 23.27,-10.2 21.57,-22.36 -1.1,-7.93 -6.21,-16.57 -11.16,-22.08l-37.44 -41.69c-2.7,-2.7 -9.56,-9.8 -9.56,-13.41 0,-5.91 7.46,-14.14 12.08,-21.1 2.32,-3.5 4.44,-6.2 6.64,-9.53 7.6,-11.46 20.2,-27.61 24.94,-39.72 7.89,-20.13 -2.44,-34.3 -15.58,-34.3l-37.44 0c-24.97,0 -29.1,25.68 -40.79,45.99 -3.78,6.56 -16.55,26.82 -22.17,30.58 0,-15.88 -0.03,-31.77 0.01,-47.65 0.02,-9 -0.63,-14.41 -4.22,-19.6 -2.76,-3.98 -8.69,-9.32 -15.35,-9.32l-51.9 0c-16.89,0 -27.32,14.62 -21.31,27.26 1.46,3.06 8.85,9.46 7.5,20.12 -1.35,10.55 -0.66,24.85 -0.66,36.85 -3.64,-2.44 -10.37,-15.1 -13.25,-19.93 -4.42,-7.4 -7.12,-14.33 -10.86,-22.33 -3.77,-8.07 -6.32,-14.96 -9.67,-23.5 -8.93,-22.74 -4.32,-18.47 -53.85,-18.47 -14.7,0 -25.61,8.55 -27.86,20.65 -4.2,22.52 33.24,89.07 42.66,103.23 23.13,34.73 53.92,65 94.85,77.02 5.83,1.71 13.66,3.29 21.37,3.29z"/>
 </g>
</svg>
