<?xml version="1.0" encoding="UTF-8"?>
<!DOCTYPE svg PUBLIC "-//W3C//DTD SVG 1.1//EN" "http://www.w3.org/Graphics/SVG/1.1/DTD/svg11.dtd">
<!-- Creator: CorelDRAW -->
<svg xmlns="http://www.w3.org/2000/svg" xml:space="preserve" width="1724px" height="1724px" version="1.1" shape-rendering="geometricPrecision" text-rendering="geometricPrecision" image-rendering="optimizeQuality" fill-rule="evenodd" clip-rule="evenodd"
viewBox="0 0 469.48 469.48"
 xmlns:xlink="http://www.w3.org/1999/xlink"
 xmlns:xodm="http://www.corel.com/coreldraw/odm/2003">
 <g id="Слой_x0020_1">
  <metadata id="CorelCorpID_0Corel-Layer"/>
  <path fill="white" stroke="black" stroke-width="0.54" stroke-miterlimit="22.9256" d="M177.44 206.54c0,18.03 14.49,43.1 27.91,56.51 7.9,7.89 14.1,12.67 24.44,18.23l14.41 6.46c21.64,8.6 23.62,2.25 32.86,-6.99 17.15,-17.14 15.48,-14.86 28.37,-5.22 3.7,2.77 7.08,5.34 10.77,8.29 3.69,2.96 7.09,5.19 10.81,8.26 6.88,5.68 15.89,7.95 1.66,26.66 -8.22,10.82 -17.93,15.57 -31.64,17.38 -4.51,0.6 -19.04,-0.45 -23.78,-1.18 -16.13,-2.45 -25.76,-4.9 -38.88,-10.13 -6.43,-2.56 -10.72,-4.84 -16.7,-7.82 -3.45,-1.72 -4.83,-2.73 -7.91,-4.79 -10.22,-6.87 -18.53,-13.13 -27.56,-21.46 -2.54,-2.34 -3.87,-3.84 -6.05,-6.66 -2.06,-2.66 -3.65,-3.65 -5.7,-6.1l-15.89 -22.23c-15.12,-23.94 -32.81,-82.16 -12.32,-107.11 5.27,-6.42 16.4,-15.62 24.31,-15.62 4.87,0 7.77,5.72 10.27,8.79l16.57 21.55c5.97,7.99 7.65,7.64 7.65,14.13 0,4.5 -23.6,20.72 -23.6,29.05zm-68.08 -37.21c0,32.3 3.15,56.56 17.23,85.34 14.64,29.92 33.89,49.83 59.29,70.51 5.61,4.56 19.89,12.92 26.95,16.63 12.49,6.56 35.21,13.95 49.27,16.08 26.85,4.07 56.03,4.74 76.7,-14.5 5.3,-4.93 8.77,-9.19 12.76,-15.38 10.54,-16.37 12.89,-34.17 -1.86,-48.64l-16.78 -13.18c-10.83,-8.12 -25.96,-22.43 -38.38,-22.43 -21.81,0 -25.3,14.71 -37.22,22.69 -25.39,-5.91 -48.55,-29.07 -54.46,-54.46 6.68,-9.98 37.76,-26.13 14,-57.58l-26.92 -34.8c-14.23,-14.52 -31.05,-12.26 -47.39,-2.43 -17.99,10.83 -33.19,31.98 -33.19,52.15zm125.38 269.29c-112.6,0 -203.89,-91.28 -203.89,-203.88 0,-112.6 91.29,-203.89 203.89,-203.89 112.6,0 203.88,91.29 203.88,203.89 0,112.6 -91.28,203.88 -203.88,203.88zm0 30.58c-129.49,0 -234.47,-104.97 -234.47,-234.46 0,-129.49 104.98,-234.47 234.47,-234.47 129.49,0 234.46,104.98 234.46,234.47 0,129.49 -104.97,234.46 -234.46,234.46z"/>
 </g>
</svg>
